<?xml version="1.0" encoding="UTF-8" standalone="no"?>
<!DOCTYPE svg PUBLIC "-//W3C//DTD SVG 1.1//EN" "http://www.w3.org/Graphics/SVG/1.1/DTD/svg11.dtd">
<svg width="100%" height="100%" viewBox="0 0 443 40" version="1.1" xmlns="http://www.w3.org/2000/svg" xmlns:xlink="http://www.w3.org/1999/xlink" xml:space="preserve" xmlns:serif="http://www.serif.com/" style="fill-rule:evenodd;clip-rule:evenodd;stroke-linejoin:round;stroke-miterlimit:2;">
    <g transform="matrix(4.15628,0,0,4.15628,-373.451,-613.827)">
        <g transform="matrix(12,0,0,12,89.2523,156.075)">
            <path d="M0.735,0.006L0.721,0.004L0.643,-0.001L0.546,-0.001L0.468,0.004L0.454,0.004L0.455,-0.019L0.466,-0.019C0.491,-0.022 0.508,-0.027 0.517,-0.035C0.526,-0.043 0.531,-0.057 0.531,-0.078L0.531,-0.183L0.257,-0.183L0.255,-0.082L0.255,-0.078C0.255,-0.059 0.26,-0.045 0.269,-0.036C0.279,-0.027 0.296,-0.022 0.321,-0.019L0.332,-0.019L0.332,0.006L0.318,0.004L0.24,-0.001L0.142,-0.001L0.064,0.004L0.05,0.004L0.051,-0.019L0.062,-0.019C0.087,-0.022 0.104,-0.027 0.113,-0.035C0.122,-0.043 0.127,-0.057 0.127,-0.078L0.127,-0.085C0.127,-0.21 0.149,-0.32 0.192,-0.417C0.239,-0.521 0.306,-0.598 0.393,-0.65C0.48,-0.598 0.547,-0.521 0.593,-0.418C0.637,-0.32 0.659,-0.209 0.659,-0.085L0.659,-0.078C0.659,-0.059 0.664,-0.045 0.673,-0.036C0.682,-0.027 0.699,-0.022 0.724,-0.019L0.735,-0.019L0.735,0.006ZM0.526,-0.235C0.526,-0.329 0.513,-0.405 0.486,-0.463C0.465,-0.508 0.434,-0.547 0.393,-0.579C0.352,-0.548 0.321,-0.51 0.3,-0.464C0.273,-0.406 0.26,-0.33 0.26,-0.235L0.526,-0.235Z" style="fill:rgb(17,17,17);fill-rule:nonzero;"/>
        </g>
        <g transform="matrix(12,0,0,12,96.8843,156.075)">
            <path d="M0.49,-0.199C0.49,-0.141 0.469,-0.091 0.426,-0.049C0.383,-0.006 0.329,0.015 0.265,0.015C0.221,0.015 0.181,0.004 0.146,-0.017C0.107,-0.04 0.075,-0.076 0.049,-0.123C0.075,-0.144 0.107,-0.165 0.144,-0.186C0.156,-0.193 0.173,-0.201 0.193,-0.212L0.204,-0.193C0.195,-0.188 0.188,-0.18 0.182,-0.169C0.176,-0.158 0.173,-0.147 0.173,-0.134C0.173,-0.122 0.175,-0.11 0.18,-0.098C0.188,-0.076 0.203,-0.06 0.224,-0.05C0.24,-0.043 0.259,-0.039 0.281,-0.039C0.301,-0.039 0.322,-0.051 0.342,-0.076C0.362,-0.1 0.372,-0.128 0.372,-0.161L0.372,-0.175C0.369,-0.213 0.355,-0.245 0.332,-0.272C0.308,-0.299 0.281,-0.312 0.251,-0.312C0.228,-0.312 0.206,-0.309 0.184,-0.304C0.162,-0.299 0.146,-0.292 0.136,-0.285L0.094,-0.318L0.114,-0.622L0.351,-0.622C0.37,-0.622 0.384,-0.627 0.393,-0.636C0.402,-0.646 0.407,-0.663 0.41,-0.688L0.41,-0.699L0.433,-0.699L0.432,-0.685L0.427,-0.607L0.427,-0.529L0.432,-0.451L0.432,-0.437L0.41,-0.438L0.41,-0.449C0.407,-0.474 0.402,-0.491 0.394,-0.5C0.386,-0.509 0.372,-0.514 0.351,-0.514L0.17,-0.514L0.161,-0.378C0.194,-0.393 0.228,-0.4 0.265,-0.4C0.328,-0.4 0.381,-0.381 0.425,-0.344C0.468,-0.307 0.49,-0.258 0.49,-0.199Z" style="fill:rgb(17,17,17);fill-rule:nonzero;"/>
        </g>
        <g transform="matrix(12,0,0,12,105.356,156.075)">
            <path d="M0.615,-0.186C0.594,-0.158 0.576,-0.122 0.562,-0.079C0.56,-0.073 0.552,-0.045 0.539,0.006C0.492,0.004 0.456,0.004 0.43,0.003C0.335,0 0.278,-0.001 0.26,-0.001L0.172,-0.001L0.094,0.006L0.08,0.006L0.081,-0.017L0.092,-0.017C0.117,-0.02 0.134,-0.025 0.143,-0.033C0.152,-0.041 0.157,-0.056 0.157,-0.076L0.157,-0.544C0.157,-0.563 0.152,-0.577 0.143,-0.586C0.134,-0.595 0.117,-0.6 0.092,-0.603L0.081,-0.603L0.081,-0.627L0.095,-0.626L0.173,-0.621L0.26,-0.621L0.338,-0.626L0.352,-0.626L0.351,-0.603L0.34,-0.603C0.315,-0.6 0.298,-0.595 0.289,-0.587C0.28,-0.579 0.275,-0.565 0.275,-0.544L0.275,-0.134C0.275,-0.107 0.278,-0.09 0.282,-0.085C0.288,-0.079 0.302,-0.076 0.326,-0.076L0.42,-0.076C0.457,-0.076 0.483,-0.079 0.497,-0.086C0.51,-0.093 0.529,-0.112 0.554,-0.144L0.586,-0.186L0.615,-0.186Z" style="fill:rgb(17,17,17);fill-rule:nonzero;"/>
        </g>
        <g transform="matrix(12,0,0,12,112.28,156.075)">
            <path d="M0.588,-0.228C0.588,-0.262 0.581,-0.293 0.568,-0.322C0.555,-0.35 0.536,-0.374 0.512,-0.394C0.488,-0.414 0.46,-0.43 0.429,-0.441C0.397,-0.452 0.363,-0.457 0.327,-0.457C0.29,-0.457 0.256,-0.451 0.224,-0.438C0.191,-0.425 0.163,-0.408 0.14,-0.385C0.116,-0.362 0.098,-0.336 0.085,-0.307C0.071,-0.277 0.065,-0.246 0.065,-0.214C0.065,-0.18 0.072,-0.149 0.085,-0.121C0.098,-0.093 0.117,-0.069 0.141,-0.049C0.165,-0.028 0.193,-0.013 0.225,-0.002C0.257,0.009 0.291,0.015 0.327,0.015C0.364,0.015 0.399,0.009 0.431,-0.004C0.463,-0.017 0.491,-0.035 0.515,-0.058C0.538,-0.081 0.556,-0.107 0.569,-0.136C0.582,-0.165 0.588,-0.196 0.588,-0.228ZM0.476,-0.221C0.476,-0.218 0.476,-0.214 0.477,-0.211L0.477,-0.201C0.477,-0.158 0.465,-0.122 0.44,-0.093C0.415,-0.064 0.383,-0.049 0.343,-0.049C0.298,-0.049 0.261,-0.066 0.231,-0.099C0.2,-0.132 0.182,-0.172 0.177,-0.221L0.177,-0.23C0.176,-0.234 0.176,-0.237 0.176,-0.239C0.176,-0.283 0.189,-0.32 0.214,-0.348C0.238,-0.378 0.271,-0.392 0.311,-0.392C0.356,-0.392 0.394,-0.376 0.424,-0.343C0.454,-0.31 0.471,-0.27 0.476,-0.221ZM0.399,-0.217L0.399,-0.227C0.368,-0.24 0.345,-0.263 0.332,-0.294L0.322,-0.294C0.309,-0.263 0.286,-0.24 0.255,-0.227L0.255,-0.217C0.286,-0.204 0.309,-0.181 0.322,-0.15L0.332,-0.15C0.345,-0.181 0.368,-0.204 0.399,-0.217Z" style="fill:rgb(17,17,17);fill-rule:nonzero;"/>
        </g>
        <g transform="matrix(12,0,0,12,119.336,156.075)">
            <path d="M0.583,-0.205L0.582,-0.182L0.571,-0.182C0.548,-0.179 0.533,-0.174 0.526,-0.166C0.519,-0.159 0.516,-0.144 0.516,-0.123L0.516,-0.028C0.494,-0.019 0.475,-0.012 0.46,-0.007C0.412,0.008 0.368,0.015 0.327,0.015C0.253,0.015 0.191,-0.006 0.142,-0.047C0.091,-0.09 0.065,-0.146 0.065,-0.214C0.065,-0.28 0.09,-0.337 0.14,-0.385C0.19,-0.433 0.252,-0.457 0.327,-0.457C0.356,-0.457 0.388,-0.452 0.423,-0.442C0.457,-0.431 0.477,-0.426 0.482,-0.426C0.489,-0.426 0.494,-0.427 0.499,-0.43L0.505,-0.304L0.486,-0.304C0.479,-0.333 0.462,-0.356 0.433,-0.374C0.404,-0.391 0.373,-0.4 0.339,-0.4C0.292,-0.4 0.254,-0.382 0.225,-0.346C0.196,-0.31 0.181,-0.267 0.181,-0.216C0.181,-0.165 0.198,-0.124 0.233,-0.091C0.268,-0.058 0.308,-0.042 0.355,-0.042C0.374,-0.042 0.392,-0.044 0.408,-0.048L0.408,-0.123C0.408,-0.143 0.405,-0.158 0.398,-0.166C0.391,-0.174 0.376,-0.179 0.353,-0.182L0.342,-0.182L0.342,-0.205L0.356,-0.205C0.376,-0.203 0.389,-0.201 0.396,-0.2C0.402,-0.199 0.412,-0.199 0.424,-0.199L0.501,-0.199C0.512,-0.199 0.523,-0.2 0.535,-0.201C0.546,-0.203 0.558,-0.204 0.569,-0.205L0.583,-0.205Z" style="fill:rgb(17,17,17);fill-rule:nonzero;"/>
        </g>
        <g transform="matrix(12,0,0,12,125.756,156.075)">
            <path d="M0.588,-0.228C0.588,-0.262 0.581,-0.293 0.568,-0.322C0.555,-0.35 0.536,-0.374 0.512,-0.394C0.488,-0.414 0.46,-0.43 0.429,-0.441C0.397,-0.452 0.363,-0.457 0.327,-0.457C0.29,-0.457 0.256,-0.451 0.224,-0.438C0.191,-0.425 0.163,-0.408 0.14,-0.385C0.116,-0.362 0.098,-0.336 0.085,-0.307C0.071,-0.277 0.065,-0.246 0.065,-0.214C0.065,-0.18 0.072,-0.149 0.085,-0.121C0.098,-0.093 0.117,-0.069 0.141,-0.049C0.165,-0.028 0.193,-0.013 0.225,-0.002C0.257,0.009 0.291,0.015 0.327,0.015C0.364,0.015 0.399,0.009 0.431,-0.004C0.463,-0.017 0.491,-0.035 0.515,-0.058C0.538,-0.081 0.556,-0.107 0.569,-0.136C0.582,-0.165 0.588,-0.196 0.588,-0.228ZM0.476,-0.221C0.476,-0.218 0.476,-0.214 0.477,-0.211L0.477,-0.201C0.477,-0.158 0.465,-0.122 0.44,-0.093C0.415,-0.064 0.383,-0.049 0.343,-0.049C0.298,-0.049 0.261,-0.066 0.231,-0.099C0.2,-0.132 0.182,-0.172 0.177,-0.221L0.177,-0.23C0.176,-0.234 0.176,-0.237 0.176,-0.239C0.176,-0.283 0.189,-0.32 0.214,-0.348C0.238,-0.378 0.271,-0.392 0.311,-0.392C0.356,-0.392 0.394,-0.376 0.424,-0.343C0.454,-0.31 0.471,-0.27 0.476,-0.221ZM0.399,-0.217L0.399,-0.227C0.368,-0.24 0.345,-0.263 0.332,-0.294L0.322,-0.294C0.309,-0.263 0.286,-0.24 0.255,-0.227L0.255,-0.217C0.286,-0.204 0.309,-0.181 0.322,-0.15L0.332,-0.15C0.345,-0.181 0.368,-0.204 0.399,-0.217Z" style="fill:rgb(17,17,17);fill-rule:nonzero;"/>
        </g>
        <g transform="matrix(12,0,0,12,135.368,156.075)">
            <path d="M0.775,-0.282L0.774,-0.259L0.763,-0.259C0.738,-0.256 0.721,-0.251 0.712,-0.243C0.703,-0.235 0.698,-0.221 0.698,-0.2L0.698,-0.037C0.669,-0.025 0.644,-0.016 0.624,-0.011C0.563,0.006 0.501,0.015 0.439,0.015C0.337,0.015 0.252,-0.014 0.185,-0.071C0.115,-0.13 0.08,-0.207 0.08,-0.301C0.08,-0.392 0.114,-0.471 0.181,-0.536C0.251,-0.603 0.337,-0.637 0.439,-0.637C0.479,-0.637 0.516,-0.633 0.551,-0.624C0.585,-0.615 0.619,-0.606 0.654,-0.597C0.662,-0.597 0.669,-0.599 0.674,-0.602L0.681,-0.434L0.658,-0.434C0.649,-0.482 0.631,-0.516 0.604,-0.537C0.573,-0.56 0.524,-0.572 0.456,-0.572C0.389,-0.572 0.335,-0.546 0.294,-0.494C0.253,-0.441 0.232,-0.378 0.232,-0.304C0.232,-0.229 0.257,-0.168 0.306,-0.12C0.353,-0.074 0.411,-0.051 0.478,-0.051C0.52,-0.051 0.554,-0.057 0.58,-0.07L0.58,-0.2C0.58,-0.219 0.575,-0.233 0.566,-0.242C0.557,-0.251 0.54,-0.256 0.515,-0.259L0.504,-0.259L0.504,-0.282L0.518,-0.282L0.596,-0.276L0.683,-0.276L0.761,-0.282L0.775,-0.282Z" style="fill:rgb(17,17,17);fill-rule:nonzero;"/>
        </g>
        <g transform="matrix(12,0,0,12,144.488,156.075)">
            <path d="M0.461,-0.118C0.449,-0.098 0.44,-0.075 0.434,-0.049C0.431,-0.032 0.427,-0.015 0.424,0.002L0.311,0L0.147,0C0.136,0 0.125,0.001 0.114,0.002C0.102,0.004 0.09,0.005 0.079,0.006L0.065,0.006L0.066,-0.017L0.077,-0.017C0.1,-0.02 0.115,-0.025 0.122,-0.033C0.129,-0.04 0.132,-0.055 0.132,-0.076L0.132,-0.364C0.132,-0.384 0.129,-0.399 0.122,-0.407C0.115,-0.415 0.1,-0.42 0.077,-0.423L0.066,-0.423L0.065,-0.447L0.079,-0.446C0.099,-0.444 0.112,-0.443 0.119,-0.442C0.126,-0.441 0.135,-0.441 0.147,-0.441L0.424,-0.441L0.439,-0.331L0.418,-0.332C0.412,-0.356 0.406,-0.37 0.4,-0.376C0.393,-0.381 0.379,-0.384 0.358,-0.384L0.24,-0.384L0.24,-0.27L0.402,-0.27L0.402,-0.216L0.24,-0.216L0.24,-0.096C0.24,-0.079 0.242,-0.068 0.245,-0.064C0.248,-0.06 0.258,-0.058 0.274,-0.058L0.343,-0.058C0.372,-0.058 0.394,-0.065 0.407,-0.078C0.412,-0.084 0.422,-0.096 0.435,-0.116L0.461,-0.118Z" style="fill:rgb(17,17,17);fill-rule:nonzero;"/>
        </g>
        <g transform="matrix(12,0,0,12,149.828,156.075)">
            <path d="M0.584,0.006L0.57,0.004C0.55,0.002 0.537,0.001 0.53,0C0.524,-0.001 0.514,-0.001 0.502,-0.001L0.425,-0.001C0.414,-0.001 0.403,0 0.391,0.001C0.38,0.002 0.368,0.003 0.357,0.004L0.343,0.004L0.344,-0.019L0.355,-0.019C0.378,-0.022 0.393,-0.027 0.4,-0.035C0.407,-0.042 0.41,-0.057 0.41,-0.078L0.41,-0.376L0.24,-0.376L0.24,-0.078C0.24,-0.057 0.243,-0.043 0.25,-0.035C0.257,-0.027 0.272,-0.022 0.295,-0.019L0.306,-0.019L0.306,0.006L0.292,0.004C0.272,0.002 0.259,0.001 0.252,0C0.246,-0.001 0.236,-0.001 0.224,-0.001L0.147,-0.001C0.136,-0.001 0.125,0 0.113,0.001C0.102,0.002 0.09,0.003 0.079,0.004L0.065,0.004L0.066,-0.019L0.077,-0.019C0.1,-0.022 0.115,-0.027 0.122,-0.035C0.129,-0.042 0.132,-0.057 0.132,-0.078L0.132,-0.364C0.132,-0.385 0.129,-0.399 0.122,-0.407C0.115,-0.415 0.1,-0.42 0.077,-0.423L0.066,-0.423L0.066,-0.447L0.08,-0.446C0.1,-0.444 0.113,-0.443 0.12,-0.442C0.127,-0.441 0.136,-0.441 0.148,-0.441L0.503,-0.441C0.514,-0.441 0.525,-0.442 0.537,-0.443C0.548,-0.444 0.56,-0.445 0.571,-0.446L0.585,-0.446L0.584,-0.423L0.573,-0.423C0.55,-0.42 0.535,-0.415 0.528,-0.407C0.521,-0.4 0.518,-0.385 0.518,-0.364L0.518,-0.078C0.518,-0.057 0.521,-0.043 0.528,-0.035C0.535,-0.027 0.55,-0.022 0.573,-0.019L0.584,-0.019L0.584,0.006Z" style="fill:rgb(17,17,17);fill-rule:nonzero;"/>
        </g>
        <g transform="matrix(12,0,0,12,156.848,156.075)">
            <path d="M0.461,-0.118C0.449,-0.098 0.44,-0.075 0.434,-0.049C0.431,-0.032 0.427,-0.015 0.424,0.002L0.311,0L0.147,0C0.136,0 0.125,0.001 0.114,0.002C0.102,0.004 0.09,0.005 0.079,0.006L0.065,0.006L0.066,-0.017L0.077,-0.017C0.1,-0.02 0.115,-0.025 0.122,-0.033C0.129,-0.04 0.132,-0.055 0.132,-0.076L0.132,-0.364C0.132,-0.384 0.129,-0.399 0.122,-0.407C0.115,-0.415 0.1,-0.42 0.077,-0.423L0.066,-0.423L0.065,-0.447L0.079,-0.446C0.099,-0.444 0.112,-0.443 0.119,-0.442C0.126,-0.441 0.135,-0.441 0.147,-0.441L0.424,-0.441L0.439,-0.331L0.418,-0.332C0.412,-0.356 0.406,-0.37 0.4,-0.376C0.393,-0.381 0.379,-0.384 0.358,-0.384L0.24,-0.384L0.24,-0.27L0.402,-0.27L0.402,-0.216L0.24,-0.216L0.24,-0.096C0.24,-0.079 0.242,-0.068 0.245,-0.064C0.248,-0.06 0.258,-0.058 0.274,-0.058L0.343,-0.058C0.372,-0.058 0.394,-0.065 0.407,-0.078C0.412,-0.084 0.422,-0.096 0.435,-0.116L0.461,-0.118Z" style="fill:rgb(17,17,17);fill-rule:nonzero;"/>
        </g>
        <g transform="matrix(12,0,0,12,162.188,156.075)">
            <path d="M0.85,0.067C0.846,0.077 0.834,0.085 0.813,0.092C0.792,0.099 0.768,0.103 0.74,0.103C0.675,0.103 0.607,0.082 0.538,0.039C0.491,0.01 0.439,-0.033 0.383,-0.089C0.354,-0.118 0.326,-0.148 0.297,-0.177C0.296,-0.178 0.294,-0.179 0.291,-0.18C0.288,-0.181 0.282,-0.184 0.273,-0.188L0.24,-0.19L0.24,-0.078C0.24,-0.057 0.243,-0.043 0.25,-0.035C0.257,-0.027 0.272,-0.022 0.295,-0.019L0.306,-0.019L0.306,0.005L0.292,0.004C0.272,0.002 0.259,0.001 0.252,0C0.246,-0.001 0.236,-0.001 0.225,-0.001L0.147,-0.001C0.136,-0.001 0.125,0 0.114,0.001C0.102,0.002 0.09,0.003 0.079,0.004L0.065,0.004L0.066,-0.019L0.077,-0.019C0.1,-0.022 0.115,-0.027 0.122,-0.035C0.129,-0.042 0.132,-0.057 0.132,-0.078L0.132,-0.364C0.132,-0.385 0.129,-0.399 0.122,-0.407C0.115,-0.415 0.1,-0.42 0.077,-0.423L0.066,-0.423L0.066,-0.447L0.08,-0.446C0.1,-0.444 0.113,-0.443 0.119,-0.442C0.126,-0.441 0.135,-0.441 0.147,-0.441L0.311,-0.446C0.36,-0.446 0.399,-0.435 0.428,-0.413C0.457,-0.391 0.472,-0.365 0.472,-0.333C0.472,-0.307 0.465,-0.283 0.45,-0.262C0.435,-0.241 0.415,-0.223 0.39,-0.21C0.444,-0.151 0.489,-0.102 0.526,-0.065C0.595,0.006 0.656,0.05 0.709,0.069C0.731,0.076 0.754,0.08 0.779,0.08C0.806,0.08 0.83,0.076 0.85,0.067ZM0.364,-0.314C0.364,-0.338 0.358,-0.357 0.345,-0.372C0.33,-0.389 0.31,-0.398 0.283,-0.398C0.268,-0.398 0.257,-0.397 0.25,-0.394C0.243,-0.391 0.24,-0.385 0.24,-0.374L0.24,-0.224L0.276,-0.222C0.301,-0.222 0.322,-0.23 0.339,-0.247C0.356,-0.263 0.364,-0.285 0.364,-0.314Z" style="fill:rgb(17,17,17);fill-rule:nonzero;"/>
        </g>
        <g transform="matrix(12,0,0,12,168.368,156.075)">
            <path d="M0.333,-0.14L0.171,-0.14L0.252,-0.323L0.333,-0.14ZM0.348,-0.371C0.345,-0.378 0.343,-0.385 0.343,-0.391C0.343,-0.401 0.347,-0.408 0.356,-0.413C0.364,-0.418 0.376,-0.421 0.392,-0.423C0.395,-0.424 0.399,-0.424 0.403,-0.424L0.404,-0.447L0.39,-0.446C0.383,-0.445 0.375,-0.445 0.365,-0.444C0.346,-0.442 0.331,-0.441 0.322,-0.441L0.244,-0.441C0.235,-0.441 0.22,-0.442 0.201,-0.444C0.191,-0.445 0.183,-0.445 0.176,-0.446L0.162,-0.447L0.163,-0.424C0.167,-0.424 0.171,-0.424 0.174,-0.423C0.189,-0.422 0.2,-0.419 0.209,-0.413C0.218,-0.408 0.222,-0.401 0.222,-0.392C0.222,-0.387 0.22,-0.381 0.217,-0.374L0.085,-0.076C0.079,-0.063 0.073,-0.053 0.067,-0.047C0.061,-0.041 0.053,-0.038 0.043,-0.038C0.035,-0.038 0.024,-0.04 0.01,-0.045C0.007,-0.046 0.003,-0.047 0,-0.048L-0.01,-0.028L0.003,-0.023C0.015,-0.019 0.026,-0.015 0.036,-0.011C0.051,-0.006 0.062,-0.002 0.067,0L0.088,0.01C0.095,0.013 0.107,0.019 0.124,0.028C0.134,0.034 0.142,0.039 0.148,0.042L0.161,0.048L0.169,0.027C0.165,0.026 0.162,0.024 0.159,0.022C0.146,0.014 0.136,0.007 0.131,0C0.126,-0.006 0.123,-0.013 0.123,-0.02C0.123,-0.028 0.126,-0.04 0.133,-0.055L0.146,-0.084L0.358,-0.084L0.371,-0.054C0.378,-0.039 0.381,-0.028 0.381,-0.02C0.381,-0.005 0.369,0.009 0.345,0.022C0.342,0.024 0.339,0.026 0.335,0.027L0.344,0.049L0.356,0.042C0.367,0.036 0.373,0.033 0.374,0.032C0.384,0.027 0.392,0.022 0.398,0.019C0.403,0.016 0.409,0.013 0.416,0.01L0.487,-0.022C0.494,-0.025 0.504,-0.028 0.517,-0.033C0.528,-0.037 0.54,-0.041 0.551,-0.045L0.565,-0.05L0.554,-0.07C0.551,-0.069 0.547,-0.068 0.544,-0.067C0.53,-0.062 0.519,-0.06 0.51,-0.06C0.501,-0.06 0.493,-0.063 0.488,-0.069C0.482,-0.074 0.476,-0.084 0.47,-0.098L0.348,-0.371Z" style="fill:rgb(17,17,17);fill-rule:nonzero;"/>
        </g>
        <g transform="matrix(12,0,0,12,173.948,156.075)">
            <path d="M0.198,-0.381L0.198,-0.078C0.198,-0.057 0.195,-0.042 0.188,-0.035C0.181,-0.027 0.166,-0.022 0.143,-0.019C0.14,-0.018 0.136,-0.018 0.132,-0.018L0.131,0.005L0.145,0.005C0.152,0.004 0.16,0.004 0.17,0.003C0.189,0.001 0.204,0 0.213,0L0.291,0C0.3,0 0.315,0.001 0.334,0.003C0.344,0.004 0.352,0.004 0.359,0.005L0.373,0.005L0.372,-0.018C0.368,-0.018 0.364,-0.018 0.361,-0.019C0.338,-0.022 0.323,-0.027 0.316,-0.035C0.309,-0.042 0.306,-0.057 0.306,-0.078L0.306,-0.381L0.413,-0.381C0.432,-0.381 0.442,-0.375 0.442,-0.363C0.442,-0.36 0.441,-0.355 0.44,-0.349L0.458,-0.349L0.501,-0.485L0.48,-0.485C0.471,-0.466 0.463,-0.454 0.455,-0.449C0.447,-0.444 0.436,-0.441 0.422,-0.441L0.089,-0.441C0.07,-0.441 0.06,-0.447 0.06,-0.459C0.06,-0.462 0.061,-0.467 0.062,-0.473L0.043,-0.473L0.002,-0.337L0.021,-0.337C0.03,-0.356 0.038,-0.368 0.047,-0.373C0.055,-0.378 0.066,-0.381 0.08,-0.381L0.198,-0.381Z" style="fill:rgb(17,17,17);fill-rule:nonzero;"/>
        </g>
        <g transform="matrix(12,0,0,12,179.096,156.075)">
            <path d="M0.588,-0.228C0.588,-0.262 0.581,-0.293 0.568,-0.322C0.555,-0.35 0.536,-0.374 0.512,-0.394C0.488,-0.414 0.46,-0.43 0.429,-0.441C0.397,-0.452 0.363,-0.457 0.327,-0.457C0.29,-0.457 0.256,-0.451 0.224,-0.438C0.191,-0.425 0.163,-0.408 0.14,-0.385C0.116,-0.362 0.098,-0.336 0.085,-0.307C0.071,-0.277 0.065,-0.246 0.065,-0.214C0.065,-0.18 0.072,-0.149 0.085,-0.121C0.098,-0.093 0.117,-0.069 0.141,-0.049C0.165,-0.028 0.193,-0.013 0.225,-0.002C0.257,0.009 0.291,0.015 0.327,0.015C0.364,0.015 0.399,0.009 0.431,-0.004C0.463,-0.017 0.491,-0.035 0.515,-0.058C0.538,-0.081 0.556,-0.107 0.569,-0.136C0.582,-0.165 0.588,-0.196 0.588,-0.228ZM0.476,-0.221C0.476,-0.218 0.476,-0.214 0.477,-0.211L0.477,-0.201C0.477,-0.158 0.465,-0.122 0.44,-0.093C0.415,-0.064 0.383,-0.049 0.343,-0.049C0.298,-0.049 0.261,-0.066 0.231,-0.099C0.2,-0.132 0.182,-0.172 0.177,-0.221L0.177,-0.23C0.176,-0.234 0.176,-0.237 0.176,-0.239C0.176,-0.283 0.189,-0.32 0.214,-0.348C0.238,-0.378 0.271,-0.392 0.311,-0.392C0.356,-0.392 0.394,-0.376 0.424,-0.343C0.454,-0.31 0.471,-0.27 0.476,-0.221ZM0.399,-0.217L0.399,-0.227C0.368,-0.24 0.345,-0.263 0.332,-0.294L0.322,-0.294C0.309,-0.263 0.286,-0.24 0.255,-0.227L0.255,-0.217C0.286,-0.204 0.309,-0.181 0.322,-0.15L0.332,-0.15C0.345,-0.181 0.368,-0.204 0.399,-0.217Z" style="fill:rgb(17,17,17);fill-rule:nonzero;"/>
        </g>
        <g transform="matrix(12,0,0,12,186.152,156.075)">
            <path d="M0.85,0.067C0.846,0.077 0.834,0.085 0.813,0.092C0.792,0.099 0.768,0.103 0.74,0.103C0.675,0.103 0.607,0.082 0.538,0.039C0.491,0.01 0.439,-0.033 0.383,-0.089C0.354,-0.118 0.326,-0.148 0.297,-0.177C0.296,-0.178 0.294,-0.179 0.291,-0.18C0.288,-0.181 0.282,-0.184 0.273,-0.188L0.24,-0.19L0.24,-0.078C0.24,-0.057 0.243,-0.043 0.25,-0.035C0.257,-0.027 0.272,-0.022 0.295,-0.019L0.306,-0.019L0.306,0.005L0.292,0.004C0.272,0.002 0.259,0.001 0.252,0C0.246,-0.001 0.236,-0.001 0.225,-0.001L0.147,-0.001C0.136,-0.001 0.125,0 0.114,0.001C0.102,0.002 0.09,0.003 0.079,0.004L0.065,0.004L0.066,-0.019L0.077,-0.019C0.1,-0.022 0.115,-0.027 0.122,-0.035C0.129,-0.042 0.132,-0.057 0.132,-0.078L0.132,-0.364C0.132,-0.385 0.129,-0.399 0.122,-0.407C0.115,-0.415 0.1,-0.42 0.077,-0.423L0.066,-0.423L0.066,-0.447L0.08,-0.446C0.1,-0.444 0.113,-0.443 0.119,-0.442C0.126,-0.441 0.135,-0.441 0.147,-0.441L0.311,-0.446C0.36,-0.446 0.399,-0.435 0.428,-0.413C0.457,-0.391 0.472,-0.365 0.472,-0.333C0.472,-0.307 0.465,-0.283 0.45,-0.262C0.435,-0.241 0.415,-0.223 0.39,-0.21C0.444,-0.151 0.489,-0.102 0.526,-0.065C0.595,0.006 0.656,0.05 0.709,0.069C0.731,0.076 0.754,0.08 0.779,0.08C0.806,0.08 0.83,0.076 0.85,0.067ZM0.364,-0.314C0.364,-0.338 0.358,-0.357 0.345,-0.372C0.33,-0.389 0.31,-0.398 0.283,-0.398C0.268,-0.398 0.257,-0.397 0.25,-0.394C0.243,-0.391 0.24,-0.385 0.24,-0.374L0.24,-0.224L0.276,-0.222C0.301,-0.222 0.322,-0.23 0.339,-0.247C0.356,-0.263 0.364,-0.285 0.364,-0.314Z" style="fill:rgb(17,17,17);fill-rule:nonzero;"/>
        </g>
    </g>
</svg>
