<?xml version="1.0" encoding="UTF-8" standalone="no"?>
<!DOCTYPE svg PUBLIC "-//W3C//DTD SVG 1.1//EN" "http://www.w3.org/Graphics/SVG/1.1/DTD/svg11.dtd">
<svg width="100%" height="100%" viewBox="0 0 6709 1853" version="1.1" xmlns="http://www.w3.org/2000/svg" xmlns:xlink="http://www.w3.org/1999/xlink" xml:space="preserve" xmlns:serif="http://www.serif.com/" style="fill-rule:evenodd;clip-rule:evenodd;stroke-linejoin:round;stroke-miterlimit:2;">
    <g transform="matrix(4.16667,0,0,4.16667,1958.75,0)">
        <path d="M170,170.01L100,170.01L100,190L170,190L170,270.01L60,270.01L20,230.01L20,20L100,20L100,90L170,90L170,170.01Z" style="fill:white;fill-rule:nonzero;"/>
        <path d="M470,270.01L230,270.01L190,230.01L190,90L270,90L270,190L290,190L290,90L370,90L370,190L390,190L390,90L470,90L470,270.01Z" style="fill:white;fill-rule:nonzero;"/>
        <rect x="490" y="90" width="80" height="180" style="fill:white;fill-rule:nonzero;"/>
        <rect x="490" y="20" width="80" height="50" style="fill:white;fill-rule:nonzero;"/>
        <path d="M740,170.01L670,170.01L670,190L740,190L740,270.01L630,270.01L590,230.01L590,20L670,20L670,90L740,90L740,170.01Z" style="fill:white;fill-rule:nonzero;"/>
        <path d="M920,170.01L840,170.01L840,190L920,190L920,270.01L800,270.01L760,230.01L760,130.01L800,90L920,90L920,170.01Z" style="fill:white;fill-rule:nonzero;"/>
        <path d="M1120,270.01L1040,270.01L1040,170.01L1020,170.01L1020,270.01L940,270.01L940,20L1020,20L1020,90L1080,90L1120,130.01L1120,270.01Z" style="fill:white;fill-rule:nonzero;"/>
        <path d="M1120,270L1040,270L1040,170L1020,170L1020,270L940,270L940,20L1020,20L1020,90L1080,90L1120,130L1120,270ZM920,170L840,170L840,190L920,190L920,270L800,270L760,230L760,130L800,90L920,90L920,170ZM740,170L670,170L670,190L740,190L740,270L630,270L590,230L590,20L670,20L670,90L740,90L740,170ZM570,70L490,70L490,20L570,20L570,70ZM570,270L490,270L490,90L570,90L570,270ZM470,270L230,270L190,230L190,90L270,90L270,190L290,190L290,90L370,90L370,190L390,190L390,90L470,90L470,270ZM170,170L100,170L100,190L170,190L170,270L60,270L20,230L20,20L100,20L100,90L170,90L170,170ZM1090,70L1040,70L1040,0L930.21,0L879.72,70L790,70L760,100L760,70L690,70L690,0L470,0L470,70L160.5,70L110,0L0,0L0,240L140,380L280,380L280,340L320,380L590,380L590,340L630,380L760,380L760,340L800,380L1050,380L1140,290L1140,120L1090,70Z" style="fill:rgb(117,92,167);fill-rule:nonzero;"/>
        <g id="TwitchGlitchPurple" transform="matrix(0.038106,0,0,0.038106,-279.61,222.285)">
            <g transform="matrix(1,0,0,1,-5000,-5833.33)">
                <clipPath id="_clip1">
                    <rect x="0" y="0" width="10000" height="11666.7"/>
                </clipPath>
                <g clip-path="url(#_clip1)">
                    <g transform="matrix(4.16667,0,0,4.16667,0,0)">
                        <path d="M2200,1300L1800,1700L1400,1700L1050,2050L1050,1700L600,1700L600,200L2200,200L2200,1300Z" style="fill:white;fill-rule:nonzero;"/>
                        <path d="M2200,1300L1800,1700L1400,1700L1050,2050L1050,1700L600,1700L600,200L2200,200L2200,1300ZM500,0L0,500L0,2300L600,2300L600,2800L1100,2300L1500,2300L2400,1400L2400,0L500,0Z" style="fill:rgb(117,92,167);fill-rule:nonzero;"/>
                        <rect x="1700" y="550" width="200" height="600" style="fill:rgb(117,92,167);fill-rule:nonzero;"/>
                        <rect x="1150" y="550" width="200" height="600" style="fill:rgb(117,92,167);fill-rule:nonzero;"/>
                    </g>
                </g>
            </g>
        </g>
    </g>
</svg>
