<?xml version="1.0" encoding="UTF-8" standalone="no"?>
<!DOCTYPE svg PUBLIC "-//W3C//DTD SVG 1.1//EN" "http://www.w3.org/Graphics/SVG/1.1/DTD/svg11.dtd">
<svg width="100%" height="100%" viewBox="0 0 512 512" version="1.1" xmlns="http://www.w3.org/2000/svg" xmlns:xlink="http://www.w3.org/1999/xlink" xml:space="preserve" xmlns:serif="http://www.serif.com/" style="fill-rule:evenodd;clip-rule:evenodd;stroke-linejoin:round;stroke-miterlimit:2;">
    <g transform="matrix(1,0,0,1,-2700,-1350)">
        <g id="Page-7" serif:id="Page 7" transform="matrix(1,0,0,1,2700,1350)">
            <g>
                <g id="Siegel">
                    <g transform="matrix(1,0,0,1,231.281,457.994)">
                        <path d="M0,11.646C0.477,11.138 0.795,10.236 0.955,8.943L1.65,3.288C1.809,1.994 1.719,1.042 1.379,0.432C1.04,-0.176 0.487,-0.529 -0.279,-0.623C-1.046,-0.717 -1.667,-0.509 -2.145,0C-2.622,0.507 -2.94,1.41 -3.099,2.704L-3.794,8.358C-3.954,9.652 -3.864,10.604 -3.524,11.213C-3.185,11.822 -2.632,12.174 -1.865,12.269C-1.099,12.363 -0.477,12.156 0,11.646M-4.559,11.536C-5.338,10.763 -5.918,9.802 -6.299,8.653C-6.681,7.502 -6.798,6.331 -6.651,5.136C-6.504,3.943 -6.106,2.834 -5.458,1.81C-4.809,0.788 -4.013,-0.004 -3.07,-0.565C-2.128,-1.125 -1.173,-1.345 -0.205,-1.226C0.762,-1.107 1.635,-0.662 2.415,0.111C3.193,0.882 3.773,1.843 4.154,2.993C4.536,4.144 4.653,5.315 4.507,6.509C4.359,7.703 3.962,8.811 3.313,9.834C2.664,10.858 1.869,11.65 0.925,12.21C-0.017,12.77 -0.972,12.991 -1.939,12.872C-2.907,12.753 -3.78,12.307 -4.559,11.536" style="fill-rule:nonzero;"/>
                    </g>
                    <g transform="matrix(1,0,0,1,248.439,465.225)">
                        <path d="M0,-0.214C0.657,-0.189 1.132,-0.437 1.425,-0.957C1.717,-1.478 1.882,-2.206 1.918,-3.143C1.955,-4.066 1.849,-4.789 1.604,-5.312C1.358,-5.835 0.899,-6.11 0.229,-6.135L-1.193,-6.191C-1.358,-6.196 -1.477,-6.169 -1.548,-6.11C-1.621,-6.048 -1.66,-5.93 -1.667,-5.752L-1.879,-0.287L0,-0.214ZM-6.719,5.91L-5.391,5.962C-5.213,5.968 -5.092,5.938 -5.026,5.871C-4.96,5.805 -4.924,5.688 -4.917,5.524L-4.475,-5.861C-4.469,-6.038 -4.496,-6.159 -4.556,-6.226C-4.617,-6.292 -4.735,-6.328 -4.913,-6.334L-6.241,-6.386L-6.218,-6.992L0.538,-6.732C1.423,-6.697 2.205,-6.517 2.882,-6.193C3.561,-5.869 4.082,-5.431 4.447,-4.879C4.812,-4.325 4.981,-3.707 4.955,-3.025C4.928,-2.329 4.71,-1.716 4.304,-1.188C3.896,-0.658 3.342,-0.252 2.641,0.031C1.939,0.314 1.146,0.438 0.26,0.404L-1.903,0.32L-2.109,5.633C-2.115,5.798 -2.085,5.916 -2.019,5.988C-1.952,6.06 -1.836,6.099 -1.671,6.105L-0.001,6.171L-0.025,6.778L-6.743,6.517L-6.719,5.91Z" style="fill-rule:nonzero;"/>
                    </g>
                    <g transform="matrix(1,0,0,1,262.637,458.711)">
                        <path d="M0,12.977C-0.766,12.561 -1.338,11.996 -1.717,11.284C-2.096,10.572 -2.305,9.779 -2.342,8.906L-2.686,0.956C-2.692,0.78 -2.729,0.662 -2.796,0.6C-2.862,0.54 -2.983,0.514 -3.16,0.521L-4.374,0.574L-4.4,-0.034L1.747,-0.298L1.773,0.308L0.559,0.361C0.394,0.368 0.278,0.405 0.211,0.471C0.145,0.538 0.115,0.659 0.123,0.835L0.498,9.525C0.548,10.689 0.805,11.526 1.271,12.039C1.737,12.551 2.431,12.787 3.354,12.748C3.974,12.72 4.524,12.544 5.004,12.22C5.484,11.895 5.853,11.474 6.109,10.956C6.366,10.438 6.48,9.874 6.455,9.268L6.134,1.831C6.109,1.262 5.898,0.843 5.5,0.576C5.102,0.307 4.631,0.185 4.087,0.209L4.061,-0.398L8.766,-0.601L8.792,0.006C8.248,0.029 7.79,0.192 7.416,0.493C7.042,0.794 6.869,1.23 6.893,1.798L7.205,9.045C7.24,9.842 7.091,10.575 6.758,11.242C6.426,11.909 5.923,12.446 5.25,12.856C4.577,13.265 3.778,13.49 2.856,13.529C1.718,13.578 0.766,13.394 0,12.977" style="fill-rule:nonzero;"/>
                    </g>
                    <g transform="matrix(1,0,0,1,282.273,456.956)">
                        <path d="M0,13.636C-0.459,13.535 -0.849,13.384 -1.167,13.182C-1.484,13.005 -1.71,12.884 -1.846,12.819C-1.982,12.752 -2.106,12.727 -2.219,12.741C-2.483,12.776 -2.619,13.01 -2.627,13.445L-2.645,14.06L-3.229,14.134L-4.1,8.196L-3.497,8.118C-3.2,9.051 -2.787,9.91 -2.259,10.698C-1.731,11.487 -1.136,12.099 -0.474,12.538C0.188,12.978 0.864,13.153 1.555,13.066C2.546,12.939 3.197,12.633 3.505,12.147C3.813,11.661 3.933,11.142 3.862,10.59C3.821,10.263 3.667,9.986 3.403,9.758C3.137,9.531 2.767,9.3 2.291,9.067L-2.072,6.98C-2.71,6.678 -3.269,6.271 -3.749,5.757C-4.229,5.244 -4.519,4.599 -4.618,3.82C-4.773,2.602 -4.534,1.65 -3.899,0.962C-3.266,0.276 -2.428,-0.135 -1.386,-0.266C-0.494,-0.381 0.437,-0.179 1.409,0.335C1.726,0.525 1.967,0.609 2.13,0.588C2.356,0.559 2.476,0.397 2.49,0.102L2.538,-0.421L3.141,-0.498L3.953,4.376L3.349,4.452C3,3.616 2.568,2.874 2.051,2.225C1.535,1.575 0.971,1.083 0.361,0.745C-0.25,0.409 -0.856,0.279 -1.459,0.356C-2.125,0.441 -2.601,0.635 -2.888,0.939C-3.175,1.243 -3.285,1.659 -3.217,2.187C-3.126,2.903 -2.476,3.553 -1.265,4.14L3.118,6.242C3.676,6.517 4.146,6.929 4.529,7.481C4.912,8.032 5.145,8.627 5.226,9.268C5.309,9.92 5.23,10.562 4.992,11.193C4.753,11.823 4.343,12.365 3.763,12.823C3.183,13.28 2.435,13.566 1.519,13.683C0.966,13.753 0.46,13.738 0,13.636" style="fill-rule:nonzero;"/>
                    </g>
                    <g transform="matrix(1,0,0,1,400.037,112.964)">
                        <path d="M0,4.169C-0.087,3.109 0.119,2.057 0.619,1.009C1.117,-0.038 1.818,-0.987 2.72,-1.841C3.648,-2.719 4.654,-3.374 5.736,-3.806C6.819,-4.236 7.87,-4.381 8.892,-4.241C9.913,-4.101 10.794,-3.639 11.533,-2.857C11.855,-2.517 12.095,-2.148 12.255,-1.749C12.413,-1.351 12.535,-0.886 12.619,-0.355C12.681,-0.014 12.76,0.208 12.855,0.31C12.925,0.383 13.002,0.423 13.087,0.43C13.172,0.438 13.278,0.415 13.404,0.365L14.15,0.13L14.58,0.586L10.345,4.592L9.927,4.149C10.914,2.816 11.515,1.556 11.732,0.365C11.949,-0.824 11.735,-1.76 11.091,-2.439C10.683,-2.873 10.13,-3.033 9.433,-2.922C8.735,-2.812 7.927,-2.322 7.007,-1.452L2.869,2.462C1.958,3.322 1.443,4.119 1.324,4.85C1.206,5.581 1.359,6.172 1.785,6.623C2.82,7.717 4.092,8.058 5.599,7.643C6.338,7.449 7.208,6.967 8.205,6.198L8.674,6.694C8.244,7.05 7.778,7.372 7.277,7.662C6.776,7.953 6.3,8.163 5.849,8.294C5.027,8.532 4.23,8.55 3.457,8.349C2.683,8.148 1.978,7.712 1.344,7.041C0.535,6.185 0.087,5.228 0,4.169" style="fill-rule:nonzero;"/>
                    </g>
                    <g transform="matrix(1,0,0,1,414.205,122.864)">
                        <path d="M0,9.83C0.696,9.8 1.554,9.377 2.573,8.563L7.023,5.006C8.041,4.191 8.641,3.447 8.824,2.774C9.007,2.101 8.858,1.463 8.375,0.859C7.894,0.256 7.304,-0.029 6.607,0.001C5.91,0.031 5.053,0.454 4.034,1.267L-0.417,4.825C-1.435,5.64 -2.035,6.383 -2.218,7.057C-2.401,7.729 -2.251,8.368 -1.769,8.971C-1.287,9.574 -0.698,9.86 0,9.83M-3.183,6.563C-3.201,5.468 -2.944,4.375 -2.413,3.285C-1.882,2.196 -1.146,1.276 -0.207,0.525C0.732,-0.227 1.792,-0.741 2.972,-1.02C4.15,-1.298 5.273,-1.308 6.338,-1.05C7.404,-0.791 8.241,-0.281 8.851,0.48C9.459,1.241 9.771,2.17 9.79,3.267C9.806,4.362 9.55,5.456 9.019,6.545C8.488,7.635 7.752,8.555 6.813,9.306C5.874,10.057 4.814,10.571 3.635,10.85C2.456,11.129 1.333,11.138 0.268,10.88C-0.798,10.621 -1.636,10.112 -2.244,9.351C-2.853,8.589 -3.166,7.66 -3.183,6.563" style="fill-rule:nonzero;"/>
                    </g>
                    <g transform="matrix(1,0,0,1,428.58,142.412)">
                        <path d="M0,-0.762C0.373,-0.204 0.838,0.049 1.396,-0.005C1.955,-0.058 2.603,-0.33 3.34,-0.823C4.055,-1.301 4.518,-1.771 4.729,-2.23C4.938,-2.691 4.857,-3.2 4.485,-3.757L4.031,-4.436C3.939,-4.574 3.848,-4.654 3.757,-4.675C3.666,-4.699 3.546,-4.66 3.399,-4.563L-0.707,-1.82L0,-0.762ZM-4.74,5.201C-4.604,4.539 -4.146,3.949 -3.367,3.428L-1.409,2.121C-0.903,1.783 -0.56,1.374 -0.377,0.895C-0.196,0.416 -0.277,-0.082 -0.621,-0.598L-1.212,-1.483L-6.075,1.766C-6.212,1.858 -6.291,1.952 -6.31,2.048C-6.33,2.144 -6.292,2.261 -6.202,2.399L-5.273,3.788L-5.779,4.126L-9.513,-1.464L-9.007,-1.802L-8.268,-0.697C-8.17,-0.549 -8.075,-0.468 -7.982,-0.454C-7.888,-0.44 -7.774,-0.48 -7.637,-0.571L1.837,-6.9C1.985,-6.997 2.067,-7.091 2.085,-7.178C2.103,-7.267 2.062,-7.384 1.964,-7.532L1.226,-8.637L1.731,-8.974L5.148,-3.859C5.908,-2.721 6.269,-1.638 6.233,-0.609C6.197,0.42 5.753,1.218 4.9,1.788C4.174,2.273 3.423,2.391 2.646,2.14C1.871,1.89 1.138,1.364 0.45,0.559L0.338,0.634C0.74,1.553 0.87,2.381 0.728,3.114C0.586,3.848 0.053,4.524 -0.874,5.143L-2.627,6.314C-3.069,6.609 -3.192,6.904 -2.995,7.199C-2.812,7.473 -2.452,7.521 -1.915,7.345C-1.378,7.17 -0.783,6.863 -0.13,6.427L0.207,6.932C-0.814,7.615 -1.698,8.007 -2.444,8.109C-3.19,8.212 -3.798,7.91 -4.269,7.206C-4.719,6.532 -4.876,5.863 -4.74,5.201" style="fill-rule:nonzero;"/>
                    </g>
                    <g transform="matrix(1,0,0,1,433.136,153.059)">
                        <path d="M0,8.57C0.692,8.658 1.609,8.387 2.75,7.757L7.738,5.004C8.88,4.374 9.598,3.743 9.893,3.11C10.187,2.478 10.147,1.823 9.774,1.147C9.401,0.471 8.868,0.09 8.176,0.002C7.484,-0.087 6.567,0.185 5.426,0.814L0.438,3.567C-0.704,4.197 -1.421,4.829 -1.716,5.461C-2.011,6.093 -1.971,6.748 -1.598,7.424C-1.225,8.099 -0.692,8.482 0,8.57M-2.583,4.812C-2.416,3.729 -1.977,2.695 -1.27,1.711C-0.562,0.728 0.319,-0.054 1.372,-0.636C2.425,-1.216 3.556,-1.544 4.766,-1.619C5.975,-1.694 7.083,-1.514 8.09,-1.078C9.096,-0.644 9.835,0.001 10.306,0.854C10.777,1.708 10.928,2.675 10.76,3.759C10.592,4.842 10.153,5.876 9.446,6.86C8.738,7.842 7.857,8.627 6.805,9.207C5.751,9.789 4.62,10.116 3.41,10.19C2.2,10.264 1.093,10.085 0.087,9.65C-0.92,9.215 -1.659,8.571 -2.13,7.717C-2.601,6.864 -2.752,5.895 -2.583,4.812" style="fill-rule:nonzero;"/>
                    </g>
                    <g transform="matrix(1,0,0,1,446.725,176.137)">
                        <path d="M0,-6.82L-0.03,-6.888L-6.644,-3.954C-7.175,-3.718 -7.519,-3.32 -7.672,-2.76C-7.825,-2.201 -7.76,-1.602 -7.479,-0.966L-8.034,-0.72L-10.282,-5.788L-9.727,-6.035C-9.445,-5.398 -9.045,-4.95 -8.527,-4.687C-8.01,-4.425 -7.484,-4.413 -6.952,-4.648L0.459,-7.938C0.586,-7.995 0.674,-8.047 0.722,-8.096C0.769,-8.145 0.833,-8.235 0.913,-8.368L1.646,-9.524C1.769,-9.716 1.831,-9.897 1.833,-10.064C1.834,-10.231 1.777,-10.447 1.659,-10.714L1.521,-11.026L2.076,-11.272L3.786,-7.42L-1.682,1.656L3.89,-0.817C4.422,-1.053 4.765,-1.452 4.918,-2.01C5.072,-2.571 5.007,-3.17 4.725,-3.805L5.279,-4.052L7.529,1.016L6.974,1.262C6.691,0.626 6.291,0.177 5.773,-0.085C5.255,-0.347 4.73,-0.359 4.198,-0.124L-6.113,4.452L-6.405,3.793L0,-6.82Z" style="fill-rule:nonzero;"/>
                    </g>
                    <g transform="matrix(1,0,0,1,448.462,195.875)">
                        <path d="M0,-7.74L1.149,-4.42L5.519,-7.761L0,-7.74ZM-4.73,-10.143L-4.519,-9.533C-4.395,-9.174 -4.144,-8.906 -3.768,-8.728C-3.392,-8.55 -2.975,-8.459 -2.519,-8.456L9.864,-8.501L10.125,-7.746L-0.158,0.111C-0.698,0.526 -0.881,0.984 -0.707,1.487L-0.458,2.204L-1.033,2.403L-3.212,-3.896L-2.637,-4.095L-2.19,-2.803C-2.141,-2.66 -2.043,-2.562 -1.899,-2.511C-1.754,-2.462 -1.604,-2.464 -1.449,-2.517C-1.317,-2.563 -1.156,-2.658 -0.965,-2.804L0.559,-3.975L-0.746,-7.744L-1.97,-7.742C-2.351,-7.758 -2.678,-7.718 -2.954,-7.623C-3.169,-7.548 -3.328,-7.396 -3.429,-7.167C-3.53,-6.938 -3.534,-6.685 -3.438,-6.41L-3.146,-5.567L-3.721,-5.368L-5.304,-9.944L-4.73,-10.143Z" style="fill-rule:nonzero;"/>
                    </g>
                    <g transform="matrix(1,0,0,1,449.664,205.749)">
                        <path d="M0,-1.663L0.379,-0.192C0.423,-0.02 0.487,0.087 0.57,0.131C0.654,0.175 0.775,0.177 0.934,0.135L11.784,-2.659C11.979,-2.711 12.117,-2.811 12.196,-2.962C12.275,-3.113 12.288,-3.292 12.234,-3.501C12.085,-4.077 11.633,-4.522 10.879,-4.839C10.125,-5.153 9.294,-5.318 8.389,-5.334C7.9,-5.352 7.493,-5.349 7.166,-5.323C6.839,-5.298 6.637,-5.281 6.561,-5.274L6.409,-5.863L11.927,-7.128L14.77,3.905L9.327,5.465L9.176,4.876C9.246,4.845 9.43,4.761 9.729,4.625C10.027,4.489 10.386,4.296 10.805,4.044C11.59,3.593 12.237,3.048 12.746,2.407C13.254,1.767 13.434,1.158 13.285,0.581C13.231,0.372 13.134,0.222 12.992,0.128C12.85,0.033 12.681,0.012 12.485,0.062L1.636,2.858C1.476,2.899 1.371,2.961 1.321,3.046C1.271,3.131 1.267,3.253 1.308,3.413L1.687,4.884L1.099,5.035L-0.589,-1.512L0,-1.663Z" style="fill-rule:nonzero;"/>
                    </g>
                    <g transform="matrix(1,0,0,1,67.0938,172.745)">
                        <path d="M0,14.528L0.496,13.295C0.562,13.131 0.574,13.006 0.534,12.921C0.493,12.837 0.396,12.763 0.244,12.702L-10.328,8.452C-10.492,8.385 -10.616,8.371 -10.698,8.405C-10.78,8.44 -10.854,8.54 -10.92,8.704L-11.417,9.938L-11.981,9.711L-7.985,-0.227L-3.101,1.574L-3.327,2.138C-3.422,2.1 -3.762,2.032 -4.35,1.931C-4.937,1.832 -5.462,1.798 -5.927,1.83C-6.553,1.864 -7.139,2.014 -7.683,2.28C-8.227,2.546 -8.603,2.937 -8.81,3.454L-9.532,5.251C-9.593,5.404 -9.608,5.524 -9.575,5.613C-9.542,5.701 -9.444,5.778 -9.279,5.843L-4.417,7.799L-4.055,6.9C-3.927,6.584 -3.939,6.238 -4.089,5.864C-4.239,5.49 -4.473,5.146 -4.791,4.835C-5.109,4.523 -5.438,4.298 -5.779,4.161L-5.551,3.597L-0.037,5.814L-0.264,6.379C-0.616,6.236 -1.015,6.169 -1.46,6.174C-1.906,6.178 -2.312,6.264 -2.679,6.43C-3.046,6.596 -3.293,6.839 -3.421,7.156L-3.783,8.054L1.292,10.094C1.444,10.156 1.566,10.167 1.657,10.129C1.747,10.091 1.823,9.995 1.884,9.841L2.53,8.238L3.093,8.465L0.563,14.755L0,14.528Z" style="fill-rule:nonzero;"/>
                    </g>
                    <g transform="matrix(1,0,0,1,73.4497,161.114)">
                        <path d="M0,11.117L0.581,9.922C0.658,9.763 0.679,9.638 0.645,9.551C0.609,9.464 0.518,9.385 0.371,9.312L-9.877,4.333C-10.037,4.255 -10.159,4.231 -10.245,4.26C-10.329,4.29 -10.41,4.384 -10.486,4.543L-11.068,5.739L-11.614,5.473L-8.825,-0.266L-8.279,0L-8.86,1.195C-8.933,1.344 -8.955,1.463 -8.928,1.554C-8.901,1.643 -8.809,1.727 -8.649,1.804L1.599,6.784C1.746,6.856 1.867,6.877 1.959,6.844C2.053,6.812 2.136,6.722 2.208,6.574L2.789,5.379L3.335,5.644L0.546,11.383L0,11.117Z" style="fill-rule:nonzero;"/>
                    </g>
                    <g transform="matrix(1,0,0,1,72.3052,151.354)">
                        <path d="M0,2.943L-0.039,3.008L6.205,6.663C6.708,6.957 7.231,7.003 7.775,6.8C8.319,6.598 8.767,6.196 9.119,5.595L9.643,5.902L6.842,10.688L6.318,10.38C6.67,9.78 6.801,9.193 6.711,8.62C6.621,8.047 6.324,7.612 5.822,7.318L-1.176,3.222C-1.296,3.152 -1.39,3.113 -1.458,3.102C-1.525,3.092 -1.635,3.093 -1.79,3.106L-3.157,3.186C-3.385,3.2 -3.568,3.254 -3.704,3.35C-3.841,3.446 -3.983,3.619 -4.13,3.871L-4.302,4.166L-4.827,3.859L-2.697,0.22L7.861,-0.641L2.601,-3.72C2.098,-4.014 1.574,-4.06 1.031,-3.858C0.487,-3.655 0.039,-3.253 -0.313,-2.653L-0.837,-2.959L1.964,-7.745L2.488,-7.438C2.136,-6.837 2.005,-6.25 2.095,-5.677C2.186,-5.103 2.481,-4.67 2.984,-4.375L12.72,1.322L12.355,1.944L0,2.943Z" style="fill-rule:nonzero;"/>
                    </g>
                    <g transform="matrix(1,0,0,1,88.1558,133.806)">
                        <path d="M0,12.214L0.751,11.117C0.851,10.971 0.889,10.852 0.868,10.76C0.847,10.669 0.768,10.576 0.632,10.484L-8.773,4.052C-8.919,3.951 -9.037,3.909 -9.125,3.926C-9.213,3.943 -9.306,4.024 -9.406,4.17L-10.156,5.268L-10.658,4.924L-7.056,-0.343L-6.554,0.001L-7.305,1.098C-7.398,1.234 -7.438,1.349 -7.425,1.442C-7.412,1.535 -7.333,1.632 -7.187,1.732L2.219,8.163C2.354,8.256 2.471,8.294 2.567,8.276C2.665,8.258 2.759,8.181 2.852,8.044L3.603,6.947L4.104,7.291L0.502,12.557L0,12.214Z" style="fill-rule:nonzero;"/>
                    </g>
                    <g transform="matrix(1,0,0,1,98.0186,123.919)">
                        <path d="M0,9.666C-0.399,9.916 -0.782,10.081 -1.152,10.161C-1.501,10.256 -1.747,10.328 -1.89,10.376C-2.033,10.425 -2.14,10.494 -2.211,10.583C-2.375,10.792 -2.308,11.055 -2.009,11.371L-1.591,11.821L-1.956,12.284L-6.737,8.657L-6.361,8.18C-5.497,8.637 -4.599,8.961 -3.67,9.153C-2.742,9.346 -1.888,9.367 -1.108,9.216C-0.328,9.065 0.277,8.717 0.708,8.17C1.329,7.385 1.577,6.71 1.457,6.148C1.336,5.585 1.058,5.132 0.621,4.786C0.361,4.582 0.058,4.492 -0.292,4.515C-0.64,4.539 -1.065,4.634 -1.568,4.802L-6.143,6.369C-6.809,6.602 -7.494,6.702 -8.195,6.673C-8.897,6.644 -9.557,6.386 -10.174,5.898C-11.138,5.139 -11.635,4.291 -11.664,3.357C-11.693,2.423 -11.382,1.543 -10.731,0.719C-10.175,0.014 -9.369,-0.496 -8.316,-0.811C-7.956,-0.897 -7.726,-1.006 -7.625,-1.136C-7.483,-1.314 -7.511,-1.515 -7.708,-1.734L-8.04,-2.141L-7.664,-2.618L-3.67,0.29L-4.046,0.768C-4.881,0.415 -5.709,0.188 -6.533,0.088C-7.356,-0.014 -8.104,0.03 -8.775,0.218C-9.448,0.404 -9.972,0.737 -10.348,1.214C-10.764,1.741 -10.967,2.214 -10.958,2.632C-10.95,3.05 -10.736,3.424 -10.319,3.753C-9.752,4.2 -8.831,4.209 -7.558,3.778L-2.956,2.207C-2.367,2.012 -1.743,1.977 -1.083,2.102C-0.424,2.226 0.16,2.488 0.667,2.888C1.183,3.296 1.577,3.809 1.848,4.425C2.12,5.042 2.208,5.717 2.114,6.449C2.021,7.182 1.688,7.91 1.115,8.635C0.771,9.073 0.398,9.416 0,9.666" style="fill-rule:nonzero;"/>
                    </g>
                    <g transform="matrix(1,0,0,1,204.673,275.248)">
                        <path d="M0,-38.606C1.334,-43.445 3.304,-48.671 6.118,-54.238L38.997,-119.997L38.997,-29.595C22.713,-29.858 9.845,-33.24 0,-38.606M16.393,-128.216C25.087,-128.216 31.524,-125.214 35.261,-122.838L-5.23,-41.834C-43.185,-68.255 -25.265,-128.216 16.393,-128.216M84.206,-2.223L84.206,-26.055L120.533,-29.515C120.945,-29.554 121.308,-29.803 121.493,-30.173L141.208,-69.604C141.504,-70.197 141.264,-70.918 140.671,-71.214L138.662,-72.219C138.093,-72.503 137.402,-72.297 137.086,-71.746C133.742,-65.909 115.219,-35.954 84.206,-30.194L84.206,-126.161C84.206,-139.517 86.978,-148.953 87.969,-151.9C88.159,-152.465 87.9,-153.084 87.366,-153.35L84.954,-154.556C84.504,-154.782 83.962,-154.703 83.596,-154.359L72.412,-143.873C65.485,-149.689 48.585,-161.095 22.557,-161.095C-14.432,-161.095 -43.201,-128.216 -43.201,-93.282C-43.201,-67.432 -32.387,-46.99 -8.383,-35.527L-38.555,24.832C-38.851,25.425 -38.611,26.146 -38.018,26.442L-34.981,27.96L1.218,-0.195C1.665,-0.542 1.812,-1.151 1.564,-1.66C0.079,-4.71 -4.456,-15.82 -1.383,-32.58C9.678,-28.497 23.076,-26.037 38.997,-25.468L38.997,23.109C38.997,23.564 39.254,23.979 39.66,24.182L42.645,25.674C42.939,25.822 43.284,25.838 43.594,25.724C76.229,13.699 100.646,26.107 100.646,66.605C100.646,95.067 96.536,118.378 75.986,118.378C49.152,118.378 54.498,62.958 55.339,55.501C55.395,55 55.133,54.523 54.683,54.298L52.003,52.958C51.59,52.751 51.094,52.8 50.729,53.084L15.134,80.77C14.668,81.132 14.535,81.779 14.819,82.296C18.131,88.334 38.52,122.489 75.986,122.489C108.865,122.489 145.854,110.159 145.854,54.407C145.854,-7.145 94.662,-2.368 85.576,-1.036C84.852,-0.929 84.206,-1.492 84.206,-2.223" style="fill-rule:nonzero;"/>
                    </g>
                    <g transform="matrix(1,0,0,1,200.948,486.929)">
                        <path d="M0,6.381L0.395,6.464C0.674,6.524 0.925,6.5 1.147,6.392C1.37,6.284 1.599,6.114 1.834,5.88L4.668,3.12L3.52,-0.792C3.443,-1.057 3.35,-1.255 3.24,-1.385C3.13,-1.514 2.935,-1.607 2.656,-1.667L1.88,-1.832L1.967,-2.239L5.908,-1.401L5.822,-0.994L5.059,-1.156C4.907,-1.188 4.817,-1.141 4.79,-1.015C4.778,-0.964 4.775,-0.907 4.78,-0.844C4.784,-0.781 4.798,-0.721 4.821,-0.662L5.653,2.173L7.246,0.624C7.469,0.406 7.605,0.183 7.654,-0.046C7.685,-0.189 7.654,-0.327 7.562,-0.458C7.47,-0.588 7.331,-0.674 7.145,-0.713L6.75,-0.797L6.837,-1.204L10.27,-0.473L10.183,-0.066L9.611,-0.188C9.357,-0.242 9.133,-0.239 8.938,-0.179C8.744,-0.118 8.551,0.007 8.36,0.196L5.792,2.708L7.164,7.318C7.237,7.556 7.325,7.727 7.426,7.833C7.528,7.939 7.664,8.01 7.833,8.046L8.622,8.214L8.535,8.62L4.593,7.781L4.68,7.375L5.443,7.537C5.561,7.563 5.653,7.556 5.719,7.516C5.785,7.477 5.826,7.419 5.843,7.343C5.854,7.293 5.856,7.235 5.853,7.173C5.848,7.11 5.837,7.055 5.821,7.006L4.832,3.66L2.896,5.574C2.616,5.852 2.453,6.097 2.408,6.308C2.375,6.46 2.386,6.599 2.438,6.726C2.491,6.852 2.594,6.931 2.747,6.964L3.433,7.11L3.347,7.517L-0.086,6.787L0,6.381Z" style="fill-rule:nonzero;"/>
                    </g>
                    <g transform="matrix(1,0,0,1,213.487,488.152)">
                        <path d="M0,7.676L0.923,7.832C1.154,7.871 1.289,7.775 1.328,7.544L2.613,-0.069C2.633,-0.189 2.62,-0.28 2.574,-0.345C2.527,-0.411 2.444,-0.454 2.325,-0.473L1.402,-0.63L1.472,-1.039L5.189,-0.413L5.12,-0.002L4.197,-0.158C4.077,-0.178 3.985,-0.165 3.92,-0.119C3.855,-0.073 3.813,0.01 3.792,0.13L2.507,7.744C2.468,7.975 2.564,8.11 2.795,8.149L3.718,8.304L3.648,8.715L-0.069,8.087L0,7.676Z" style="fill-rule:nonzero;"/>
                    </g>
                    <g transform="matrix(1,0,0,1,221.152,489.842)">
                        <path d="M0,7.243L0.4,7.294C0.684,7.33 0.932,7.284 1.145,7.158C1.357,7.032 1.57,6.842 1.786,6.59L4.375,3.599L2.9,-0.2C2.801,-0.457 2.692,-0.646 2.571,-0.766C2.451,-0.886 2.249,-0.964 1.965,-1L1.179,-1.098L1.23,-1.511L5.229,-1.009L5.177,-0.597L4.403,-0.694C4.249,-0.713 4.163,-0.658 4.147,-0.529C4.141,-0.478 4.142,-0.421 4.151,-0.359C4.162,-0.296 4.18,-0.236 4.208,-0.181L5.277,2.574L6.732,0.896C6.937,0.66 7.054,0.426 7.083,0.193C7.101,0.047 7.059,-0.086 6.957,-0.209C6.854,-0.331 6.708,-0.404 6.519,-0.428L6.119,-0.479L6.17,-0.891L9.653,-0.454L9.601,-0.04L9.021,-0.113C8.764,-0.146 8.54,-0.124 8.352,-0.047C8.163,0.03 7.981,0.171 7.807,0.376L5.461,3.096L7.218,7.573C7.312,7.804 7.413,7.967 7.523,8.063C7.633,8.16 7.774,8.22 7.946,8.241L8.746,8.342L8.694,8.754L4.696,8.252L4.748,7.84L5.521,7.936C5.642,7.951 5.733,7.936 5.795,7.892C5.857,7.847 5.894,7.787 5.903,7.71C5.91,7.658 5.908,7.601 5.899,7.539C5.889,7.476 5.874,7.422 5.854,7.376L4.584,4.124L2.818,6.195C2.562,6.495 2.42,6.752 2.394,6.968C2.374,7.122 2.396,7.261 2.459,7.382C2.522,7.503 2.632,7.573 2.787,7.594L3.483,7.68L3.431,8.094L-0.051,7.657L0,7.243Z" style="fill-rule:nonzero;"/>
                    </g>
                    <g transform="matrix(1,0,0,1,234.553,494.412)">
                        <path d="M0,1.055C-0.139,0.89 -0.197,0.692 -0.177,0.459C-0.157,0.226 -0.065,0.04 0.099,-0.098C0.263,-0.236 0.461,-0.296 0.695,-0.275C0.928,-0.256 1.114,-0.163 1.252,0.001C1.39,0.165 1.449,0.365 1.429,0.597C1.409,0.83 1.316,1.016 1.153,1.154C0.988,1.292 0.79,1.351 0.557,1.33C0.323,1.311 0.138,1.219 0,1.055" style="fill-rule:nonzero;"/>
                    </g>
                    <g transform="matrix(1,0,0,1,242.009,498.865)">
                        <path d="M0,-7.584C-0.068,-7.805 -0.161,-7.959 -0.278,-8.046C-0.396,-8.134 -0.549,-8.184 -0.74,-8.192L-1.558,-8.23L-1.539,-8.646L2.617,-8.452L2.598,-8.037L1.741,-8.076C1.62,-8.083 1.514,-8.054 1.425,-7.993C1.335,-7.934 1.288,-7.858 1.284,-7.772C1.28,-7.677 1.292,-7.581 1.323,-7.483L3.253,-1.136L5.213,-6.327C5.333,-6.66 5.398,-6.956 5.41,-7.217C5.418,-7.398 5.376,-7.561 5.283,-7.703C5.19,-7.847 5.022,-7.925 4.78,-7.936L4.079,-7.969L4.098,-8.384L7.604,-8.221L7.584,-7.806L7.104,-7.828C6.801,-7.841 6.563,-7.764 6.391,-7.594C6.218,-7.424 6.077,-7.203 5.969,-6.93L2.956,1.062L2.631,1.049L0,-7.584Z" style="fill-rule:nonzero;"/>
                    </g>
                    <g transform="matrix(1,0,0,1,253.153,491.109)">
                        <path d="M0,8.402L0.936,8.408C1.17,8.409 1.288,8.293 1.289,8.058L1.334,0.338C1.335,0.216 1.308,0.128 1.251,0.07C1.195,0.013 1.107,-0.015 0.985,-0.016L0.049,-0.022L0.052,-0.438L3.822,-0.415L3.82,0.001L2.883,-0.005C2.762,-0.006 2.673,0.022 2.617,0.079C2.56,0.134 2.531,0.223 2.531,0.344L2.485,8.065C2.484,8.299 2.6,8.418 2.834,8.419L3.77,8.424L3.768,8.84L-0.003,8.818L0,8.402Z" style="fill-rule:nonzero;"/>
                    </g>
                    <g transform="matrix(1,0,0,1,261.051,490.954)">
                        <path d="M0,8.523L0.935,8.497C1.169,8.491 1.283,8.37 1.277,8.136L1.063,0.419C1.061,0.296 1.03,0.209 0.972,0.154C0.914,0.099 0.825,0.073 0.703,0.077L-0.232,0.102L-0.244,-0.313L3.525,-0.416L3.537,0L2.601,0.024C2.479,0.028 2.391,0.059 2.336,0.116C2.282,0.174 2.256,0.263 2.26,0.385L2.472,8.104C2.479,8.337 2.599,8.451 2.833,8.445L3.769,8.419L3.78,8.835L0.011,8.939L0,8.523Z" style="fill-rule:nonzero;"/>
                    </g>
                    <g transform="matrix(1,0,0,1,269.204,494.83)">
                        <path d="M0,1.222C-0.16,1.079 -0.246,0.891 -0.259,0.658C-0.272,0.424 -0.208,0.227 -0.065,0.067C0.077,-0.093 0.266,-0.18 0.5,-0.193C0.733,-0.207 0.93,-0.141 1.09,0.002C1.25,0.145 1.336,0.332 1.35,0.567C1.363,0.8 1.298,0.996 1.155,1.157C1.012,1.318 0.824,1.404 0.59,1.416C0.356,1.429 0.16,1.366 0,1.222" style="fill-rule:nonzero;"/>
                    </g>
                    <g transform="matrix(1,0,0,1,276.553,497.302)">
                        <path d="M0,-6.318L-0.078,-6.31L0.569,0.287C0.601,0.606 0.701,0.851 0.87,1.022C1.039,1.193 1.244,1.267 1.486,1.243L1.952,1.197L1.993,1.611L-1.087,1.912L-1.127,1.499L-0.662,1.453C-0.42,1.429 -0.233,1.318 -0.1,1.118C0.032,0.916 0.083,0.658 0.052,0.338L-0.634,-6.661C-0.646,-6.781 -0.684,-6.867 -0.745,-6.918C-0.807,-6.968 -0.897,-6.988 -1.018,-6.975L-1.95,-6.885L-1.99,-7.298L0.753,-7.567L3.56,-0.646L4.828,-7.966L7.506,-8.23L7.547,-7.816L6.615,-7.724C6.494,-7.713 6.409,-7.675 6.358,-7.615C6.307,-7.552 6.288,-7.462 6.3,-7.34L7.054,0.344C7.077,0.577 7.204,0.681 7.437,0.659L8.369,0.568L8.41,0.982L4.657,1.349L4.617,0.936L5.548,0.844C5.781,0.821 5.886,0.693 5.863,0.461L5.115,-7.172L3.585,1.612L3.275,1.642L0,-6.318Z" style="fill-rule:nonzero;"/>
                    </g>
                    <g transform="matrix(1,0,0,1,289.829,495.408)">
                        <path d="M0,-5.948L-0.078,-5.935L0.941,0.615C0.991,0.932 1.105,1.17 1.283,1.331C1.462,1.492 1.671,1.554 1.911,1.517L2.373,1.446L2.438,1.856L-0.62,2.332L-0.685,1.92L-0.222,1.848C0.018,1.812 0.199,1.689 0.32,1.482C0.441,1.274 0.477,1.012 0.428,0.695L-0.653,-6.254C-0.672,-6.374 -0.713,-6.457 -0.777,-6.505C-0.842,-6.552 -0.934,-6.565 -1.054,-6.547L-1.979,-6.403L-2.042,-6.814L0.681,-7.237L3.875,-0.486L4.727,-7.867L7.386,-8.28L7.45,-7.87L6.525,-7.725C6.405,-7.707 6.322,-7.666 6.275,-7.6C6.228,-7.537 6.214,-7.445 6.232,-7.325L7.419,0.305C7.455,0.536 7.589,0.634 7.82,0.598L8.744,0.453L8.809,0.865L5.083,1.445L5.02,1.033L5.944,0.89C6.176,0.854 6.273,0.719 6.238,0.489L5.059,-7.09L4.028,1.766L3.72,1.815L0,-5.948Z" style="fill-rule:nonzero;"/>
                    </g>
                    <g transform="matrix(1,0,0,1,302.569,485.082)">
                        <path d="M0,10.029L0.395,9.945C0.674,9.885 0.894,9.761 1.053,9.573C1.212,9.384 1.353,9.134 1.473,8.826L2.94,5.153L0.301,2.046C0.124,1.835 -0.042,1.692 -0.195,1.619C-0.348,1.545 -0.564,1.538 -0.844,1.596L-1.62,1.761L-1.706,1.354L2.236,0.518L2.323,0.925L1.56,1.087C1.407,1.12 1.345,1.2 1.371,1.326C1.382,1.377 1.402,1.43 1.432,1.487C1.461,1.542 1.499,1.591 1.543,1.636L3.456,3.888L4.282,1.827C4.397,1.536 4.431,1.276 4.382,1.048C4.352,0.903 4.268,0.791 4.131,0.709C3.994,0.628 3.833,0.605 3.646,0.645L3.251,0.728L3.165,0.321L6.599,-0.406L6.685,0.001L6.113,0.122C5.858,0.176 5.654,0.27 5.501,0.405C5.349,0.539 5.224,0.732 5.126,0.983L3.8,4.32L6.927,7.975C7.09,8.163 7.24,8.284 7.376,8.34C7.511,8.394 7.665,8.404 7.834,8.368L8.623,8.201L8.708,8.608L4.767,9.443L4.68,9.036L5.443,8.875C5.562,8.849 5.643,8.805 5.687,8.744C5.731,8.68 5.746,8.611 5.729,8.535C5.719,8.484 5.699,8.43 5.669,8.376C5.639,8.319 5.607,8.273 5.573,8.236L3.31,5.58L2.319,8.115C2.175,8.483 2.125,8.771 2.171,8.984C2.203,9.135 2.269,9.26 2.369,9.354C2.469,9.448 2.594,9.478 2.747,9.447L3.434,9.3L3.52,9.708L0.086,10.435L0,10.029Z" style="fill-rule:nonzero;"/>
                    </g>
                    <g transform="matrix(1,0,0,1,388.391,198.635)">
                        <path d="M0,-19.126C-0.277,-19.605 -0.887,-19.769 -1.366,-19.492L-33.009,-1.224C-33.487,-0.947 -33.651,-0.336 -33.375,0.143C-33.189,0.464 -32.854,0.643 -32.508,0.643C-32.338,0.643 -32.167,0.6 -32.009,0.509L-0.366,-17.76C0.112,-18.036 0.276,-18.647 0,-19.126" style="fill-rule:nonzero;"/>
                    </g>
                    <g transform="matrix(1,0,0,1,401.729,160.963)">
                        <path d="M0,11.845C0.169,11.845 0.341,11.802 0.499,11.711L17.303,2.01C17.781,1.734 17.945,1.122 17.669,0.644C17.392,0.165 16.782,0 16.303,0.278L-0.501,9.979C-0.979,10.255 -1.143,10.866 -0.867,11.345C-0.682,11.666 -0.346,11.845 0,11.845" style="fill-rule:nonzero;"/>
                    </g>
                    <g transform="matrix(1,0,0,1,256,52.1554)">
                        <path d="M0,51.701C0.552,51.701 1,51.254 1,50.701L1,1C1,0.447 0.552,0 0,0C-0.552,0 -1,0.447 -1,1L-1,50.701C-1,51.254 -0.552,51.701 0,51.701" style="fill-rule:nonzero;"/>
                    </g>
                    <g transform="matrix(1,0,0,1,154.696,357.921)">
                        <path d="M0,-44.644L-74.572,-1.59C-75.051,-1.314 -75.214,-0.703 -74.938,-0.224C-74.753,0.097 -74.417,0.276 -74.071,0.276C-73.902,0.276 -73.73,0.233 -73.572,0.142L1,-42.912C1.479,-43.188 1.642,-43.799 1.366,-44.278C1.089,-44.757 0.479,-44.92 0,-44.644" style="fill-rule:nonzero;"/>
                    </g>
                    <g transform="matrix(1,0,0,1,256,403.162)">
                        <path d="M0,12.44C0.552,12.44 1,11.993 1,11.44L1,1C1,0.447 0.552,0 0,0C-0.552,0 -1,0.447 -1,1L-1,11.44C-1,11.993 -0.552,12.44 0,12.44" style="fill-rule:nonzero;"/>
                    </g>
                    <g transform="matrix(1,0,0,1,256,446.3)">
                        <path d="M0,-21.45L-0.002,-21.45C-0.555,-21.449 -1.001,-21 -1,-20.448L-0.953,-0.998C-0.951,-0.446 -0.504,0 0.047,0L0.05,0C0.602,-0.001 1.049,-0.45 1.047,-1.002L1,-20.452C0.999,-21.004 0.551,-21.45 0,-21.45" style="fill-rule:nonzero;"/>
                    </g>
                    <g transform="matrix(1,0,0,1,431.876,318.458)">
                        <path d="M0,37.873L-68.352,-1.59C-68.832,-1.866 -69.442,-1.701 -69.718,-1.224C-69.994,-0.745 -69.831,-0.134 -69.352,0.143L-1,39.605C-0.842,39.696 -0.67,39.739 -0.501,39.739C-0.155,39.739 0.181,39.56 0.366,39.239C0.642,38.761 0.479,38.149 0,37.873" style="fill-rule:nonzero;"/>
                    </g>
                    <g transform="matrix(1,0,0,1,123.976,193.903)">
                        <path d="M0,-13.028L25.814,1.875C25.972,1.966 26.144,2.009 26.313,2.009C26.659,2.009 26.995,1.829 27.181,1.509C27.457,1.031 27.293,0.419 26.814,0.143L1,-14.76C0.52,-15.037 -0.09,-14.872 -0.366,-14.394C-0.642,-13.916 -0.479,-13.304 0,-13.028" style="fill-rule:nonzero;"/>
                    </g>
                    <g transform="matrix(1,0,0,1,92.9761,170.804)">
                        <path d="M0,-7.826L16.803,1.875C16.961,1.966 17.133,2.009 17.302,2.009C17.648,2.009 17.984,1.829 18.169,1.509C18.445,1.03 18.282,0.419 17.803,0.143L1,-9.558C0.52,-9.835 -0.09,-9.67 -0.366,-9.192C-0.642,-8.714 -0.479,-8.102 0,-7.826" style="fill-rule:nonzero;"/>
                    </g>
                    <g transform="matrix(1,0,0,1,438.523,96.059)">
                        <path d="M0,336.482L-5.498,331.242C3.674,321.694 11.975,311.516 19.393,300.823C21.975,299.508 24.551,298.177 27.114,296.81L33.243,293.539C23.825,308.847 12.713,323.246 0,336.482M72.411,161.232C72.411,160.709 71.986,160.283 71.462,160.283C70.938,160.283 70.512,160.709 70.512,161.232C70.512,203.82 59.982,244.929 40.196,281.482C40.097,276.236 39.9,271.005 39.618,265.789C54.857,233.46 62.917,197.913 62.917,161.232C62.917,128.099 56.427,95.956 43.628,65.696C31.266,36.469 13.569,10.22 -8.971,-12.32C-9.342,-12.69 -9.943,-12.69 -10.314,-12.32C-10.685,-11.949 -10.685,-11.348 -10.314,-10.977C12.053,11.39 29.613,37.435 41.879,66.435C54.579,96.461 61.018,128.354 61.018,161.232C61.018,204.679 49.638,246.528 28.326,283.248L21.75,286.757C-9.781,303.586 -43.331,316.478 -77.967,325.076C-109.692,332.951 -142.299,337.212 -175.004,337.777L-174.976,349.172C-109.556,348.072 -44.336,332.562 15.798,302.638C8.781,312.447 1.001,321.8 -7.526,330.609C-7.703,330.791 -7.799,331.036 -7.793,331.289C-7.789,331.542 -7.683,331.783 -7.5,331.957L-0.627,338.507C-0.443,338.683 -0.208,338.77 0.028,338.77C0.276,338.77 0.524,338.673 0.71,338.481C14.55,324.177 26.512,308.507 36.503,291.798L40.283,289.781L40.283,289.714C40.283,288.253 40.264,286.794 40.249,285.334C61.229,247.775 72.411,205.288 72.411,161.232" style="fill-rule:nonzero;"/>
                    </g>
                    <g transform="matrix(1,0,0,1,171.168,134.925)">
                        <path d="M0,-55.46C9.214,-64.708 18.845,-73.524 28.847,-81.895C19.899,-79.442 11.101,-76.393 2.481,-72.747C1.836,-72.474 1.198,-72.189 0.557,-71.911C-28.416,-44.366 -53.399,-13.165 -73.858,20.74L-63.995,26.435C-46.02,-3.321 -24.525,-30.843 0,-55.46" style="fill-rule:nonzero;"/>
                    </g>
                    <g transform="matrix(1,0,0,1,453.081,204.341)">
                        <path d="M0,70.825C3.11,82.616 5.707,94.533 7.81,106.536C10.327,96.856 12.16,86.977 13.287,76.953C3.733,37.393 -11.171,-0.494 -30.85,-35.711L-40.71,-30.018C-22.972,1.751 -9.273,35.671 0,70.825" style="fill-rule:nonzero;"/>
                    </g>
                    <g transform="matrix(1,0,0,1,346.432,76.1222)">
                        <path d="M0,9.121C22.211,32.237 41.814,57.791 58.406,85.229L68.268,79.536C31.855,19.231 -18.918,-32.54 -81.051,-70.419L-90.382,-76.108C-98.295,-71.544 -106.025,-66.747 -113.584,-61.749C-105.952,-62.462 -98.254,-62.832 -90.493,-62.832L-90.493,-62.831L-86.981,-60.691C-55.096,-41.252 -25.831,-17.764 0,9.121" style="fill-rule:nonzero;"/>
                    </g>
                    <g transform="matrix(1,0,0,1,73.4038,86.6848)">
                        <path d="M0,345.781C-12.704,332.544 -23.808,318.145 -33.218,302.836L-27.021,306.144C-24.484,307.499 -21.933,308.813 -19.376,310.112C-12.031,320.712 -3.819,330.805 5.249,340.28L0,345.781ZM26.232,87.643L16.371,81.95C-15.693,139.371 -35.064,203.93 -39.246,271.295C-53.449,240.033 -60.945,205.841 -60.945,170.606C-60.945,137.87 -54.56,106.103 -41.966,76.188C-29.802,47.293 -12.38,21.313 9.816,-1.031C10.186,-1.402 10.184,-2.003 9.812,-2.372C9.439,-2.742 8.838,-2.74 8.469,-2.368C-13.9,20.148 -31.458,46.331 -43.716,75.451C-56.409,105.601 -62.844,137.616 -62.844,170.606C-62.844,207.333 -54.758,242.935 -39.473,275.308C-39.75,280.531 -39.942,285.768 -40.035,291.021C-59.879,254.427 -70.44,213.257 -70.44,170.606C-70.44,170.083 -70.865,169.657 -71.389,169.657C-71.914,169.657 -72.339,170.083 -72.339,170.606C-72.339,214.729 -61.121,257.278 -40.077,294.88C-40.09,296.231 -40.11,297.581 -40.11,298.934L-40.11,299.155L-36.477,301.095C-26.486,317.817 -14.522,333.499 -0.679,347.813L0.008,348.523L7.878,340.274L7.247,339.619C-6.784,325.065 -18.793,309.039 -28.657,291.911C-28.076,256.014 -23.05,220.324 -13.688,185.712C-4.445,151.537 8.977,118.579 26.232,87.643" style="fill-rule:nonzero;"/>
                    </g>
                    <g transform="matrix(1,0,0,1,151.499,431.437)">
                        <path d="M0,-10.314C-15.219,-14.093 -30.227,-18.703 -44.946,-24.109C-38.007,-17.171 -30.593,-10.707 -22.733,-4.769C-22.693,-4.74 -22.653,-4.711 -22.613,-4.682C16.436,6.958 56.708,13.116 97.048,13.795L97.021,2.397C64.325,1.829 31.724,-2.436 0,-10.314" style="fill-rule:nonzero;"/>
                    </g>
                    <g transform="matrix(1,0,0,1,340.797,364.315)">
                        <path d="M0,-312.454C0.569,-312.22 1.142,-311.996 1.709,-311.756C28.16,-300.568 51.917,-284.551 72.319,-264.148C92.722,-243.746 108.739,-219.989 119.927,-193.539C131.508,-166.157 137.381,-137.066 137.381,-107.076C137.381,-61.302 123.63,-17.458 97.594,19.95C103.613,17.093 109.57,14.103 115.453,10.963L117.695,9.532C138.088,-25.832 148.774,-65.705 148.774,-107.076C148.774,-138.6 142.599,-169.183 130.42,-197.977C118.658,-225.786 101.821,-250.76 80.376,-272.205C58.931,-293.65 33.957,-310.487 6.148,-322.25C-3.449,-326.309 -13.248,-329.685 -23.211,-332.404C-15.25,-326.018 -7.512,-319.361 0,-312.454" style="fill-rule:nonzero;"/>
                    </g>
                    <g transform="matrix(1,0,0,1,122.471,418.846)">
                        <path d="M0,16.155C-17.961,2.588 -33.73,-13.571 -46.87,-31.872C-54.935,-43.106 -61.865,-54.944 -67.642,-67.253C-68.206,-59.812 -68.607,-52.355 -68.812,-44.885C-64.93,-38.162 -60.702,-31.602 -56.125,-25.227C-42.316,-5.993 -25.744,10.988 -6.867,25.247C11.147,38.853 30.911,49.713 51.932,57.558L51.932,67.968C36.472,62.482 21.58,55.428 7.565,46.947C-9.163,36.824 -24.722,24.613 -38.68,10.655L-46.737,18.712C-32.131,33.318 -15.846,46.097 1.667,56.695C18.678,66.99 36.924,75.276 55.899,81.324L63.326,83.408L63.326,49.539L59.527,48.196C38.189,40.654 18.162,29.874 0,16.155" style="fill-rule:nonzero;"/>
                    </g>
                    <g transform="matrix(1,0,0,1,382.003,459.264)">
                        <path d="M0,6.506C-14,14.982 -28.876,22.033 -44.319,27.52L-44.319,17.141C-23.298,9.295 -3.533,-1.564 14.48,-15.171C23.135,-21.708 31.298,-28.824 38.939,-36.46C29.536,-32.791 20.013,-29.433 10.389,-26.4C9.468,-25.682 8.545,-24.967 7.613,-24.263C-10.548,-10.544 -30.577,0.236 -51.914,7.778L-55.713,9.121L-55.713,42.966L-48.284,40.878C-29.326,34.828 -11.096,26.543 5.901,16.253C23.397,5.66 39.668,-7.111 54.263,-21.706L46.207,-29.763C32.259,-15.815 16.713,-3.612 0,6.506" style="fill-rule:nonzero;"/>
                    </g>
                    <g transform="matrix(1,0,0,1,256.05,316.446)">
                        <path d="M0,-292.734L0,-292.735L-0.006,-292.735C-31.53,-292.735 -62.114,-286.559 -90.908,-274.38C-118.717,-262.618 -143.691,-245.781 -165.136,-224.336C-186.581,-202.89 -203.418,-177.917 -215.18,-150.108C-227.359,-121.314 -233.535,-90.73 -233.535,-59.207C-233.535,-38.997 -230.981,-19.144 -225.996,0.001C-224.945,-6.821 -223.747,-13.616 -222.388,-20.371C-221.723,-23.674 -221.015,-26.973 -220.275,-30.264C-221.508,-39.797 -222.141,-49.457 -222.141,-59.207C-222.141,-89.197 -216.269,-118.288 -204.687,-145.67C-193.499,-172.12 -177.481,-195.877 -157.079,-216.279C-136.677,-236.681 -112.92,-252.699 -86.47,-263.886C-59.087,-275.468 -29.997,-281.34 -0.006,-281.34C6.296,-281.34 12.557,-281.065 18.773,-280.548C12.625,-284.758 6.37,-288.826 0,-292.734" style="fill-rule:nonzero;"/>
                    </g>
                    <g transform="matrix(1,0,0,1,255.924,425.897)">
                        <path d="M0,-402.186C-28.741,-384.569 -55.326,-364.623 -79.083,-340.779C-105.112,-314.652 -127.673,-285.198 -146.139,-253.233C-164.604,-221.27 -178.849,-187.012 -188.478,-151.409C-197.274,-118.889 -201.368,-85.666 -202.265,-51.936C-170.561,-34.024 -136.508,-20.993 -102.496,-12.547C-68.969,-4.221 -34.442,0 0.123,0C34.68,0 69.192,-4.217 102.703,-12.536C136.699,-20.973 171.108,-34.592 202.452,-52.051C201.567,-84.836 197.764,-117.03 189.413,-148.687C180.224,-183.524 166.613,-217.129 148.958,-248.571C131.301,-280.013 109.693,-309.127 84.733,-335.104C59.553,-361.312 31.049,-383.181 0,-402.186M0,-399.838C32.524,-379.829 59.777,-358.192 83.291,-333.718C108.133,-307.864 129.64,-278.886 147.214,-247.591C164.786,-216.298 178.333,-182.85 187.479,-148.177C195.169,-119.029 199.404,-87.953 200.419,-53.209C169.588,-36.161 135.66,-22.776 102.222,-14.477C68.868,-6.198 34.517,-2 0.123,-2C-34.28,-2 -68.644,-6.202 -102.014,-14.489C-137.009,-23.178 -170.048,-36.163 -200.232,-53.086C-199.206,-88.639 -194.727,-120.644 -186.547,-150.887C-176.963,-186.322 -162.785,-220.419 -144.407,-252.233C-126.029,-284.046 -103.574,-313.363 -77.666,-339.367C-55.761,-361.354 -30.344,-381.144 0,-399.838" style="fill-rule:nonzero;"/>
                    </g>
                    <g transform="matrix(1,0,0,1,322.484,512)">
                        <path d="M0,-42.475C-21.002,-35.942 -43.333,-32.423 -66.484,-32.423C-89.636,-32.423 -111.966,-35.942 -132.969,-42.475L-132.969,-8.739C-111.765,-3.051 -89.483,0 -66.484,0C-43.486,0 -21.204,-3.051 0,-8.739L0,-42.475ZM-2,-39.776L-2,-10.278C-22.987,-4.785 -44.674,-2 -66.484,-2C-88.295,-2 -109.981,-4.785 -130.969,-10.278L-130.969,-39.776C-110.125,-33.569 -88.445,-30.423 -66.484,-30.423C-44.524,-30.423 -22.843,-33.569 -2,-39.776" style="fill-rule:nonzero;"/>
                    </g>
                </g>
            </g>
        </g>
    </g>
</svg>
