<?xml version="1.0" encoding="UTF-8" standalone="no"?>
<!DOCTYPE svg PUBLIC "-//W3C//DTD SVG 1.1//EN" "http://www.w3.org/Graphics/SVG/1.1/DTD/svg11.dtd">
<svg width="100%" height="100%" viewBox="0 0 525 525" version="1.1" xmlns="http://www.w3.org/2000/svg" xmlns:xlink="http://www.w3.org/1999/xlink" xml:space="preserve" xmlns:serif="http://www.serif.com/" style="fill-rule:evenodd;clip-rule:evenodd;stroke-linejoin:round;stroke-miterlimit:2;">
    <g transform="matrix(1,0,0,1,-1350,0)">
        <g id="Page-2" serif:id="Page 2" transform="matrix(1.50364,0,0,1,1350,0)">
            <rect x="0" y="0" width="348.754" height="524.408" style="fill:none;"/>
            <g transform="matrix(0.665053,0,0,1,111.408,297.811)">
                <g id="Monogram-Big" serif:id="Monogram Big">
                    <path d="M0,-71.215C2.461,-80.142 6.096,-89.782 11.285,-100.051L71.938,-221.357L71.938,-54.593C41.899,-55.077 18.161,-61.316 0,-71.215M30.239,-236.52C46.279,-236.52 58.154,-230.983 65.046,-226.6L-9.649,-77.17C-79.663,-125.91 -46.606,-236.52 30.239,-236.52M155.336,-3.289L155.336,-48.063L222.734,-54.482C223.254,-54.531 223.712,-54.846 223.946,-55.314L260.8,-129.022C261.175,-129.771 260.871,-130.681 260.122,-131.056L255.199,-133.517C254.476,-133.878 253.599,-133.611 253.202,-132.907C247.99,-123.67 213.619,-66.522 155.336,-55.697L155.336,-232.729C155.336,-258.284 160.836,-276.058 162.467,-280.767C162.716,-281.485 162.39,-282.274 161.71,-282.613L156.281,-285.328C155.713,-285.611 155.028,-285.512 154.565,-285.078L133.578,-265.402C120.801,-276.132 89.626,-297.173 41.612,-297.173C-26.623,-297.173 -79.694,-236.52 -79.694,-172.076C-79.694,-124.391 -59.744,-86.681 -15.464,-65.536L-71.434,46.433C-71.809,47.182 -71.505,48.094 -70.756,48.469L-64.531,51.581L2.697,-0.707C3.267,-1.152 3.449,-1.933 3.124,-2.578C0.679,-7.424 -8.396,-28.22 -2.551,-60.099C17.852,-52.567 42.569,-48.028 71.938,-46.98L71.938,43.062C71.938,43.637 72.263,44.162 72.776,44.419L78.935,47.498C79.308,47.684 79.744,47.706 80.135,47.56C140.48,25.2 185.662,48.045 185.662,122.868C185.662,175.373 178.081,218.376 140.173,218.376C90.05,218.376 100.79,113.556 102.138,101.909C102.212,101.276 101.88,100.669 101.31,100.384L95.538,97.498C95.015,97.237 94.39,97.299 93.929,97.657L27.45,149.363C26.866,149.816 26.693,150.625 27.044,151.275C32.134,160.718 69.843,225.958 140.173,225.958C200.825,225.958 269.06,203.213 269.06,100.366C269.06,-15.099 171.402,-4.033 157.08,-1.79C156.162,-1.647 155.336,-2.359 155.336,-3.289" style="fill-rule:nonzero;"/>
                </g>
            </g>
        </g>
    </g>
</svg>
