<?xml version="1.0" encoding="UTF-8" standalone="no"?>
<!DOCTYPE svg PUBLIC "-//W3C//DTD SVG 1.1//EN" "http://www.w3.org/Graphics/SVG/1.1/DTD/svg11.dtd">
<svg width="100%" height="100%" viewBox="0 0 512 512" version="1.1" xmlns="http://www.w3.org/2000/svg" xmlns:xlink="http://www.w3.org/1999/xlink" xml:space="preserve" xmlns:serif="http://www.serif.com/" style="fill-rule:evenodd;clip-rule:evenodd;stroke-linejoin:round;stroke-miterlimit:2;">
    <g transform="matrix(1,0,0,1,-4050,0)">
        <g id="Page-4" serif:id="Page 4" transform="matrix(1,0,0,1,4050,0)">
            <g>
                <g id="Avatar">
                    <g transform="matrix(1,0,0,1,413.848,98.1517)">
                        <path d="M0,315.696C-42.163,357.859 -98.221,381.079 -157.848,381.079C-217.475,381.079 -273.533,357.859 -315.696,315.696C-357.859,273.534 -381.079,217.475 -381.079,157.848C-381.079,98.221 -357.859,42.163 -315.696,0.001C-273.533,-42.162 -217.475,-65.382 -157.848,-65.382C-98.221,-65.382 -42.163,-42.162 0,0.001C42.163,42.163 65.383,98.221 65.383,157.848C65.383,217.475 42.163,273.534 0,315.696M69.383,157.848C69.383,117.978 59.182,79.676 40.018,45.921L64.889,31.561L62.889,28.096L38.002,42.465C28.351,26.146 16.586,10.929 2.828,-2.828C-39.618,-45.275 -95.901,-68.844 -155.848,-69.358L-155.848,-98.152L-159.848,-98.152L-159.848,-69.358C-219.795,-68.844 -276.079,-45.275 -318.525,-2.828C-332.282,10.929 -344.047,26.146 -353.698,42.465L-378.585,28.096L-380.585,31.561L-355.714,45.921C-374.878,79.676 -385.079,117.978 -385.079,157.848C-385.079,197.718 -374.878,236.02 -355.714,269.776L-380.585,284.135L-378.585,287.6L-353.698,273.232C-344.047,289.55 -332.282,304.767 -318.525,318.525C-276.079,360.971 -219.795,384.541 -159.848,385.054L-159.848,413.848L-155.848,413.848L-155.848,385.054C-95.901,384.541 -39.618,360.971 2.828,318.525C16.586,304.767 28.351,289.55 38.002,273.232L62.889,287.6L64.889,284.135L40.018,269.776C59.182,236.02 69.383,197.718 69.383,157.848" style="fill-rule:nonzero;"/>
                    </g>
                    <g transform="matrix(-0.499903,-0.866082,-0.866082,0.499903,435.933,174.755)">
                        <rect x="17.601" y="-10.163" width="4.007" height="47.585"/>
                    </g>
                    <g transform="matrix(-1,0,0,1,512,-391.755)">
                        <rect x="254" y="441.169" width="4" height="21.417"/>
                    </g>
                    <g transform="matrix(-0.499903,-0.866082,-0.866082,0.499903,135.219,357.578)">
                        <rect x="25.573" y="-14.766" width="4.008" height="65.996"/>
                    </g>
                    <g transform="matrix(-1,0,0,1,512,387.182)">
                        <rect x="254" y="49.414" width="4" height="25.99"/>
                    </g>
                    <g transform="matrix(-0.866022,-0.500006,-0.500006,0.866022,402.826,324.503)">
                        <rect x="-45.111" y="12.088" width="49.422" height="4.001"/>
                    </g>
                    <g transform="matrix(-0.866017,-0.500015,-0.500015,0.866017,87.5085,142.983)">
                        <rect x="-43.397" y="11.629" width="47.585" height="4.001"/>
                    </g>
                    <g transform="matrix(1,0,0,1,194.173,279.252)">
                        <path d="M0,-46.504C1.607,-52.333 3.98,-58.628 7.369,-65.333L46.975,-144.545L46.975,-35.65C27.36,-35.966 11.859,-40.039 0,-46.504M19.746,-154.446C30.219,-154.446 37.974,-150.83 42.474,-147.969L-6.301,-50.392C-52.02,-82.219 -30.434,-154.446 19.746,-154.446M101.433,-2.149L101.433,-31.386L145.443,-35.577C145.783,-35.609 146.082,-35.815 146.235,-36.119L170.3,-84.25C170.545,-84.739 170.347,-85.334 169.857,-85.579L166.643,-87.186C166.171,-87.422 165.598,-87.248 165.339,-86.788C161.935,-80.756 139.492,-43.439 101.433,-36.37L101.433,-151.971C101.433,-168.658 105.025,-180.265 106.09,-183.339C106.252,-183.808 106.039,-184.322 105.595,-184.545L102.05,-186.317C101.679,-186.503 101.232,-186.438 100.93,-186.154L87.226,-173.307C78.882,-180.313 58.525,-194.052 27.172,-194.052C-17.385,-194.052 -52.04,-154.446 -52.04,-112.365C-52.04,-81.227 -39.013,-56.603 -10.098,-42.795L-46.646,30.32C-46.891,30.809 -46.692,31.404 -46.203,31.648L-42.138,33.682L1.761,-0.462C2.134,-0.752 2.252,-1.263 2.04,-1.684C0.443,-4.848 -5.482,-18.428 -1.666,-39.244C11.657,-34.326 27.797,-31.363 46.975,-30.678L46.975,28.119C46.975,28.494 47.187,28.837 47.522,29.004L51.544,31.015C51.788,31.137 52.072,31.15 52.328,31.056C91.732,16.455 121.236,31.372 121.236,80.231C121.236,114.517 116.285,142.598 91.531,142.598C58.802,142.598 65.815,74.151 66.696,66.545C66.743,66.132 66.527,65.735 66.154,65.55L62.385,63.665C62.044,63.494 61.635,63.535 61.334,63.768L17.925,97.532C17.543,97.828 17.43,98.356 17.659,98.781C20.983,104.947 45.607,147.548 91.531,147.548C131.137,147.548 175.694,132.696 175.694,65.537C175.694,-9.86 111.924,-2.635 102.572,-1.17C101.972,-1.075 101.433,-1.541 101.433,-2.149" style="fill-rule:nonzero;"/>
                    </g>
                    <g transform="matrix(1,0,0,1,56.7603,0.2129)">
                        <path d="M0,129.209C9.225,114.713 20.038,101.234 32.363,88.91C54.043,67.23 79.284,50.211 107.384,38.325C133.414,27.315 160.906,21.18 189.24,20.009L189.24,0C102.24,3.344 26.377,50.091 -17.31,119.215L0,129.209Z" style="fill-rule:nonzero;"/>
                    </g>
                    <g transform="matrix(1,0,0,1,465.238,146.743)">
                        <path d="M0,218.514L17.323,228.516C36.11,192.899 46.762,152.325 46.762,109.257C46.762,66.19 36.11,25.616 17.323,-10.002L0,0C2.962,5.671 5.714,11.468 8.224,17.402C20.524,46.484 26.762,77.388 26.762,109.257C26.762,141.126 20.524,172.031 8.224,201.113C5.714,207.046 2.962,212.843 0,218.514" style="fill-rule:nonzero;"/>
                    </g>
                    <g transform="matrix(1,0,0,1,266,109.413)">
                        <path d="M0,-89.191C28.334,-88.02 55.826,-81.884 81.855,-70.875C109.956,-58.989 135.197,-41.97 156.877,-20.29C169.202,-7.965 180.015,5.513 189.24,20.009L206.549,10.015C162.862,-59.109 87,-105.856 0,-109.2L0,-89.191Z" style="fill-rule:nonzero;"/>
                    </g>
                    <g transform="matrix(1,0,0,1,455.24,511.787)">
                        <path d="M0,-129.209C-9.225,-114.713 -20.038,-101.234 -32.363,-88.91C-54.043,-67.23 -79.284,-50.211 -107.384,-38.325C-133.414,-27.315 -160.906,-21.18 -189.24,-20.009L-189.24,0C-102.24,-3.344 -26.377,-50.091 17.31,-119.215L0,-129.209Z" style="fill-rule:nonzero;"/>
                    </g>
                    <g transform="matrix(1,0,0,1,246,402.587)">
                        <path d="M0,89.191C-28.334,88.02 -55.826,81.884 -81.855,70.875C-109.956,58.989 -135.197,41.97 -156.877,20.29C-169.202,7.965 -180.015,-5.513 -189.24,-20.009L-206.549,-10.015C-162.862,59.109 -87,105.856 0,109.2L0,89.191Z" style="fill-rule:nonzero;"/>
                    </g>
                    <g transform="matrix(1,0,0,1,46.7617,146.743)">
                        <path d="M0,218.514C-2.962,212.843 -5.714,207.046 -8.224,201.113C-20.525,172.031 -26.762,141.126 -26.762,109.257C-26.762,77.388 -20.525,46.484 -8.224,17.402C-5.714,11.468 -2.962,5.671 0,0L-17.323,-10.002C-36.11,25.616 -46.762,66.19 -46.762,109.257C-46.762,152.325 -36.11,192.899 -17.323,228.516L0,218.514Z" style="fill-rule:nonzero;"/>
                    </g>
                </g>
            </g>
        </g>
    </g>
</svg>
