<?xml version="1.0" encoding="UTF-8" standalone="no"?>
<!DOCTYPE svg PUBLIC "-//W3C//DTD SVG 1.1//EN" "http://www.w3.org/Graphics/SVG/1.1/DTD/svg11.dtd">
<svg width="100%" height="100%" viewBox="0 0 512 512" version="1.1" xmlns="http://www.w3.org/2000/svg" xmlns:xlink="http://www.w3.org/1999/xlink" xml:space="preserve" xmlns:serif="http://www.serif.com/" style="fill-rule:evenodd;clip-rule:evenodd;stroke-linejoin:round;stroke-miterlimit:2;">
    <g transform="matrix(1,0,0,1,-2700,0)">
        <g id="Page-3" serif:id="Page 3" transform="matrix(1,0,0,1,2700,0)">
            <g>
                <g id="Favicon">
                    <g transform="matrix(1,0,0,1,274,94.6714)">
                        <path d="M0,-57.939C23.354,-56.062 46.032,-50.53 67.623,-41.398C93.816,-30.319 117.347,-14.451 137.563,5.765C146.974,15.175 155.429,25.313 162.911,36.094L194.174,18.045C151.31,-45.304 80.819,-88.418 0,-94.033L0,-57.939Z" style="fill-rule:nonzero;"/>
                    </g>
                    <g transform="matrix(1,0,0,1,75.0894,0.6386)">
                        <path d="M0,130.127C7.481,119.346 15.937,109.208 25.347,99.798C45.563,79.582 69.095,63.714 95.288,52.635C116.878,43.503 139.556,37.971 162.911,36.094L162.911,0C82.091,5.615 11.601,48.729 -31.263,112.078L0,130.127Z" style="fill-rule:nonzero;"/>
                    </g>
                    <g transform="matrix(1,0,0,1,454.931,161.931)">
                        <path d="M0,188.137L31.263,206.186C47.786,172.324 57.069,134.283 57.069,94.069C57.069,53.855 47.786,15.813 31.263,-18.049L0,0C1.318,2.785 2.59,5.597 3.795,8.446C15.257,35.545 21.069,64.353 21.069,94.069C21.069,123.784 15.257,152.592 3.795,179.692C2.59,182.54 1.318,185.352 0,188.137" style="fill-rule:nonzero;"/>
                    </g>
                    <g transform="matrix(1,0,0,1,238,417.329)">
                        <path d="M0,57.939C-23.354,56.062 -46.032,50.53 -67.623,41.398C-93.816,30.319 -117.347,14.451 -137.563,-5.765C-146.974,-15.175 -155.429,-25.313 -162.911,-36.094L-194.174,-18.045C-151.31,45.304 -80.819,88.418 0,94.033L0,57.939Z" style="fill-rule:nonzero;"/>
                    </g>
                    <g transform="matrix(1,0,0,1,436.911,511.361)">
                        <path d="M0,-130.127C-7.481,-119.346 -15.937,-109.208 -25.347,-99.798C-45.563,-79.582 -69.095,-63.714 -95.288,-52.635C-116.878,-43.503 -139.556,-37.971 -162.911,-36.094L-162.911,0C-82.091,-5.615 -11.601,-48.729 31.263,-112.078L0,-130.127Z" style="fill-rule:nonzero;"/>
                    </g>
                    <g transform="matrix(1,0,0,1,57.0688,161.931)">
                        <path d="M0,188.137C-1.318,185.352 -2.59,182.54 -3.795,179.692C-15.257,152.592 -21.069,123.784 -21.069,94.069C-21.069,64.353 -15.257,35.545 -3.795,8.446C-2.59,5.597 -1.318,2.785 0,0L-31.263,-18.049C-47.786,15.813 -57.069,53.855 -57.069,94.069C-57.069,134.283 -47.786,172.324 -31.263,206.186L0,188.137Z" style="fill-rule:nonzero;"/>
                    </g>
                    <g transform="matrix(1,0,0,1,256,61.0687)">
                        <path d="M0,389.862C-107.485,389.862 -194.931,302.417 -194.931,194.931C-194.931,87.446 -107.485,0.001 0,0.001C107.485,0.001 194.931,87.446 194.931,194.931C194.931,302.417 107.485,389.862 0,389.862M202.931,194.931C202.931,159.429 193.756,126.033 177.669,96.972L223.737,70.376L219.737,63.448L173.666,90.047C138.715,32.392 75.875,-6.551 4,-7.949L4,-61.069L-4,-61.069L-4,-7.949C-75.875,-6.551 -138.715,32.392 -173.666,90.047L-219.736,63.448L-223.736,70.376L-177.669,96.972C-193.756,126.033 -202.931,159.429 -202.931,194.931C-202.931,230.433 -193.756,263.83 -177.669,292.89L-223.736,319.487L-219.736,326.415L-173.666,299.816C-138.715,357.47 -75.875,396.414 -4,397.811L-4,450.931L4,450.931L4,397.811C75.875,396.414 138.715,357.47 173.666,299.816L219.737,326.415L223.737,319.487L177.669,292.89C193.756,263.83 202.931,230.433 202.931,194.931" style="fill-rule:nonzero;"/>
                    </g>
                    <g transform="matrix(1,0,0,1,195.054,282.242)">
                        <path d="M0,-52.484C1.557,-57.46 3.671,-62.749 6.488,-68.323L46.094,-147.535L46.094,-41.173C26.889,-41.791 11.672,-46.003 0,-52.484M18.865,-157.436C26.233,-157.436 32.253,-155.644 36.745,-153.587L-10.289,-59.493C-49.732,-92.286 -29.297,-157.436 18.865,-157.436M100.552,-5.138L100.552,-31.515L149.477,-33.642C149.836,-33.658 150.159,-33.868 150.32,-34.189L174.37,-82.29C174.615,-82.779 174.416,-83.374 173.927,-83.618L165.757,-87.703C165.289,-87.937 164.719,-87.769 164.458,-87.315C161.162,-81.572 139.858,-47.089 100.552,-41.415L100.552,-154.961C100.552,-171.667 104.151,-183.28 105.212,-186.338C105.375,-186.809 105.159,-187.312 104.714,-187.535L96.218,-191.783C95.847,-191.968 95.4,-191.903 95.098,-191.62L82.203,-179.53C72.167,-186.836 53.313,-197.042 26.291,-197.042C-18.266,-197.042 -52.921,-157.436 -52.921,-115.355C-52.921,-86.284 -41.565,-61.946 -16.529,-47.009L-52.476,24.905C-52.721,25.395 -52.521,25.992 -52.029,26.235L-43.019,30.692L0.88,-3.452C1.251,-3.741 1.375,-4.245 1.163,-4.665C-0.379,-7.715 -6.012,-20.578 -2.872,-40.348C10.512,-35.08 26.761,-31.883 46.094,-31.193L46.094,25.129C46.094,25.504 46.306,25.847 46.641,26.014L55.613,30.5C55.857,30.622 56.146,30.635 56.402,30.539C95.771,15.924 120.355,28.384 120.355,77.242C120.355,111.527 115.404,134.657 90.65,134.657C58.084,134.657 69.237,73.449 70.7,66.072C70.786,65.634 70.567,65.206 70.169,65.007L61.504,60.675C61.163,60.504 60.754,60.545 60.453,60.779L17.043,94.542C16.662,94.839 16.543,95.354 16.772,95.78C20.071,101.904 44.697,144.558 90.65,144.558C130.256,144.558 174.813,129.706 174.813,62.547C174.813,-12.864 111.018,-5.622 101.686,-4.159C101.087,-4.065 100.552,-4.532 100.552,-5.138" style="fill-rule:nonzero;"/>
                    </g>
                </g>
            </g>
        </g>
    </g>
</svg>
