<?xml version="1.0" encoding="UTF-8" standalone="no"?>
<!DOCTYPE svg PUBLIC "-//W3C//DTD SVG 1.1//EN" "http://www.w3.org/Graphics/SVG/1.1/DTD/svg11.dtd">
<svg width="100%" height="100%" viewBox="0 0 1200 1200" version="1.1" xmlns="http://www.w3.org/2000/svg"
     xmlns:xlink="http://www.w3.org/1999/xlink" xml:space="preserve" xmlns:serif="http://www.serif.com/"
     style="stroke:#000;stroke-width:0;fill-rule:evenodd;clip-rule:evenodd;stroke-linecap:round;stroke-linejoin:round;stroke-miterlimit:10;">
    <g id="Strahlen">
        <path d="M547.225,199.133l-15.242,-115.772m90.567,0.178l-4.394,100.634m63.039,49.58l11.416,-51.49m-110.766,1.91l-3.558,-81.477m74.369,97.347l12.318,-93.562m61.419,92.652l30.407,-96.437m-13.24,150.721l31.058,-74.979m26.944,105.174l63.702,-99.992m-11.824,139.799l54.83,-59.836m-135.05,3.665l56.629,-108.782m-1.478,143.916l32.514,-42.373m15.697,86.551l40.945,-37.519m-9.257,54.416l65.506,-50.265m-33.239,109.537l64.203,-33.423m30.438,73.483l-67.072,21.148m-42.031,-91.669l93.747,-59.724m-61.938,119.216l87.597,-36.284m-68.713,100.997l132.946,-29.474m-125.659,62.44l83.515,-10.995m-66.813,79.053l55.105,2.407m-10.381,78.857l-47.511,-10.533m-13.915,-104.996l113.25,-4.945m-99.335,74.107l110.794,14.586m-121.621,55.086l110.162,34.734m-128.122,-3.879l52.38,21.696m-47.317,63.803l22.231,14.164m-105.451,14.092l45.391,41.594m42.686,-110.921l62.432,32.5m-46.621,73.18l-84.198,-64.609m-29.131,68.876l71.884,78.447m-113.042,-72.413l37.349,48.674m-67.081,42.736l-28.409,-54.573m-63.726,25.856l18.651,59.155m75.365,-101.501l54.88,86.144m-117.561,-57.943l40.597,98.009m-105.48,-76.427l27.159,122.507m-60.708,-115.069l9.768,74.195m-78.836,-61.868l-4.678,107.151m-65.614,-113.899l-10.863,49.004m115.846,-54.161l4.627,105.984m-75.806,-86.422l-7.907,60.055m-63.008,-74.46l-34.522,109.49m8.474,-141.284l-16.948,40.918m-52.954,-58.766l-36.889,57.905m-22.702,-98.573l-35.84,39.112m131.161,10.542l-44.62,85.713m-62.749,-60.214l38.299,-49.912m-52.182,-50.57l-75.659,69.329m51.571,-96.513l-31.436,24.122m-8.436,-84.937l-46.308,24.106m44.36,-99.532l-37.748,11.903m69.6,87.629l-79.285,50.511m49.381,-114.014l-106.001,43.907m66.305,-106.424l-106.839,23.686m112.048,-61.301l-47.465,6.249m61.13,-76.642l-47.417,-2.07m60.349,-64.721l-83.417,-18.493m68.153,119.552l-103.71,4.528m111.832,-72.461l-108.047,-14.224m102.257,-58.392l-120.82,-38.095m154.251,13.24l-43.851,-18.163m61.146,-50.563l-28.114,-17.911m92.069,-18.584l-40.945,-37.519m-28.739,110.704l-95.269,-49.593m111.024,-23.761l-64.403,-49.419m42.073,-82.03l77.706,84.801m38.557,-8.056l-41.198,-53.691m97.355,15.421l-37.04,-71.154m92.452,21.261l-12.203,-38.702m-80.249,93.833l-49.995,-78.476m113.879,49.056l-43.032,-103.89m114.412,103.89l-39.01,-175.96"
              style="fill:none;fill-rule:nonzero;stroke-width:2px;"/>
        <path d="M600,182.731l-0,-142.73" style="fill:none;fill-rule:nonzero;stroke-width:2px;"/>
        <path d="M531.983,214.257l-18.421,-104.473" style="fill:none;fill-rule:nonzero;stroke-width:2px;"/>
        <path d="M467.672,236.433l-34.583,-95.016" style="fill:none;fill-rule:nonzero;stroke-width:2px;"/>
        <path d="M564.152,190.26l-3.029,-34.625" style="fill:none;fill-rule:nonzero;stroke-width:2px;"/>
        <path d="M502.907,237.644l-7.701,-28.739" style="fill:none;fill-rule:nonzero;stroke-width:2px;"/>
        <path d="M441.459,260.009l-23.626,-50.667" style="fill:none;fill-rule:nonzero;stroke-width:2px;"/>
        <path d="M412.431,275.12l-92.431,-160.095" style="fill:none;fill-rule:nonzero;stroke-width:2px;"/>
        <path d="M358.865,312.627l-78.831,-93.947" style="fill:none;fill-rule:nonzero;stroke-width:2px;"/>
        <path d="M301.531,349.555l-59.362,-49.812" style="fill:none;fill-rule:nonzero;stroke-width:2px;"/>
        <path d="M384.829,292.704l-31.663,-45.22" style="fill:none;fill-rule:nonzero;stroke-width:2px;"/>
        <path d="M334.737,334.736l-57.387,-57.387" style="fill:none;fill-rule:nonzero;stroke-width:2px;"/>
        <path d="M280,375.934l-53.776,-37.654" style="fill:none;fill-rule:nonzero;stroke-width:2px;"/>
        <path d="M262.86,405.353l-147.834,-85.353" style="fill:none;fill-rule:nonzero;stroke-width:2px;"/>
        <path d="M229.09,465l-96.849,-35.25" style="fill:none;fill-rule:nonzero;stroke-width:2px;"/>
        <path d="M208.738,531.01l-32.179,-5.674" style="fill:none;fill-rule:nonzero;stroke-width:2px;"/>
        <path d="M236.184,430.35l-49.729,-23.188" style="fill:none;fill-rule:nonzero;stroke-width:2px;"/>
        <path d="M227.612,500.219l-52.444,-14.053" style="fill:none;fill-rule:nonzero;stroke-width:2px;"/>
        <path d="M215.164,566.331l-69.724,-6.1" style="fill:none;fill-rule:nonzero;stroke-width:2px;"/>
        <path d="M189.863,600.328l-149.863,-0.328" style="fill:none;fill-rule:nonzero;stroke-width:2px;"/>
        <path d="M212.857,668.264l-103.072,18.175" style="fill:none;fill-rule:nonzero;stroke-width:2px;"/>
        <path d="M229.56,734.829l-97.318,35.421" style="fill:none;fill-rule:nonzero;stroke-width:2px;"/>
        <path d="M206.406,634.435l-74.164,6.489" style="fill:none;fill-rule:nonzero;stroke-width:2px;"/>
        <path d="M223.232,700.955l-75.58,20.251" style="fill:none;fill-rule:nonzero;stroke-width:2px;"/>
        <path d="M225.533,774.617l-22.01,10.263" style="fill:none;fill-rule:nonzero;stroke-width:2px;"/>
        <path d="M240,807.846l-124.974,72.154" style="fill:none;fill-rule:nonzero;stroke-width:2px;"/>
        <path d="M280,868.512l-61.32,51.454" style="fill:none;fill-rule:nonzero;stroke-width:2px;"/>
        <path d="M342.148,907.296l-62.114,74.024" style="fill:none;fill-rule:nonzero;stroke-width:2px;"/>
        <path d="M260.101,838l-42.067,29.456" style="fill:none;fill-rule:nonzero;stroke-width:2px;"/>
        <path d="M321.337,878.663l-43.987,43.987" style="fill:none;fill-rule:nonzero;stroke-width:2px;"/>
        <path d="M373.592,923.344l-35.313,50.433" style="fill:none;fill-rule:nonzero;stroke-width:2px;"/>
        <path d="M403.392,940.536l-83.392,144.438" style="fill:none;fill-rule:nonzero;stroke-width:2px;"/>
        <path d="M464.684,971.777l-34.934,95.98" style="fill:none;fill-rule:nonzero;stroke-width:2px;"/>
        <path d="M531.983,985.743l-18.421,104.473" style="fill:none;fill-rule:nonzero;stroke-width:2px;"/>
        <path d="M424.31,976.769l-17.149,36.776" style="fill:none;fill-rule:nonzero;stroke-width:2px;"/>
        <path d="M497.826,981.32l-11.739,43.809" style="fill:none;fill-rule:nonzero;stroke-width:2px;"/>
        <path d="M565.637,992.77l-5.406,61.789" style="fill:none;fill-rule:nonzero;stroke-width:2px;"/>
        <path d="M600,1019.77l0,140.232" style="fill:none;fill-rule:nonzero;stroke-width:2px;"/>
        <path d="M671.518,1005.6l12.119,68.728" style="fill:none;fill-rule:nonzero;stroke-width:2px;"/>
        <path d="M742.275,990.898l27.975,76.86" style="fill:none;fill-rule:nonzero;stroke-width:2px;"/>
        <path d="M635.277,1003.23l3.697,42.256" style="fill:none;fill-rule:nonzero;stroke-width:2px;"/>
        <path d="M704.741,990.897l23.145,86.377" style="fill:none;fill-rule:nonzero;stroke-width:2px;"/>
        <path d="M771.31,967.377l21.529,46.168" style="fill:none;fill-rule:nonzero;stroke-width:2px;"/>
        <path d="M807.835,959.981l72.165,124.993" style="fill:none;fill-rule:nonzero;stroke-width:2px;"/>
        <path d="M851.747,900.021l68.219,81.299" style="fill:none;fill-rule:nonzero;stroke-width:2px;"/>
        <path d="M911.907,861.721l69.413,58.245" style="fill:none;fill-rule:nonzero;stroke-width:2px;"/>
        <path d="M833.643,933.677l57.382,81.95" style="fill:none;fill-rule:nonzero;stroke-width:2px;"/>
        <path d="M880.116,880.116l64.191,64.191" style="fill:none;fill-rule:nonzero;stroke-width:2px;"/>
        <path d="M936.881,835.887l45.085,31.569" style="fill:none;fill-rule:nonzero;stroke-width:2px;"/>
        <path d="M981.966,820.528l103.008,59.472" style="fill:none;fill-rule:nonzero;stroke-width:2px;"/>
        <path d="M996.477,744.306l71.281,25.944" style="fill:none;fill-rule:nonzero;stroke-width:2px;"/>
        <path d="M987.143,668.264l103.072,18.175" style="fill:none;fill-rule:nonzero;stroke-width:2px;"/>
        <path d="M978.331,776.418l35.214,16.421" style="fill:none;fill-rule:nonzero;stroke-width:2px;"/>
        <path d="M981.32,702.175l59.429,15.924" style="fill:none;fill-rule:nonzero;stroke-width:2px;"/>
        <path d="M991.492,634.251l76.077,6.656" style="fill:none;fill-rule:nonzero;stroke-width:2px;"/>
        <path d="M994.914,600l165.086,0" style="fill:none;fill-rule:nonzero;stroke-width:2px;"/>
        <path d="M991.492,530.97l98.723,-17.408" style="fill:none;fill-rule:nonzero;stroke-width:2px;"/>
        <path d="M975.736,463.243l100.182,-36.463" style="fill:none;fill-rule:nonzero;stroke-width:2px;"/>
        <path d="M991.492,565.749l63.068,-5.518" style="fill:none;fill-rule:nonzero;stroke-width:2px;"/>
        <path d="M987.143,496.266l34.582,-9.267" style="fill:none;fill-rule:nonzero;stroke-width:2px;"/>
        <path d="M961.729,431.323l34.749,-16.203" style="fill:none;fill-rule:nonzero;stroke-width:2px;"/>
        <path d="M940.536,403.392l144.438,-83.392" style="fill:none;fill-rule:nonzero;stroke-width:2px;"/>
        <path d="M904.841,344.208l76.479,-64.174" style="fill:none;fill-rule:nonzero;stroke-width:2px;"/>
        <path d="M858.706,291.687l61.26,-73.007" style="fill:none;fill-rule:nonzero;stroke-width:2px;"/>
        <path d="M927.656,370.573l32.344,-22.648" style="fill:none;fill-rule:nonzero;stroke-width:2px;"/>
        <path d="M875.351,324.649l64.64,-64.641" style="fill:none;fill-rule:nonzero;stroke-width:2px;"/>
        <path d="M822.643,282.033l39.078,-55.81" style="fill:none;fill-rule:nonzero;stroke-width:2px;"/>
        <path d="M803.227,248l76.773,-132.975" style="fill:none;fill-rule:nonzero;stroke-width:2px;"/>
        <path d="M734.948,229.234l35.302,-96.992" style="fill:none;fill-rule:nonzero;stroke-width:2px;"/>
        <path d="M667.891,214.97l21.534,-122.122" style="fill:none;fill-rule:nonzero;stroke-width:2px;"/>
        <path d="M764.903,246.363l15.625,-33.507" style="fill:none;fill-rule:nonzero;stroke-width:2px;"/>
        <path d="M697.093,237.644l8.805,-32.861" style="fill:none;fill-rule:nonzero;stroke-width:2px;"/>
        <path d="M635.848,190.26l3.921,-44.819" style="fill:none;fill-rule:nonzero;stroke-width:2px;"/>
    </g>
    <g id="Runenkreis">
        <path d="M572.895,941.718c0.505,-0.582 0.817,-1.593 0.937,-3.029l0.521,-6.28c0.119,-1.436 -0.022,-2.485 -0.424,-3.142c-0.403,-0.659 -1.029,-1.025 -1.88,-1.095c-0.851,-0.07 -1.529,0.187 -2.034,0.77c-0.505,0.583 -0.817,1.593 -0.936,3.03l-0.521,6.278c-0.12,1.439 0.022,2.487 0.424,3.143c0.402,0.659 1.028,1.024 1.88,1.095c0.851,0.07 1.528,-0.187 2.033,-0.77m-5.042,0.076c-0.895,-0.817 -1.578,-1.853 -2.05,-3.107c-0.471,-1.254 -0.653,-2.545 -0.543,-3.87c0.11,-1.326 0.501,-2.569 1.174,-3.728c0.671,-1.159 1.516,-2.069 2.533,-2.729c1.018,-0.661 2.063,-0.947 3.137,-0.857c1.075,0.089 2.059,0.543 2.954,1.362c0.894,0.819 1.577,1.855 2.049,3.109c0.472,1.255 0.653,2.545 0.543,3.87c-0.11,1.326 -0.501,2.569 -1.173,3.728c-0.672,1.16 -1.517,2.068 -2.534,2.728c-1.018,0.66 -2.063,0.946 -3.137,0.856c-1.075,-0.087 -2.059,-0.542 -2.953,-1.362"
              style="fill-rule:nonzero;"/>
        <path d="M591.465,936.134c0.728,0.019 1.25,-0.262 1.566,-0.842c0.316,-0.579 0.489,-1.387 0.516,-2.424c0.027,-1.02 -0.099,-1.819 -0.378,-2.393c-0.279,-0.575 -0.789,-0.872 -1.532,-0.892l-1.573,-0.041c-0.182,-0.005 -0.313,0.027 -0.391,0.095c-0.08,0.068 -0.122,0.199 -0.126,0.395l-0.16,6.047l2.078,0.055Zm-7.344,6.863l1.469,0.039c0.196,0.006 0.33,-0.029 0.402,-0.105c0.072,-0.074 0.11,-0.203 0.116,-0.385l0.332,-12.596c0.004,-0.196 -0.027,-0.33 -0.095,-0.401c-0.068,-0.071 -0.2,-0.11 -0.396,-0.116l-1.469,-0.038l0.017,-0.672l7.473,0.197c0.98,0.026 1.847,0.213 2.601,0.562c0.754,0.349 1.337,0.827 1.748,1.433c0.411,0.606 0.607,1.286 0.587,2.043c-0.021,0.77 -0.252,1.45 -0.694,2.04c-0.444,0.591 -1.051,1.048 -1.822,1.37c-0.773,0.324 -1.648,0.471 -2.628,0.446l-2.392,-0.064l-0.155,5.877c-0.005,0.183 0.03,0.314 0.104,0.392c0.076,0.079 0.204,0.121 0.386,0.126l1.847,0.05l-0.018,0.67l-7.431,-0.196l0.018,-0.672Z"
              style="fill-rule:nonzero;"/>
        <path d="M606.85,943.515c-0.841,-0.474 -1.464,-1.106 -1.873,-1.9c-0.408,-0.794 -0.626,-1.672 -0.654,-2.638l-0.254,-8.796c-0.006,-0.195 -0.045,-0.328 -0.117,-0.395c-0.072,-0.068 -0.206,-0.1 -0.402,-0.094l-1.343,0.039l-0.02,-0.672l6.802,-0.197l0.019,0.672l-1.343,0.039c-0.182,0.004 -0.311,0.044 -0.385,0.117c-0.076,0.071 -0.11,0.206 -0.105,0.401l0.279,9.614c0.037,1.288 0.309,2.218 0.816,2.79c0.507,0.575 1.271,0.847 2.293,0.817c0.685,-0.02 1.296,-0.205 1.832,-0.557c0.536,-0.351 0.95,-0.811 1.242,-1.38c0.291,-0.569 0.428,-1.188 0.408,-1.86l-0.238,-8.229c-0.019,-0.629 -0.246,-1.096 -0.682,-1.398c-0.436,-0.304 -0.954,-0.445 -1.556,-0.429l-0.019,-0.672l5.206,-0.15l0.019,0.672c-0.602,0.017 -1.112,0.19 -1.529,0.517c-0.418,0.328 -0.618,0.806 -0.6,1.436l0.233,8.019c0.025,0.881 -0.151,1.687 -0.529,2.42c-0.378,0.732 -0.942,1.319 -1.693,1.76c-0.751,0.443 -1.637,0.679 -2.658,0.707c-1.259,0.037 -2.309,-0.18 -3.149,-0.653"
              style="fill-rule:nonzero;"/>
        <path d="M628.2,942.88c-0.503,-0.133 -0.927,-0.318 -1.27,-0.556c-0.342,-0.209 -0.586,-0.354 -0.732,-0.432c-0.148,-0.079 -0.285,-0.114 -0.41,-0.103c-0.293,0.026 -0.454,0.279 -0.484,0.758l-0.046,0.679l-0.649,0.055l-0.69,-6.601l0.669,-0.057c0.286,1.044 0.702,2.013 1.249,2.907c0.547,0.894 1.177,1.6 1.888,2.115c0.712,0.515 1.452,0.74 2.218,0.674c1.102,-0.094 1.834,-0.401 2.197,-0.924c0.363,-0.523 0.518,-1.092 0.466,-1.704c-0.031,-0.363 -0.188,-0.677 -0.47,-0.941c-0.283,-0.264 -0.682,-0.534 -1.197,-0.814l-4.724,-2.505c-0.692,-0.363 -1.291,-0.839 -1.798,-1.427c-0.508,-0.59 -0.798,-1.316 -0.871,-2.182c-0.116,-1.352 0.192,-2.394 0.924,-3.125c0.731,-0.729 1.676,-1.143 2.834,-1.243c0.99,-0.084 2.01,0.18 3.061,0.793c0.341,0.223 0.604,0.328 0.784,0.313c0.252,-0.022 0.391,-0.195 0.42,-0.522l0.077,-0.575l0.67,-0.058l0.674,5.423l-0.67,0.058c-0.348,-0.941 -0.792,-1.78 -1.332,-2.521c-0.541,-0.741 -1.142,-1.311 -1.801,-1.712c-0.659,-0.401 -1.324,-0.573 -1.993,-0.514c-0.74,0.062 -1.275,0.256 -1.606,0.58c-0.33,0.322 -0.471,0.777 -0.421,1.362c0.069,0.796 0.758,1.545 2.068,2.248l4.747,2.525c0.604,0.327 1.105,0.804 1.503,1.431c0.398,0.627 0.627,1.295 0.688,2.007c0.062,0.725 -0.054,1.431 -0.347,2.115c-0.293,0.686 -0.77,1.267 -1.431,1.745c-0.662,0.478 -1.502,0.761 -2.52,0.848c-0.614,0.052 -1.172,0.012 -1.675,-0.12"
              style="fill-rule:nonzero;"/>
        <path d="M525.23,963.373c0.319,-0.067 0.598,-0.22 0.837,-0.457c0.239,-0.236 0.395,-0.533 0.469,-0.89c0.054,-0.264 0.039,-0.465 -0.048,-0.602c-0.086,-0.137 -0.211,-0.223 -0.376,-0.256c-0.375,-0.077 -0.757,0.022 -1.148,0.3c-0.391,0.276 -0.7,0.601 -0.929,0.973c-0.076,0.138 -0.162,0.3 -0.258,0.491c-0.096,0.19 -0.17,0.34 -0.222,0.454c0.677,0.091 1.235,0.088 1.675,-0.013m-3,2.635c-0.245,-0.522 -0.3,-1.108 -0.167,-1.756c0.112,-0.549 0.324,-1.07 0.636,-1.564c0.311,-0.493 0.71,-0.909 1.199,-1.247c0.799,-0.549 1.555,-0.752 2.268,-0.606c0.366,0.075 0.647,0.225 0.843,0.452c0.197,0.227 0.253,0.545 0.168,0.956c-0.146,0.714 -0.725,1.191 -1.737,1.431c-0.341,0.082 -0.673,0.121 -0.996,0.117c-0.323,-0.005 -0.67,-0.031 -1.041,-0.078c-0.085,0.181 -0.18,0.423 -0.284,0.72c-0.104,0.297 -0.183,0.58 -0.238,0.844c-0.083,0.403 -0.054,0.718 0.084,0.946c0.14,0.229 0.337,0.37 0.592,0.422c0.567,0.117 1.076,-0.016 1.527,-0.401c0.45,-0.384 0.789,-0.757 1.016,-1.12l0.268,0.154c-0.347,0.577 -0.788,1.031 -1.323,1.359c-0.534,0.328 -1.075,0.436 -1.623,0.324c-0.549,-0.112 -0.946,-0.431 -1.192,-0.953"
              style="fill-rule:nonzero;"/>
        <path d="M530.63,968.136c-0.261,-0.209 -0.443,-0.451 -0.545,-0.726c-0.101,-0.274 -0.128,-0.548 -0.078,-0.825c0.039,-0.21 0.139,-0.404 0.304,-0.577c0.164,-0.175 0.371,-0.239 0.619,-0.194c0.137,0.025 0.248,0.093 0.331,0.21c0.084,0.114 0.111,0.254 0.081,0.42c-0.042,0.228 -0.165,0.359 -0.369,0.388c-0.117,0.017 -0.214,0.051 -0.289,0.104c-0.076,0.053 -0.128,0.152 -0.154,0.299c-0.048,0.266 0.07,0.488 0.356,0.663c0.286,0.175 0.59,0.292 0.912,0.349c0.487,0.088 0.878,0.046 1.175,-0.128c0.297,-0.173 0.475,-0.426 0.535,-0.756c0.034,-0.184 0.028,-0.363 -0.016,-0.538c-0.045,-0.173 -0.13,-0.33 -0.257,-0.465l-0.986,-1.076c-0.382,-0.354 -0.522,-0.81 -0.42,-1.371c0.072,-0.403 0.238,-0.732 0.498,-0.984c0.259,-0.252 0.565,-0.422 0.917,-0.51c0.353,-0.088 0.703,-0.099 1.053,-0.037c0.367,0.067 0.666,0.214 0.895,0.441c0.229,0.225 0.388,0.473 0.477,0.741c0.089,0.267 0.117,0.492 0.084,0.676c-0.039,0.211 -0.131,0.383 -0.279,0.519c-0.148,0.134 -0.341,0.179 -0.58,0.137c-0.138,-0.026 -0.255,-0.096 -0.352,-0.213c-0.098,-0.118 -0.133,-0.25 -0.107,-0.397c0.032,-0.175 0.117,-0.301 0.255,-0.381c0.043,-0.03 0.115,-0.064 0.217,-0.103c0.122,-0.045 0.191,-0.107 0.205,-0.189c0.039,-0.212 -0.047,-0.406 -0.257,-0.581c-0.21,-0.176 -0.444,-0.288 -0.701,-0.333c-0.368,-0.068 -0.708,-0.02 -1.022,0.141c-0.313,0.162 -0.504,0.431 -0.572,0.808c-0.042,0.229 -0.041,0.395 0.002,0.498c0.043,0.102 0.129,0.218 0.257,0.345l1.107,1.196c0.175,0.184 0.307,0.372 0.396,0.563c0.088,0.192 0.108,0.425 0.058,0.701c-0.062,0.339 -0.215,0.649 -0.46,0.927c-0.245,0.278 -0.564,0.484 -0.957,0.616c-0.395,0.132 -0.831,0.156 -1.308,0.07c-0.422,-0.077 -0.764,-0.22 -1.025,-0.428"
              style="fill-rule:nonzero;"/>
        <path d="M539.089,969.527c-0.156,-0.237 -0.206,-0.536 -0.148,-0.895c0.055,-0.35 0.166,-0.72 0.332,-1.11l1.571,-3.465l-0.955,-0.151l0.159,-0.372l0.968,0.154l1.426,-3.176l0.912,0.145l-1.426,3.176l1.562,0.248l-0.158,0.372l-1.576,-0.251l-1.824,4.077c-0.042,0.089 -0.088,0.211 -0.136,0.369c-0.049,0.157 -0.081,0.286 -0.097,0.388c-0.013,0.083 0.005,0.176 0.055,0.278c0.049,0.103 0.144,0.165 0.282,0.187c0.119,0.018 0.245,0.001 0.377,-0.054c0.236,-0.113 0.458,-0.336 0.666,-0.667c0.208,-0.33 0.429,-0.752 0.661,-1.263l0.264,0.127c-0.31,0.754 -0.64,1.347 -0.992,1.778c-0.351,0.431 -0.762,0.609 -1.233,0.534c-0.304,-0.048 -0.534,-0.192 -0.69,-0.429"
              style="fill-rule:nonzero;"/>
        <path d="M546.426,970.711c-0.139,-0.185 -0.192,-0.401 -0.157,-0.651c0.035,-0.249 0.145,-0.444 0.329,-0.583c0.184,-0.139 0.401,-0.193 0.651,-0.157c0.249,0.035 0.444,0.144 0.583,0.329c0.139,0.184 0.191,0.401 0.157,0.65c-0.035,0.25 -0.145,0.445 -0.329,0.584c-0.184,0.138 -0.401,0.191 -0.651,0.156c-0.25,-0.035 -0.444,-0.144 -0.583,-0.328"
              style="fill-rule:nonzero;"/>
        <path d="M559.56,971.991l0.432,0.04c0.307,0.029 0.572,-0.028 0.797,-0.171c0.224,-0.142 0.447,-0.353 0.67,-0.634l2.686,-3.304l-1.716,-4.043c-0.116,-0.273 -0.24,-0.472 -0.373,-0.598c-0.134,-0.124 -0.354,-0.201 -0.661,-0.23l-0.85,-0.08l0.042,-0.445l4.32,0.404l-0.041,0.447l-0.837,-0.079c-0.167,-0.016 -0.257,0.046 -0.27,0.185c-0.006,0.056 -0.002,0.117 0.011,0.184c0.012,0.067 0.034,0.131 0.066,0.189l1.245,2.93l1.509,-1.857c0.212,-0.261 0.33,-0.517 0.354,-0.767c0.014,-0.159 -0.036,-0.302 -0.15,-0.43c-0.115,-0.128 -0.275,-0.201 -0.479,-0.22l-0.432,-0.041l0.042,-0.446l3.764,0.352l-0.042,0.447l-0.627,-0.059c-0.279,-0.026 -0.519,0.005 -0.719,0.094c-0.2,0.089 -0.391,0.247 -0.572,0.474l-2.433,3.007l2.043,4.759c0.109,0.246 0.224,0.418 0.346,0.519c0.122,0.1 0.275,0.159 0.461,0.177l0.865,0.081l-0.042,0.445l-4.322,-0.404l0.042,-0.447l0.837,0.08c0.13,0.011 0.227,-0.008 0.293,-0.058c0.066,-0.05 0.103,-0.117 0.111,-0.2c0.005,-0.057 0.001,-0.117 -0.012,-0.185c-0.012,-0.066 -0.03,-0.124 -0.054,-0.173l-1.476,-3.456l-1.831,2.289c-0.265,0.332 -0.409,0.614 -0.43,0.846c-0.016,0.167 0.012,0.315 0.084,0.443c0.073,0.129 0.192,0.202 0.36,0.216l0.752,0.072l-0.041,0.445l-3.764,-0.353l0.042,-0.445Z"
              style="fill-rule:nonzero;"/>
        <path d="M573.173,973.161l1.006,0.064c0.251,0.016 0.385,-0.101 0.401,-0.353l0.534,-8.298c0.009,-0.131 -0.016,-0.228 -0.072,-0.293c-0.057,-0.064 -0.151,-0.1 -0.281,-0.108l-1.006,-0.066l0.029,-0.447l4.052,0.261l-0.029,0.447l-1.006,-0.064c-0.13,-0.008 -0.228,0.015 -0.293,0.072c-0.064,0.056 -0.1,0.149 -0.109,0.281l-0.533,8.298c-0.017,0.251 0.101,0.385 0.353,0.4l1.006,0.066l-0.029,0.447l-4.052,-0.261l0.029,-0.446Z"
              style="fill-rule:nonzero;"/>
        <path d="M581.358,973.662l0.434,0.015c0.308,0.01 0.569,-0.062 0.785,-0.217c0.216,-0.155 0.427,-0.379 0.633,-0.672l2.489,-3.454l-1.948,-3.936c-0.131,-0.266 -0.266,-0.458 -0.407,-0.575c-0.141,-0.117 -0.365,-0.181 -0.673,-0.192l-0.853,-0.031l0.016,-0.447l4.337,0.154l-0.015,0.447l-0.84,-0.03c-0.168,-0.005 -0.254,0.062 -0.259,0.202c-0.002,0.055 0.005,0.117 0.021,0.182c0.016,0.067 0.042,0.127 0.078,0.185l1.412,2.851l1.4,-1.939c0.196,-0.273 0.298,-0.536 0.307,-0.787c0.006,-0.159 -0.052,-0.299 -0.174,-0.42c-0.121,-0.121 -0.285,-0.185 -0.491,-0.192l-0.433,-0.016l0.015,-0.447l3.779,0.132l-0.016,0.448l-0.63,-0.022c-0.28,-0.01 -0.517,0.036 -0.712,0.137c-0.195,0.101 -0.376,0.269 -0.544,0.506l-2.254,3.142l2.316,4.634c0.123,0.238 0.247,0.404 0.375,0.496c0.127,0.093 0.284,0.144 0.471,0.151l0.867,0.03l-0.015,0.448l-4.338,-0.153l0.016,-0.447l0.839,0.029c0.131,0.004 0.228,-0.021 0.29,-0.074c0.062,-0.054 0.096,-0.122 0.098,-0.206c0.002,-0.057 -0.004,-0.118 -0.021,-0.184c-0.017,-0.065 -0.038,-0.123 -0.064,-0.171l-1.674,-3.363l-1.696,2.39c-0.246,0.347 -0.373,0.636 -0.38,0.869c-0.007,0.168 0.03,0.314 0.11,0.438c0.079,0.124 0.203,0.19 0.371,0.195l0.756,0.027l-0.016,0.448l-3.777,-0.134l0.015,-0.447Z"
              style="fill-rule:nonzero;"/>
        <path d="M595.481,970.69c-0.162,-0.164 -0.242,-0.373 -0.24,-0.625c0.003,-0.252 0.086,-0.459 0.251,-0.62c0.164,-0.163 0.373,-0.243 0.625,-0.24c0.252,0.002 0.459,0.086 0.62,0.25c0.162,0.165 0.243,0.374 0.241,0.625c-0.003,0.252 -0.087,0.459 -0.251,0.621c-0.165,0.163 -0.373,0.241 -0.625,0.24c-0.252,-0.003 -0.459,-0.087 -0.621,-0.251"
              style="fill-rule:nonzero;"/>
        <path d="M603.098,965.626c-0.09,-0.23 -0.202,-0.389 -0.334,-0.475c-0.134,-0.085 -0.303,-0.124 -0.508,-0.119l-0.882,0.024l-0.011,-0.449l4.478,-0.118l0.012,0.448l-0.924,0.025c-0.131,0.003 -0.242,0.04 -0.333,0.113c-0.091,0.072 -0.136,0.155 -0.133,0.249c0.002,0.102 0.024,0.204 0.064,0.306l2.572,6.667l1.696,-5.73c0.103,-0.367 0.15,-0.69 0.142,-0.97c-0.005,-0.197 -0.063,-0.367 -0.174,-0.514c-0.112,-0.146 -0.298,-0.216 -0.559,-0.209l-0.756,0.021l-0.011,-0.449l3.778,-0.1l0.012,0.448l-0.518,0.014c-0.326,0.008 -0.576,0.11 -0.748,0.306c-0.172,0.197 -0.305,0.446 -0.4,0.747l-2.609,8.822l-0.35,0.008l-3.504,-9.065Z"
              style="fill-rule:nonzero;"/>
        <path d="M615.543,973.724l1.007,-0.049c0.252,-0.011 0.371,-0.143 0.36,-0.394l-0.394,-8.307c-0.007,-0.13 -0.042,-0.225 -0.105,-0.282c-0.064,-0.058 -0.161,-0.083 -0.291,-0.077l-1.007,0.047l-0.022,-0.447l4.056,-0.192l0.021,0.447l-1.006,0.047c-0.131,0.007 -0.225,0.042 -0.283,0.104c-0.058,0.065 -0.083,0.162 -0.077,0.291l0.394,8.307c0.012,0.252 0.144,0.371 0.396,0.36l1.007,-0.048l0.021,0.448l-4.056,0.192l-0.021,-0.447Z"
              style="fill-rule:nonzero;"/>
        <path d="M623.948,973.273l1.006,-0.07c0.251,-0.017 0.368,-0.152 0.35,-0.403l-0.578,-8.296c-0.009,-0.129 -0.047,-0.223 -0.111,-0.28c-0.065,-0.055 -0.163,-0.079 -0.293,-0.07l-1.006,0.07l-0.031,-0.447l4.051,-0.283l0.03,0.447l-1.004,0.071c-0.131,0.009 -0.225,0.045 -0.281,0.11c-0.056,0.065 -0.08,0.162 -0.07,0.293l0.579,8.296c0.017,0.25 0.151,0.367 0.403,0.35l1.005,-0.07l0.032,0.447l-4.05,0.282l-0.032,-0.447Z"
              style="fill-rule:nonzero;"/>
        <path d="M632.487,969.251c-0.177,-0.147 -0.277,-0.347 -0.3,-0.599c-0.022,-0.25 0.04,-0.463 0.189,-0.642c0.147,-0.176 0.347,-0.277 0.598,-0.299c0.251,-0.023 0.465,0.04 0.642,0.187c0.178,0.149 0.278,0.348 0.3,0.599c0.023,0.251 -0.04,0.465 -0.188,0.643c-0.148,0.177 -0.347,0.277 -0.598,0.299c-0.251,0.023 -0.466,-0.04 -0.643,-0.188"
              style="fill-rule:nonzero;"/>
        <path d="M640.178,963.566l-0.083,0.01l0.843,7.091c0.041,0.341 0.155,0.602 0.34,0.783c0.186,0.179 0.409,0.254 0.668,0.223l0.501,-0.059l0.053,0.445l-3.309,0.394l-0.053,-0.446l0.501,-0.059c0.259,-0.031 0.458,-0.155 0.597,-0.374c0.138,-0.219 0.187,-0.5 0.147,-0.841l-0.895,-7.522c-0.016,-0.129 -0.058,-0.221 -0.125,-0.274c-0.067,-0.054 -0.166,-0.072 -0.296,-0.057l-1,0.12l-0.054,-0.446l2.947,-0.349l3.178,7.389l1.201,-7.912l2.879,-0.342l0.052,0.445l-1,0.119c-0.131,0.016 -0.222,0.057 -0.275,0.125c-0.053,0.066 -0.071,0.166 -0.057,0.295l0.983,8.259c0.03,0.25 0.17,0.359 0.421,0.33l1.001,-0.118l0.053,0.443l-4.032,0.479l-0.053,-0.444l1.001,-0.119c0.25,-0.03 0.36,-0.17 0.33,-0.419l-0.976,-8.203l-1.45,9.491l-0.334,0.04l-3.704,-8.497Z"
              style="fill-rule:nonzero;"/>
        <path d="M654.434,961.704l-0.083,0.013l1.122,7.052c0.054,0.34 0.177,0.598 0.371,0.77c0.193,0.173 0.418,0.239 0.676,0.197l0.498,-0.078l0.07,0.442l-3.291,0.523l-0.07,-0.442l0.498,-0.08c0.258,-0.041 0.452,-0.173 0.582,-0.397c0.129,-0.224 0.167,-0.506 0.113,-0.847l-1.19,-7.481c-0.021,-0.128 -0.066,-0.218 -0.135,-0.269c-0.07,-0.049 -0.169,-0.065 -0.298,-0.045l-0.995,0.16l-0.071,-0.444l2.932,-0.466l3.465,7.26l0.89,-7.953l2.862,-0.455l0.07,0.442l-0.995,0.159c-0.129,0.021 -0.219,0.066 -0.27,0.134c-0.05,0.071 -0.064,0.169 -0.044,0.299l1.306,8.213c0.04,0.249 0.184,0.354 0.433,0.314l0.995,-0.159l0.071,0.443l-4.01,0.638l-0.07,-0.443l0.995,-0.158c0.249,-0.04 0.354,-0.184 0.314,-0.433l-1.297,-8.158l-1.077,9.543l-0.331,0.052l-4.036,-8.346Z"
              style="fill-rule:nonzero;"/>
        <path d="M668.019,967.814l0.426,-0.085c0.302,-0.06 0.541,-0.189 0.715,-0.391c0.174,-0.201 0.328,-0.467 0.463,-0.798l1.632,-3.935l-2.797,-3.385c-0.188,-0.23 -0.364,-0.385 -0.528,-0.467c-0.163,-0.082 -0.396,-0.092 -0.698,-0.034l-0.838,0.166l-0.087,-0.439l4.257,-0.843l0.087,0.439l-0.824,0.164c-0.164,0.032 -0.233,0.117 -0.206,0.254c0.011,0.056 0.032,0.114 0.063,0.173c0.031,0.062 0.07,0.116 0.118,0.163l2.027,2.454l0.918,-2.209c0.128,-0.312 0.168,-0.59 0.12,-0.838c-0.031,-0.156 -0.12,-0.278 -0.266,-0.369c-0.146,-0.089 -0.321,-0.114 -0.522,-0.074l-0.425,0.083l-0.087,-0.439l3.708,-0.734l0.087,0.44l-0.618,0.122c-0.275,0.054 -0.496,0.153 -0.663,0.296c-0.166,0.141 -0.304,0.347 -0.413,0.616l-1.475,3.575l3.315,3.982c0.174,0.205 0.332,0.337 0.478,0.397c0.145,0.063 0.309,0.075 0.493,0.039l0.852,-0.169l0.087,0.44l-4.258,0.843l-0.087,-0.44l0.824,-0.162c0.128,-0.026 0.216,-0.072 0.265,-0.139c0.049,-0.067 0.065,-0.141 0.048,-0.223c-0.01,-0.056 -0.031,-0.114 -0.062,-0.173c-0.031,-0.061 -0.065,-0.112 -0.102,-0.152l-2.399,-2.893l-1.104,2.717c-0.16,0.393 -0.217,0.704 -0.171,0.932c0.032,0.166 0.101,0.299 0.207,0.403c0.106,0.102 0.241,0.136 0.406,0.103l0.742,-0.145l0.087,0.439l-3.708,0.734l-0.087,-0.439Z"
              style="fill-rule:nonzero;"/>
        <path d="M855.815,391.074c0.001,-1.176 0.325,-2.316 0.972,-3.425c0.647,-1.108 1.505,-2.091 2.577,-2.947c1.105,-0.883 2.273,-1.513 3.505,-1.888c1.233,-0.375 2.405,-0.439 3.518,-0.191c1.113,0.249 2.04,0.838 2.783,1.767c0.324,0.405 0.555,0.834 0.694,1.288c0.138,0.454 0.23,0.977 0.273,1.57c0.037,0.383 0.103,0.634 0.2,0.754c0.069,0.087 0.151,0.139 0.244,0.154c0.093,0.016 0.212,0.001 0.356,-0.043l0.842,-0.189l0.433,0.542l-5.035,4.025l-0.42,-0.525c1.21,-1.379 1.988,-2.715 2.336,-4.005c0.348,-1.291 0.2,-2.342 -0.447,-3.151c-0.412,-0.514 -1.006,-0.742 -1.784,-0.684c-0.779,0.058 -1.715,0.524 -2.808,1.398l-4.921,3.933c-1.083,0.866 -1.724,1.696 -1.921,2.491c-0.198,0.794 -0.084,1.459 0.345,1.995c1.04,1.301 2.41,1.793 4.109,1.475c0.833,-0.148 1.835,-0.598 3.004,-1.354l0.473,0.591c-0.508,0.353 -1.051,0.664 -1.629,0.94c-0.578,0.273 -1.122,0.461 -1.632,0.563c-0.927,0.187 -1.808,0.132 -2.642,-0.16c-0.834,-0.292 -1.57,-0.837 -2.208,-1.636c-0.813,-1.017 -1.219,-2.112 -1.217,-3.288"
              style="fill-rule:nonzero;"/>
        <path d="M870.267,409.362c0.771,0.01 1.744,-0.403 2.919,-1.24l5.132,-3.655c1.175,-0.834 1.884,-1.62 2.128,-2.351c0.243,-0.732 0.117,-1.446 -0.377,-2.142c-0.496,-0.696 -1.13,-1.049 -1.901,-1.058c-0.772,-0.009 -1.745,0.405 -2.919,1.241l-5.132,3.653c-1.175,0.838 -1.884,1.621 -2.128,2.354c-0.243,0.732 -0.117,1.444 0.378,2.141c0.495,0.696 1.129,1.048 1.9,1.057m-3.313,-3.803c0.048,-1.211 0.399,-2.401 1.053,-3.572c0.653,-1.169 1.522,-2.141 2.606,-2.911c1.083,-0.772 2.284,-1.276 3.604,-1.509c1.319,-0.235 2.559,-0.177 3.72,0.173c1.16,0.351 2.054,0.966 2.679,1.844c0.625,0.879 0.914,1.924 0.865,3.134c-0.048,1.212 -0.399,2.403 -1.053,3.573c-0.653,1.17 -1.522,2.14 -2.605,2.912c-1.084,0.772 -2.285,1.274 -3.604,1.51c-1.32,0.234 -2.56,0.175 -3.721,-0.175c-1.16,-0.351 -2.053,-0.966 -2.678,-1.843c-0.626,-0.879 -0.914,-1.924 -0.866,-3.136"
              style="fill-rule:nonzero;"/>
        <path d="M885.759,419.889c0.395,0.627 0.901,0.921 1.521,0.879c0.619,-0.041 1.342,-0.323 2.171,-0.845c0.807,-0.507 1.333,-1.011 1.58,-1.513c0.246,-0.502 0.172,-1.068 -0.223,-1.696l-0.481,-0.764c-0.096,-0.156 -0.195,-0.246 -0.295,-0.274c-0.101,-0.028 -0.233,0.011 -0.399,0.115l-4.623,2.906l0.749,1.192Zm-5.422,6.446c0.171,-0.726 0.694,-1.366 1.571,-1.918l2.205,-1.385c0.569,-0.359 0.962,-0.8 1.178,-1.325c0.216,-0.523 0.141,-1.077 -0.223,-1.656l-0.626,-0.996l-5.477,3.442c-0.154,0.097 -0.243,0.198 -0.267,0.304c-0.024,0.107 0.012,0.237 0.109,0.392l0.983,1.564l-0.569,0.357l-3.956,-6.293l0.569,-0.359l0.782,1.245c0.105,0.166 0.208,0.258 0.31,0.277c0.103,0.018 0.231,-0.021 0.385,-0.118l10.667,-6.706c0.167,-0.105 0.26,-0.205 0.282,-0.301c0.022,-0.097 -0.019,-0.228 -0.123,-0.394l-0.782,-1.245l0.569,-0.356l3.621,5.759c0.804,1.28 1.171,2.489 1.1,3.625c-0.072,1.136 -0.587,2.006 -1.547,2.609c-0.818,0.514 -1.652,0.62 -2.502,0.32c-0.851,-0.301 -1.645,-0.905 -2.381,-1.813l-0.124,0.078c0.415,1.028 0.532,1.945 0.354,2.754c-0.179,0.805 -0.79,1.537 -1.833,2.193l-1.974,1.241c-0.498,0.313 -0.642,0.634 -0.433,0.968c0.194,0.307 0.59,0.372 1.189,0.193c0.599,-0.177 1.265,-0.497 2.001,-0.96l0.358,0.57c-1.15,0.722 -2.14,1.129 -2.967,1.218c-0.828,0.09 -1.491,-0.259 -1.991,-1.054c-0.476,-0.759 -0.63,-1.502 -0.458,-2.23"
              style="fill-rule:nonzero;"/>
        <path d="M890.501,442.011c0.765,0.098 1.779,-0.202 3.042,-0.899l5.516,-3.043c1.262,-0.698 2.056,-1.395 2.381,-2.095c0.326,-0.699 0.283,-1.423 -0.129,-2.17c-0.413,-0.748 -1.002,-1.172 -1.767,-1.268c-0.766,-0.097 -1.78,0.203 -3.042,0.9l-5.516,3.043c-1.262,0.696 -2.057,1.394 -2.382,2.094c-0.326,0.699 -0.283,1.422 0.13,2.17c0.413,0.747 1.001,1.17 1.767,1.268m-2.857,-4.155c0.187,-1.199 0.671,-2.342 1.454,-3.429c0.783,-1.089 1.757,-1.953 2.921,-2.597c1.165,-0.641 2.416,-1.004 3.753,-1.087c1.338,-0.083 2.563,0.118 3.676,0.599c1.113,0.48 1.929,1.192 2.451,2.137c0.521,0.943 0.687,2.014 0.502,3.213c-0.187,1.198 -0.671,2.341 -1.455,3.428c-0.782,1.088 -1.756,1.953 -2.92,2.596c-1.165,0.643 -2.416,1.005 -3.754,1.088c-1.337,0.082 -2.563,-0.117 -3.675,-0.599c-1.113,-0.481 -1.93,-1.194 -2.451,-2.136c-0.521,-0.945 -0.688,-2.016 -0.502,-3.213"
              style="fill-rule:nonzero;"/>
        <path d="M905.594,450.229l-0.037,-0.075l-7.218,3.449c-0.581,0.278 -0.948,0.729 -1.099,1.353c-0.152,0.624 -0.063,1.282 0.27,1.977l-0.606,0.29l-2.645,-5.533l0.606,-0.289c0.332,0.694 0.788,1.179 1.369,1.452c0.58,0.273 1.161,0.271 1.742,-0.008l8.091,-3.867c0.139,-0.065 0.234,-0.128 0.285,-0.183c0.051,-0.054 0.118,-0.157 0.202,-0.306l0.775,-1.302c0.129,-0.216 0.192,-0.417 0.189,-0.602c-0.003,-0.184 -0.074,-0.422 -0.213,-0.712l-0.163,-0.34l0.607,-0.29l2.01,4.205l-5.76,10.201l6.082,-2.906c0.58,-0.279 0.947,-0.728 1.099,-1.352c0.152,-0.624 0.062,-1.283 -0.27,-1.977l0.606,-0.29l2.644,5.532l-0.606,0.29c-0.332,-0.695 -0.788,-1.179 -1.368,-1.451c-0.581,-0.275 -1.162,-0.272 -1.743,0.005l-11.254,5.379l-0.345,-0.719l6.75,-11.931Z"
              style="fill-rule:nonzero;"/>
        <path d="M908.271,470.895l1.473,3.595l4.62,-3.958l-6.093,0.363Zm-5.37,-2.36l0.27,0.66c0.16,0.388 0.452,0.669 0.879,0.843c0.427,0.172 0.892,0.248 1.396,0.222l13.67,-0.813l0.334,0.816l-10.868,9.31c-0.57,0.491 -0.744,1.01 -0.521,1.553l0.318,0.778l-0.622,0.254l-2.795,-6.821l0.622,-0.254l0.574,1.399c0.064,0.155 0.177,0.257 0.34,0.304c0.162,0.046 0.328,0.035 0.496,-0.035c0.143,-0.058 0.315,-0.173 0.517,-0.346l1.61,-1.387l-1.672,-4.081l-1.353,0.078c-0.421,0.007 -0.781,0.07 -1.078,0.192c-0.234,0.096 -0.399,0.274 -0.497,0.534c-0.098,0.259 -0.086,0.538 0.036,0.836l0.375,0.913l-0.622,0.255l-2.031,-4.954l0.622,-0.255Z"
              style="fill-rule:nonzero;"/>
        <path d="M910.742,488.449l0.552,1.587c0.064,0.185 0.144,0.299 0.24,0.34c0.095,0.041 0.229,0.031 0.401,-0.029l11.703,-4.068c0.212,-0.073 0.354,-0.197 0.428,-0.37c0.072,-0.174 0.07,-0.373 -0.008,-0.598c-0.216,-0.621 -0.754,-1.072 -1.615,-1.351c-0.86,-0.279 -1.79,-0.386 -2.79,-0.32c-0.539,0.026 -0.988,0.067 -1.346,0.123c-0.358,0.059 -0.58,0.094 -0.663,0.109l-0.221,-0.635l5.967,-1.895l4.136,11.901l-5.856,2.214l-0.22,-0.635c0.074,-0.041 0.27,-0.149 0.586,-0.326c0.317,-0.177 0.694,-0.424 1.134,-0.738c0.824,-0.57 1.488,-1.23 1.99,-1.983c0.501,-0.752 0.645,-1.438 0.428,-2.059c-0.078,-0.226 -0.2,-0.384 -0.365,-0.475c-0.164,-0.091 -0.353,-0.1 -0.564,-0.025l-11.704,4.067c-0.171,0.06 -0.281,0.139 -0.329,0.236c-0.047,0.098 -0.041,0.234 0.019,0.406l0.552,1.586l-0.635,0.221l-2.455,-7.062l0.635,-0.221Z"
              style="fill-rule:nonzero;"/>
        <path d="M296.167,468.18l0.611,-1.337c0.081,-0.179 0.1,-0.315 0.06,-0.411c-0.041,-0.096 -0.144,-0.182 -0.309,-0.257l-11.461,-5.235c-0.178,-0.082 -0.313,-0.106 -0.407,-0.071c-0.092,0.035 -0.179,0.141 -0.26,0.319l-0.612,1.338l-0.611,-0.281l4.922,-10.772l5.302,2.238l-0.277,0.612c-0.103,-0.047 -0.476,-0.141 -1.12,-0.281c-0.643,-0.139 -1.223,-0.204 -1.735,-0.193c-0.696,0.007 -1.35,0.142 -1.965,0.407c-0.614,0.268 -1.049,0.68 -1.304,1.24l-0.89,1.949c-0.076,0.165 -0.098,0.297 -0.067,0.397c0.032,0.1 0.137,0.189 0.316,0.271l5.272,2.408l0.445,-0.974c0.156,-0.344 0.162,-0.726 0.015,-1.148c-0.147,-0.42 -0.387,-0.811 -0.723,-1.172c-0.334,-0.361 -0.686,-0.627 -1.056,-0.795l0.28,-0.611l5.978,2.731l-0.28,0.611c-0.381,-0.174 -0.818,-0.27 -1.311,-0.287c-0.493,-0.017 -0.946,0.057 -1.359,0.222c-0.415,0.164 -0.7,0.419 -0.857,0.763l-0.446,0.974l5.502,2.513c0.165,0.076 0.3,0.095 0.401,0.057c0.102,-0.039 0.192,-0.141 0.267,-0.307l0.794,-1.737l0.612,0.279l-3.116,6.819l-0.611,-0.279Z"
              style="fill-rule:nonzero;"/>
        <path d="M303.903,451.762l0.674,-1.307c0.089,-0.173 0.116,-0.308 0.079,-0.408c-0.035,-0.096 -0.135,-0.187 -0.296,-0.27l-11.203,-5.771c-0.173,-0.089 -0.308,-0.119 -0.402,-0.089c-0.095,0.031 -0.187,0.132 -0.276,0.307l-0.673,1.308l-0.598,-0.309l3.231,-6.273l0.598,0.308l-0.674,1.308c-0.082,0.161 -0.111,0.292 -0.084,0.393c0.027,0.1 0.127,0.196 0.303,0.285l11.2,5.77c0.162,0.083 0.294,0.108 0.399,0.075c0.103,-0.033 0.196,-0.13 0.28,-0.292l0.674,-1.306l0.596,0.306l-3.23,6.273l-0.598,-0.308Z"
              style="fill-rule:nonzero;"/>
        <path d="M302.886,432.025l-0.043,0.072l6.906,4.041c0.556,0.325 1.135,0.377 1.737,0.153c0.601,-0.224 1.096,-0.668 1.484,-1.333l0.581,0.338l-3.097,5.293l-0.581,-0.338c0.389,-0.665 0.534,-1.315 0.435,-1.949c-0.1,-0.634 -0.427,-1.113 -0.983,-1.439l-7.739,-4.529c-0.133,-0.078 -0.236,-0.122 -0.311,-0.133c-0.075,-0.01 -0.198,-0.01 -0.368,0.004l-1.512,0.089c-0.251,0.014 -0.453,0.075 -0.604,0.181c-0.152,0.106 -0.308,0.298 -0.471,0.575l-0.192,0.327l-0.579,-0.338l2.354,-4.026l11.678,-0.951l-5.818,-3.405c-0.556,-0.325 -1.135,-0.376 -1.737,-0.152c-0.601,0.223 -1.096,0.668 -1.485,1.333l-0.58,-0.34l3.097,-5.292l0.581,0.339c-0.39,0.665 -0.535,1.314 -0.435,1.948c0.099,0.634 0.427,1.114 0.983,1.438l10.765,6.301l-0.403,0.688l-13.663,1.105Z"
              style="fill-rule:nonzero;"/>
        <path d="M320.343,422.738l0.8,-1.234c0.108,-0.164 0.147,-0.297 0.12,-0.398c-0.026,-0.1 -0.115,-0.2 -0.268,-0.3l-10.575,-6.851c-0.164,-0.107 -0.295,-0.15 -0.391,-0.129c-0.097,0.021 -0.199,0.113 -0.306,0.277l-0.8,1.235l-0.562,-0.366l3.836,-5.922l0.564,0.366l-0.799,1.234c-0.099,0.152 -0.14,0.279 -0.124,0.383c0.018,0.102 0.108,0.207 0.273,0.313l10.573,6.853c0.153,0.099 0.283,0.137 0.389,0.114c0.106,-0.022 0.209,-0.11 0.309,-0.264l0.799,-1.233l0.564,0.365l-3.838,5.922l-0.564,-0.365Z"
              style="fill-rule:nonzero;"/>
        <path d="M330.833,408.565c-0.426,0.298 -0.843,0.499 -1.246,0.606c-0.38,0.124 -0.65,0.216 -0.805,0.277c-0.156,0.061 -0.269,0.142 -0.343,0.246c-0.17,0.238 -0.084,0.525 0.263,0.859l0.486,0.477l-0.378,0.529l-5.472,-3.758l0.391,-0.547c0.979,0.46 1.987,0.772 3.022,0.936c1.037,0.164 1.98,0.143 2.836,-0.064c0.852,-0.207 1.503,-0.624 1.95,-1.251c0.645,-0.9 0.885,-1.657 0.723,-2.273c-0.163,-0.614 -0.495,-1.101 -0.995,-1.459c-0.298,-0.213 -0.637,-0.297 -1.022,-0.252c-0.383,0.044 -0.848,0.171 -1.395,0.383l-4.972,1.97c-0.725,0.292 -1.475,0.438 -2.252,0.442c-0.777,0.004 -1.519,-0.246 -2.226,-0.752c-1.103,-0.79 -1.696,-1.699 -1.778,-2.73c-0.08,-1.03 0.216,-2.018 0.892,-2.963c0.579,-0.809 1.441,-1.413 2.589,-1.815c0.393,-0.115 0.641,-0.248 0.748,-0.394c0.145,-0.207 0.105,-0.424 -0.124,-0.658l-0.39,-0.432l0.393,-0.547l4.563,3.005l-0.392,0.546c-0.94,-0.345 -1.867,-0.553 -2.782,-0.621c-0.914,-0.069 -1.738,0.017 -2.471,0.261c-0.731,0.241 -1.293,0.636 -1.685,1.182c-0.431,0.605 -0.631,1.137 -0.599,1.598c0.031,0.461 0.286,0.863 0.764,1.205c0.649,0.465 1.667,0.426 3.052,-0.115l5.001,-1.976c0.641,-0.247 1.329,-0.319 2.063,-0.216c0.736,0.105 1.394,0.364 1.974,0.78c0.593,0.423 1.054,0.968 1.387,1.635c0.331,0.667 0.463,1.407 0.398,2.222c-0.064,0.814 -0.396,1.637 -0.989,2.467c-0.359,0.502 -0.752,0.9 -1.179,1.197"
              style="fill-rule:nonzero;"/>
        <path d="M630.632,835.315c-0.445,-1.096 -0.668,-2.077 -0.668,-2.944c-0,-0.868 0.059,-1.612 0.176,-2.233c0.328,-1.828 1.4,-3.597 3.217,-5.308c0.304,0.808 0.457,1.787 0.457,2.935c-0,1.149 -0.041,3.34 -0.123,6.574c-0.047,1.735 -0.493,3.018 -1.336,3.85c-0.703,-0.82 -1.278,-1.778 -1.723,-2.874m28.38,11.347c0.105,-3.082 1.101,-5.268 2.988,-6.557c-1.535,-0.539 -3.012,-1.186 -4.43,-1.942c-1.417,-0.756 -2.83,-1.515 -4.236,-2.277l-3.515,3.692c-1.032,-0.516 -1.914,-1.087 -2.646,-1.714c-0.732,-0.627 -1.62,-1.286 -2.663,-1.978c-0.342,0.353 -2.159,2.143 -5.438,5.359c-0.03,0 -0.061,0.003 -0.09,0.003c-0.63,0 -1.229,-0.062 -1.805,-0.173c-0.074,-0.313 -0.12,-0.611 -0.12,-0.882c-0,-0.188 0.017,-0.363 0.053,-0.527c0.152,-0.774 1.013,-1.418 2.584,-1.934c-0.065,-0.163 -0.149,-0.366 -0.244,-0.593c0.008,-0.001 0.016,-0.004 0.024,-0.005l-0.141,-14.431c1.406,0.304 2.76,0.726 4.061,1.265c0.504,-1.195 1.406,-3.293 2.707,-6.293c-2.672,0.352 -5.476,0.528 -8.411,0.528c-2.936,0 -6.109,-0.176 -9.519,-0.528l-4.236,6.452c2.953,-1.219 4.886,-1.829 5.801,-1.829c0.644,0 1.253,0.235 1.828,0.704c-3.493,3.199 -6.323,6.287 -8.491,9.263c1.629,5.227 4.202,8.848 7.717,10.863c0.216,0.124 0.438,0.239 0.664,0.343c0.354,0.85 0.955,2.212 1.806,4.087c0.973,2.145 1.459,3.774 1.459,4.887c-0,0.234 -0.024,0.439 -0.07,0.615c-0.293,0.984 -1.741,2.69 -4.342,5.115c2.027,1.055 4.734,2.438 8.121,4.149l2.935,-5.274c-1.968,-0.445 -3.503,-1.066 -4.605,-1.863c1.91,-2.484 3.023,-4.318 3.34,-5.502c0.07,-0.258 0.105,-0.533 0.105,-0.826c-0,-1.078 -0.439,-2.438 -1.318,-4.078l-0.229,-0.404c0.138,-0.134 0.266,-0.255 0.396,-0.378c1.621,-0.33 3.377,-0.89 5.267,-1.678c0.149,0.101 0.294,0.195 0.455,0.315l-0.616,10.881c-0.011,0.879 -0.187,1.758 -0.527,2.637c-0.34,0.879 -0.686,1.523 -1.037,1.933c0.703,0.598 1.453,1.254 2.25,1.969c0.797,0.715 1.512,1.471 2.144,2.268l4.114,-5.01c-1.114,-0.363 -1.67,-1.605 -1.67,-3.727l-0,-0.386l0.193,-6.539c0.047,-1.219 0.073,-2.285 0.079,-3.2c0.006,-0.914 0.232,-1.705 0.677,-2.373c1.172,0.141 2.936,1.073 5.291,2.795c-0.621,0.809 -1.125,1.612 -1.512,2.409c-0.386,0.796 -0.58,1.728 -0.58,2.794l-0.035,4.43l-0,0.492c-0,2.309 0.325,4.117 0.976,5.423c0.65,1.307 1.825,2.271 3.524,2.892l2.795,-5.274c-1.348,-0.41 -2.021,-1.564 -2.021,-3.463l-0,-0.386l0.193,-6.539Z"
              style="fill-rule:nonzero;"/>
        <path d="M580.938,846.168c0.105,-3.082 1.101,-5.268 2.988,-6.557c-1.536,-0.539 -3.012,-1.186 -4.43,-1.942c-1.418,-0.756 -2.83,-1.515 -4.237,-2.276l-3.515,3.691c-1.032,-0.516 -1.913,-1.087 -2.646,-1.714c-0.732,-0.627 -1.62,-1.286 -2.663,-1.977c-0.382,0.393 -2.603,2.581 -6.649,6.546c-0.096,-0.06 -0.19,-0.121 -0.278,-0.188c-0.344,-0.777 -0.526,-1.465 -0.526,-2.052c0,-0.187 0.018,-0.363 0.053,-0.527c0.152,-0.774 1.013,-1.418 2.584,-1.934c-0.164,-0.41 -0.422,-1.025 -0.774,-1.845c-1.607,0.591 -2.945,1.116 -4.022,1.578c-0.297,-0.656 -0.598,-1.31 -0.877,-1.974c-0.815,-1.939 -1.65,-3.876 -2.505,-5.809c1.125,-0.61 3.264,-1.747 6.416,-3.411c-2.742,-1.406 -6.357,-3.275 -10.846,-5.607l-3.304,4.535c-0.61,-1.851 -1.834,-3.363 -3.674,-4.535l-5.854,4.658l0.141,-0c1.242,-0 2.221,0.153 2.935,0.457c1.102,2.731 1.653,5.238 1.653,7.524c0,3.996 -1.612,7.488 -4.834,10.476l8.437,3.322l4.237,-4.904c-0.739,0.199 -1.331,0.299 -1.776,0.299c-0.445,-0 -0.803,-0.047 -1.072,-0.141l-4.676,-1.582c3.246,-5.156 4.869,-9.445 4.869,-12.867c0,-0.187 -0.006,-0.375 -0.017,-0.562l1.67,-2.286c1.804,1.09 3.486,2.081 5.045,2.971c-0.833,0.539 -1.659,1.081 -2.479,1.626c-0.82,0.545 -1.64,1.081 -2.461,1.609c1.764,3.419 3.409,6.91 4.957,10.46c0.067,0.381 0.208,0.849 0.436,1.414c0.322,0.802 0.968,2.276 1.942,4.42c0.972,2.145 1.458,3.774 1.458,4.887c0,0.235 -0.023,0.44 -0.07,0.615c-0.292,0.985 -1.74,2.69 -4.341,5.116c2.027,1.054 4.734,2.437 8.121,4.148l2.936,-5.273c-1.969,-0.446 -3.505,-1.067 -4.606,-1.864c1.909,-2.484 3.024,-4.318 3.34,-5.502c0.069,-0.257 0.105,-0.533 0.105,-0.826c-0,-1.078 -0.44,-2.437 -1.318,-4.078l-0.229,-0.404c1.688,-1.629 2.807,-2.567 3.357,-2.813c0.118,-0.047 0.247,-0.07 0.388,-0.07c0.562,-0 1.352,0.381 2.373,1.143l-0.617,10.88c-0.011,0.879 -0.187,1.758 -0.527,2.637c-0.34,0.879 -0.685,1.524 -1.037,1.934c0.703,0.597 1.453,1.254 2.25,1.969c0.798,0.714 1.513,1.47 2.145,2.267l4.114,-5.01c-1.114,-0.363 -1.671,-1.605 -1.671,-3.726l0,-0.387l0.194,-6.539c0.047,-1.219 0.074,-2.285 0.079,-3.199c0.006,-0.914 0.232,-1.705 0.677,-2.373c1.172,0.14 2.936,1.072 5.291,2.795c-0.621,0.808 -1.125,1.611 -1.512,2.408c-0.387,0.797 -0.581,1.728 -0.581,2.795l-0.034,4.429l-0,0.493c-0,2.308 0.324,4.116 0.976,5.423c0.649,1.306 1.824,2.27 3.524,2.891l2.794,-5.273c-1.347,-0.41 -2.02,-1.565 -2.02,-3.463l-0,-0.387l0.192,-6.539Z"
              style="fill-rule:nonzero;"/>
        <path d="M817.545,512.155c-1.289,-1.699 -1.975,-3.475 -2.057,-5.326c-0.023,-0.41 -0.035,-1.017 -0.035,-1.82c0,-0.802 0.097,-1.423 0.29,-1.863c0.194,-0.439 0.51,-0.893 0.949,-1.362c0.44,-0.469 1.011,-0.879 1.714,-1.231c-0.058,1.125 -0.088,2.625 -0.088,4.5c0,1.875 0.176,4.096 0.528,6.663l-1.301,0.439Zm24.996,8.925c0.082,-3.082 1.078,-5.268 2.988,-6.557c-1.558,-0.539 -3.058,-1.186 -4.5,-1.942c-1.441,-0.756 -2.865,-1.515 -4.271,-2.277c-0.914,0.938 -1.966,2.054 -3.155,3.349c-1.19,1.295 -2.324,2.517 -3.402,3.665c-0.527,-1.101 -0.791,-2.033 -0.791,-2.795c0,-0.117 0.006,-0.228 0.018,-0.334c0.094,-0.82 0.961,-1.5 2.601,-2.039c-0.164,-0.41 -0.421,-1.025 -0.773,-1.846c-2.484,0.914 -4.336,1.673 -5.555,2.277c-1.219,0.603 -1.986,1.268 -2.302,1.995c-0.153,0.316 -0.229,0.691 -0.229,1.125c0,0.066 0.011,0.146 0.019,0.223c-1.674,-0.496 -3.11,-1.266 -4.29,-2.328l4.042,-1.476c-0.234,-1.77 -0.369,-3.322 -0.404,-4.658l7.172,0l0,-4.149l-7.26,0c0.035,-1.289 0.106,-2.437 0.211,-3.445c1.746,0.246 3.533,1.002 5.362,2.267l2.988,-3.48c-3.152,-1.09 -5.555,-2.203 -7.207,-3.34l-13.641,7.998c0,5.801 1.339,10.19 4.017,13.166c2.643,2.939 6.415,4.685 11.303,5.247c0.039,0.084 0.074,0.163 0.114,0.25c0.972,2.145 1.459,3.774 1.459,4.887c0,0.234 -0.024,0.439 -0.071,0.615c-0.293,0.985 -1.74,2.69 -4.341,5.115c2.027,1.055 4.734,2.438 8.121,4.149l2.935,-5.274c-1.968,-0.445 -3.504,-1.066 -4.605,-1.863c1.91,-2.484 3.023,-4.318 3.34,-5.502c0.07,-0.258 0.105,-0.533 0.105,-0.826c0,-1.078 -0.439,-2.437 -1.318,-4.078l-0.018,-0.053c1.594,-1.465 3.053,-2.197 4.377,-2.197c1.172,0 2.367,0.451 3.586,1.353c-0.609,0.809 -1.104,1.612 -1.485,2.409c-0.381,0.797 -0.572,1.728 -0.572,2.795l-0.052,4.429l0,0.369c0,2.368 0.328,4.21 0.984,5.529c0.656,1.318 1.834,2.288 3.533,2.909c0.891,-1.758 1.817,-3.516 2.778,-5.274c-1.36,-0.421 -2.039,-1.582 -2.039,-3.48l0,-0.369l0.228,-6.539Z"
              style="fill-rule:nonzero;"/>
        <path d="M802.52,445.529c0.082,-3.082 1.078,-5.268 2.988,-6.557c-1.558,-0.539 -3.058,-1.186 -4.5,-1.942c-1.441,-0.756 -2.865,-1.515 -4.271,-2.276c-0.914,0.937 -1.966,2.053 -3.155,3.348c-1.19,1.295 -2.324,2.517 -3.402,3.665c-0.527,-1.101 -0.791,-2.033 -0.791,-2.795c-0,-0.117 0.006,-0.228 0.018,-0.334c0.093,-0.82 0.961,-1.5 2.601,-2.039c-0.164,-0.41 -0.422,-1.025 -0.773,-1.845c-2.018,0.742 -3.611,1.379 -4.794,1.918c-1.701,-2.041 -3.481,-3.922 -5.358,-5.607l-6.416,4.026l0.018,-4.799c-0.012,-0.117 -0.018,-0.334 -0.018,-0.651c-0,-0.316 0.15,-0.662 0.449,-1.037c0.299,-0.375 0.638,-0.562 1.019,-0.562c0.381,0 0.815,0.058 1.301,0.175c0.486,0.118 1.055,0.343 1.705,0.677c0.65,0.334 1.351,0.583 2.101,0.747l4.886,-3.392c-2.437,-0.563 -4.998,-1.448 -7.681,-2.655c-3.176,1.747 -6.492,3.592 -9.949,5.538c0.679,2.894 1.019,5.856 1.019,8.885c-0,3.03 -0.41,6.126 -1.23,9.29c2.203,1.125 4.839,2.034 7.91,2.725l3.867,-5.326c-0.949,-0.012 -1.761,-0.126 -2.435,-0.343c-0.673,-0.217 -1.213,-0.396 -1.617,-0.536c-0.404,-0.141 -0.738,-0.284 -1.002,-0.431c-0.263,-0.146 -0.384,-0.454 -0.36,-0.923l0.017,-5.291c0.411,-0.269 0.715,-0.463 0.915,-0.58c0.738,-0.445 1.429,-0.668 2.074,-0.668c1.078,0 2.015,0.633 2.812,1.899c1.278,2.004 2.028,3.495 2.25,4.473c0.223,0.979 0.334,1.849 0.334,2.611c-0,1.711 -0.445,3.427 -1.336,5.15c-1.289,2.484 -3.568,4.125 -6.838,4.922c0.317,0.269 0.621,0.542 0.914,0.817c0.293,0.276 0.633,0.563 1.02,0.862c0.387,0.299 0.82,0.448 1.301,0.448c0.808,0 1.658,-0.486 2.549,-1.459c2.027,-2.238 3.691,-4.685 4.992,-7.339c0.131,-0.267 0.252,-0.538 0.38,-0.807c0.654,1.608 1,2.887 1,3.801c-0,0.235 -0.024,0.44 -0.071,0.615c-0.293,0.985 -1.74,2.69 -4.341,5.116c2.027,1.054 4.734,2.437 8.121,4.148l2.935,-5.273c-1.969,-0.446 -3.504,-1.067 -4.605,-1.864c1.91,-2.484 3.023,-4.318 3.34,-5.502c0.07,-0.257 0.105,-0.533 0.105,-0.826c-0,-1.078 -0.439,-2.437 -1.318,-4.078l-0.018,-0.053c1.594,-1.464 3.053,-2.197 4.377,-2.197c1.172,0 2.367,0.451 3.586,1.354c-0.609,0.808 -1.104,1.611 -1.485,2.408c-0.381,0.797 -0.572,1.728 -0.572,2.795l-0.052,4.429l-0,0.37c-0,2.367 0.328,4.21 0.984,5.528c0.656,1.318 1.834,2.288 3.533,2.909c0.891,-1.758 1.817,-3.516 2.778,-5.273c-1.36,-0.422 -2.04,-1.582 -2.04,-3.481l-0,-0.369l0.229,-6.539Z"
              style="fill-rule:nonzero;"/>
        <path d="M325.828,740.207c-0.086,-0.377 -0.642,-0.33 -0.66,0.056c-0.479,10.052 -3.385,29.461 -4.946,39.369c-2.162,-1.013 -4.591,-1.917 -7.237,-2.696c-0.786,-9.207 -3.347,-38.315 -5.135,-48.391c-0.07,-0.399 -0.652,-0.34 -0.659,0.065c-0.324,17.325 -3.426,36.948 -5.03,46.039c-2.494,-0.346 -5.09,-0.593 -7.764,-0.735c-1.273,-9.685 -3.718,-30.294 -4.9,-53.597c-0.022,-0.421 -0.638,-0.424 -0.663,-0.003c-1.394,23.226 -3.714,43.897 -4.896,53.604c-2.605,0.139 -5.136,0.379 -7.569,0.713c-1.523,-9.826 -4.679,-31.56 -5.132,-45.709c-0.013,-0.405 -0.597,-0.443 -0.66,-0.042c-1.648,10.452 -4.311,38.952 -5.143,48.051c-2.653,0.781 -5.088,1.686 -7.255,2.701c-1.561,-9.908 -4.467,-29.317 -4.947,-39.369c-0.019,-0.386 -0.573,-0.433 -0.66,-0.056c-5.076,22.09 -5.392,48.1 -5.412,51.263c-0.001,0.178 0.127,0.322 0.307,0.331c3.453,0.18 34.9,3.456 41.403,62.762c0.043,0.394 0.617,0.394 0.66,-0c6.504,-59.306 37.951,-62.582 41.404,-62.762c0.178,-0.009 0.308,-0.153 0.307,-0.331c-0.02,-3.163 -0.337,-29.173 -5.413,-51.263"
              style="fill-rule:nonzero;"/>
        <path d="M600,201.904c-28.735,0 -52.128,13.728 -64.181,37.664l-4.38,8.698c-0.937,1.86 -0.842,4.073 0.25,5.846c1.093,1.772 3.026,2.853 5.109,2.853l9.739,0c3.374,0 5.155,1.146 9.81,4.461c7.543,5.371 18.939,13.486 43.653,13.486c24.694,0 36.083,-8.054 43.62,-13.384c4.662,-3.297 6.447,-4.437 9.843,-4.437l9.708,0c2.079,0 4.011,-1.077 5.104,-2.846c1.093,-1.769 1.192,-3.978 0.263,-5.837l-4.342,-8.684c-12.018,-24.035 -35.417,-37.82 -64.196,-37.82m0,6c26.423,0 47.866,12.576 58.83,34.503l4.341,8.684l-9.708,0c-5.475,0 -8.591,2.203 -13.308,5.539c-7.33,5.183 -17.369,12.282 -40.155,12.282c-22.797,0 -32.839,-7.152 -40.172,-12.373c-4.713,-3.357 -7.828,-5.574 -13.291,-5.574l-9.739,0l4.38,-8.699c10.997,-21.838 32.436,-34.362 58.822,-34.362"
              style="fill-rule:nonzero;"/>
        <path d="M600,213.904c-4.843,0 -9.386,0.452 -13.644,1.275c2.936,3.178 4.733,7.423 4.733,12.091c0,9.842 -7.978,17.821 -17.82,17.821c-8.376,0 -15.395,-5.78 -17.305,-13.566c-3.811,4.03 -6.97,8.561 -9.427,13.44c17.821,0 17.821,17.947 53.463,17.947c35.642,0 35.642,-17.821 53.463,-17.821c-8.91,-17.821 -26.732,-31.187 -53.463,-31.187"
              style="fill-rule:nonzero;"/>
        <path d="M383.216,533.958c-0.352,0.809 -1.418,1.676 -3.199,2.602c-0.879,0.457 -1.749,0.685 -2.611,0.685c-0.861,0 -1.708,-0.234 -2.54,-0.703c-1.699,-0.961 -2.548,-2.162 -2.548,-3.604c-0,-0.281 0.035,-0.574 0.105,-0.878c0.398,-1.84 0.964,-3.191 1.696,-4.052c0.733,-0.862 1.743,-1.559 3.033,-2.092c1.289,-0.533 2.326,-0.8 3.111,-0.8c0.785,0 1.447,0.059 1.986,0.176c1.149,1.523 1.723,3.293 1.723,5.309c-0,1.359 -0.252,2.478 -0.756,3.357m-8.887,-15.381c-0.361,-0.28 -0.66,-0.622 -0.878,-1.046c-0.839,-1.607 -1.607,-3.249 -2.329,-4.913c1.498,-0.536 3.119,-0.826 4.887,-0.826c1.793,0 3.387,0.234 4.781,0.703l-6.461,6.082Zm13.176,1.424c-1.019,-1.922 -3,-3.908 -5.941,-5.959l7.031,-7.523c-1.711,-0.059 -3.428,-0.088 -5.15,-0.088l-4.377,0.052c-2.543,0 -4.969,-0.263 -7.278,-0.791l-1.629,4.72c-0.624,-1.466 -1.248,-2.932 -1.895,-4.394c1.125,-0.61 3.263,-1.747 6.416,-3.411c-2.742,-1.406 -6.358,-3.275 -10.846,-5.607l-3.305,4.535c-0.609,-1.851 -1.834,-3.363 -3.673,-4.535l-5.854,4.658l0.141,0c1.242,0 2.22,0.153 2.935,0.457c1.102,2.731 1.653,5.239 1.653,7.524c-0,3.996 -1.612,7.488 -4.834,10.476l8.437,3.322l4.236,-4.904c-0.738,0.199 -1.33,0.299 -1.775,0.299c-0.445,0 -0.803,-0.047 -1.072,-0.141l-4.676,-1.582c3.246,-5.156 4.869,-9.445 4.869,-12.867c-0,-0.187 -0.006,-0.375 -0.017,-0.562l1.669,-2.285c1.805,1.089 3.487,2.08 5.045,2.97c-0.832,0.539 -1.658,1.081 -2.478,1.626c-0.82,0.545 -1.641,1.081 -2.461,1.609c2.648,5.132 5.051,10.412 7.207,15.837c1.008,-0.691 2.019,-1.379 3.032,-2.065c0.845,-0.571 1.688,-1.153 2.529,-1.737c1.501,0.675 2.675,1.336 3.518,1.983c-4.289,2.402 -7.113,5.11 -8.473,8.121c-0.75,1.664 -1.189,3.785 -1.318,6.364c-0.012,0.21 -0.018,0.41 -0.018,0.597c-0,2.227 0.692,3.563 2.075,4.008c1.019,0.316 2.059,0.475 3.12,0.475c1.06,0 2.141,-0.188 3.243,-0.563c2.109,-0.715 4.002,-1.843 5.678,-3.384c1.676,-1.541 3.044,-3.34 4.104,-5.396c1.061,-2.057 1.603,-4.064 1.626,-6.021c0.024,-1.957 -0.474,-3.896 -1.494,-5.818"
              style="fill-rule:nonzero;"/>
        <path d="M427.031,457.389c-0.234,1.406 -1.318,2.268 -3.252,2.584c-0.305,0.047 -0.609,0.07 -0.914,0.07c-1.078,-0 -2.235,-0.363 -3.472,-1.09c-1.236,-0.726 -2.335,-1.529 -3.296,-2.408c1.653,-1.383 3.088,-2.185 4.307,-2.408c-0.164,-1.406 -0.275,-2.818 -0.334,-4.236c1.699,0.281 3.07,0.788 4.113,1.52c1.043,0.733 1.793,1.483 2.25,2.25c0.457,0.768 0.686,1.644 0.686,2.628c0,0.352 -0.029,0.715 -0.088,1.09m-11.707,-4.43c-0.047,0.867 -0.223,1.635 -0.527,2.303c-1.301,-1.441 -1.952,-3.129 -1.952,-5.062c0,-1.782 0.534,-3.387 1.6,-4.817c0.152,-0.223 0.322,-0.416 0.51,-0.58c0.363,0.832 0.539,1.512 0.527,2.039l-0.158,6.117Zm-10.455,-7.246c-1.236,-0.726 -2.335,-1.529 -3.296,-2.408c1.652,-1.383 3.088,-2.186 4.307,-2.408c-0.164,-1.406 -0.276,-2.819 -0.334,-4.237c1.699,0.282 3.07,0.789 4.113,1.521c1.043,0.732 1.793,1.482 2.25,2.25c0.457,0.768 0.685,1.644 0.685,2.628c0,0.343 -0.03,0.696 -0.085,1.06c-0.694,0.708 -1.373,1.484 -2.042,2.3c-0.36,0.133 -0.761,0.24 -1.212,0.314c-0.305,0.047 -0.61,0.07 -0.914,0.07c-1.079,-0 -2.236,-0.363 -3.472,-1.09m-4.069,-5.994c-0.047,0.867 -0.223,1.635 -0.528,2.303c-1.301,-1.442 -1.951,-3.129 -1.951,-5.063c0,-1.781 0.533,-3.386 1.6,-4.816c0.152,-0.223 0.322,-0.416 0.509,-0.58c0.364,0.832 0.539,1.512 0.528,2.039l-0.158,6.117Zm4.834,-9.369c1.558,0.434 2.841,1.043 3.849,1.828c-0.644,0.621 -1.306,1.231 -1.986,1.828c-0.68,0.598 -1.342,1.196 -1.987,1.793c-0.023,-0.621 -0.035,-1.389 -0.035,-2.303c0,-0.914 0.053,-1.962 0.159,-3.146m14.524,13.24c1.559,0.434 2.842,1.043 3.85,1.828c-0.645,0.621 -1.307,1.231 -1.987,1.828c-0.679,0.598 -1.342,1.196 -1.986,1.793c-0.024,-0.621 -0.035,-1.388 -0.035,-2.302c0,-0.914 0.052,-1.963 0.158,-3.147m6.381,2.953l3.972,-3.797c-4.23,-1.089 -7.564,-2.484 -10.001,-4.183c-0.952,0.386 -1.882,0.868 -2.797,1.413c0.038,-0.075 0.082,-0.146 0.12,-0.222c-1.371,-2.297 -3.311,-4.447 -5.819,-6.451l3.973,-3.797c-4.23,-1.09 -7.564,-2.484 -10.002,-4.183c-4.453,1.804 -8.508,5.355 -12.164,10.652c-0.047,0.48 -0.07,0.955 -0.07,1.424c0,6.41 3.926,11.197 11.777,14.361c0.971,-0.448 1.882,-0.958 2.766,-1.496c-0.004,0.124 -0.019,0.252 -0.019,0.375c0,6.41 3.926,11.197 11.777,14.361c5.532,-2.554 9.633,-6.556 12.305,-12.006c-1.371,-2.296 -3.31,-4.447 -5.818,-6.451"
              style="fill-rule:nonzero;"/>
        <path d="M947.854,801.016c-1,3.412 -2.15,5.344 -2.833,6.278c-0.333,0.456 -0.863,0.718 -1.429,0.718l-10.057,-0c-0.451,-0 -0.886,-0.172 -1.215,-0.479l-54.054,-50.562c-0.894,-0.837 -0.683,-2.287 0.39,-2.877c2.26,-1.242 4.205,-1.472 6.538,-0.812c2.797,0.791 55.657,33.226 62.91,37.682c0.527,0.323 0.842,0.887 0.842,1.505c0.002,1.69 -0.125,5.251 -1.092,8.547m-48.439,6.054c-5.674,2.335 -11.711,3.037 -13.732,3.216c-0.451,0.04 -0.893,-0.095 -1.249,-0.375l-7.084,-5.577c-0.484,-0.38 -0.749,-0.983 -0.672,-1.594c0.492,-3.892 3.532,-9.392 5.229,-12.216c0.578,-0.962 1.888,-1.149 2.718,-0.392l15.328,13.968c0.971,0.885 0.676,2.47 -0.538,2.97m24.756,-50.902c2.247,-0.778 5.284,-1.608 8.018,-1.608c3.227,-0 5.359,0.78 6.501,1.364c0.624,0.319 0.983,0.993 0.934,1.694l-0.575,8.1c-0.094,1.333 -1.571,2.09 -2.709,1.387l-12.521,-7.743c-1.276,-0.788 -1.065,-2.702 0.352,-3.194m30.248,-10.652c-0.202,-1.478 -1.334,-2.659 -2.805,-2.9c-14.019,-2.299 -66.258,-0.285 -79.466,0.271c-1.74,0.074 -3.142,1.441 -3.267,3.179l-5.122,71.554c-0.134,1.867 1.254,3.498 3.118,3.658c6.689,0.576 23.159,1.733 47.501,1.733c23.65,-0 38.155,-1.093 44.266,-1.683c1.873,-0.181 3.24,-1.835 3.069,-3.709c-1.157,-12.669 -5.323,-57.753 -7.294,-72.103"
              style="fill-rule:nonzero;"/>
        <path d="M402.761,731.881l-5.291,-1.723l0.369,-9.685l0,-0.492c0,-0.235 -0.017,-0.551 -0.053,-0.95c1.043,-1.078 1.785,-1.617 2.224,-1.617c0.439,-0 0.776,0.223 1.011,0.668c1.453,2.813 2.467,5.449 3.041,7.91c0.152,0.692 0.228,1.348 0.228,1.969c0,1.559 -0.509,2.865 -1.529,3.92m-20.099,-26.345c0.504,-0.293 0.885,-0.504 1.143,-0.633c-0.106,0.75 -0.158,1.489 -0.158,2.215l0.263,4.096c0,0.633 -0.126,1.521 -0.378,2.663c-0.251,1.143 -0.676,1.931 -1.274,2.364c0.07,-0.492 0.106,-1.101 0.106,-1.828c0,-0.726 -0.112,-1.582 -0.334,-2.566c-0.575,-2.414 -0.862,-3.774 -0.862,-4.078c0,-0.891 0.498,-1.635 1.494,-2.233m24.775,11.298c-1.102,-1.992 -2.602,-4.014 -4.5,-6.064l-5.555,6.275c-0.457,-1.289 -1.295,-2.496 -2.514,-3.621c-0.503,-0.469 -0.755,-0.961 -0.755,-1.477c0,-0.515 0.193,-1.037 0.58,-1.564c-0.422,-0.141 -0.85,-0.211 -1.284,-0.211c-0.75,-0 -1.359,0.352 -1.828,1.055l-1.547,2.232c-0.586,0.856 -0.878,1.641 -0.878,2.356c0,1.078 0.521,2.033 1.564,2.865c0.99,0.766 1.546,1.754 1.716,2.938c-3.988,-0.005 -7.774,-0.489 -11.356,-1.457c0.879,-0.715 1.764,-1.429 2.655,-2.144c0.89,-0.715 1.775,-1.448 2.654,-2.198c1.43,-1.125 2.144,-2.167 2.144,-3.128c0,-0.563 -0.105,-1.413 -0.316,-2.549c-0.211,-1.137 -0.316,-2.332 -0.316,-3.586c0,-1.254 0.058,-2.303 0.175,-3.147c1.582,-0.351 3.206,-0.545 4.87,-0.58c-0.317,-1.195 -0.797,-2.033 -1.442,-2.513c-0.293,-0.211 -0.691,-0.317 -1.195,-0.317c-0.504,-0 -1.459,0.296 -2.865,0.888c-1.407,0.592 -3.159,1.248 -5.256,1.969c-2.098,0.72 -4.119,1.508 -6.065,2.364c-0.633,0.281 -0.949,0.832 -0.949,1.652c0,0.328 0.114,0.955 0.343,1.881c0.228,0.926 0.621,2.027 1.178,3.305c0.556,1.277 0.835,2.32 0.835,3.129c0,0.808 -0.094,1.547 -0.282,2.215c-0.468,1.628 -1.687,3.632 -3.656,6.011c2.332,0.492 4.673,0.976 7.023,1.45c2.349,0.475 4.218,0.859 5.607,1.152c1.389,0.293 2.253,0.439 2.593,0.439c0.785,-0 1.371,-0.287 1.758,-0.861c0.527,-0.844 0.958,-1.5 1.292,-1.969c0.183,-0.258 0.4,-0.581 0.646,-0.958l-0.191,5.875c-0.047,1.219 -0.323,2.315 -0.827,3.287c-0.503,0.973 -1.043,1.84 -1.617,2.602c5.801,0.879 9.58,1.828 11.338,2.847c1.805,-2.707 3.486,-5.053 5.045,-7.04c1.559,-1.986 2.467,-3.905 2.725,-5.756c0.07,-0.551 0.105,-1.096 0.105,-1.635c0,-2.016 -0.551,-4.02 -1.652,-6.012"
              style="fill-rule:nonzero;"/>
        <path d="M824.17,732.707c-0.621,0.691 -1.529,1.16 -2.725,1.406c-0.597,0.129 -1.213,0.194 -1.845,0.194c-1.91,0 -3.973,-0.604 -6.188,-1.811c-2.93,-1.605 -4.617,-3.434 -5.062,-5.484c2.543,1.746 4.863,2.619 6.961,2.619l0.316,0c0.656,-1.43 1.541,-2.356 2.654,-2.778c0.891,-0.339 1.53,-0.509 1.916,-0.509c0.387,0 0.651,0.011 0.791,0.035c1.453,0.246 2.517,0.762 3.191,1.547c0.674,0.785 1.011,1.591 1.011,2.417c-0,0.826 -0.34,1.614 -1.02,2.364m-1.74,-10.248c-1.453,-0.68 -3.141,-1.02 -5.063,-1.02c-0.972,0 -2.004,0.088 -3.093,0.264c-1.008,2.25 -2.145,3.375 -3.411,3.375c-1.265,0 -2.191,-0.504 -2.777,-1.512c-0.328,-0.55 -0.492,-1.142 -0.492,-1.775c-0,-1.77 0.914,-2.848 2.742,-3.234c0.668,-0.129 1.336,-0.194 2.004,-0.194c1.418,0 3.703,0.545 6.855,1.635c1.137,0.398 2.051,0.598 2.743,0.598c2.484,0 4.593,-1.881 6.328,-5.643l-0.686,-0.826c-1.594,0.855 -2.956,1.283 -4.087,1.283c-1.131,0 -2.241,-0.269 -3.331,-0.808c-2.25,-1.008 -4.512,-1.53 -6.785,-1.565c-1.359,-0.012 -2.426,0.311 -3.199,0.967c-1.089,0.917 -2.038,1.92 -2.866,2.996l0.08,-2.678c0.105,-3.082 1.101,-5.267 2.988,-6.556c-1.535,-0.539 -3.012,-1.187 -4.43,-1.943c-1.418,-0.756 -2.83,-1.514 -4.236,-2.276l-3.516,3.691c-1.031,-0.515 -1.913,-1.087 -2.645,-1.714c-0.733,-0.627 -1.62,-1.286 -2.663,-1.977c-0.387,0.398 -2.649,2.625 -6.785,6.68c-0.446,-0.915 -0.668,-1.706 -0.668,-2.374c-0,-0.187 0.017,-0.363 0.052,-0.527c0.153,-0.773 1.014,-1.418 2.584,-1.933c-0.164,-0.411 -0.422,-1.026 -0.773,-1.846c-2.484,0.914 -4.336,1.673 -5.555,2.276c-1.219,0.604 -1.992,1.269 -2.32,1.995c-0.141,0.317 -0.211,0.692 -0.211,1.125c-0,0.434 0.161,1.052 0.483,1.855c0.323,0.803 0.97,2.276 1.943,4.421c0.972,2.144 1.459,3.773 1.459,4.886c-0,0.235 -0.024,0.44 -0.071,0.616c-0.293,0.984 -1.74,2.689 -4.341,5.115c2.027,1.055 4.734,2.437 8.121,4.148l2.935,-5.273c-1.969,-0.445 -3.504,-1.067 -4.605,-1.863c1.91,-2.485 3.023,-4.319 3.34,-5.502c0.07,-0.258 0.105,-0.534 0.105,-0.826c-0,-1.079 -0.439,-2.438 -1.318,-4.079l-0.229,-0.404c1.688,-1.629 2.807,-2.566 3.358,-2.812c0.117,-0.047 0.246,-0.071 0.386,-0.071c0.563,0 1.354,0.381 2.373,1.143l-0.615,10.881c-0.012,0.879 -0.187,1.758 -0.527,2.636c-0.34,0.879 -0.686,1.524 -1.037,1.934c0.703,0.598 1.453,1.254 2.25,1.969c0.797,0.715 1.511,1.47 2.144,2.267l4.114,-5.009c-1.114,-0.364 -1.67,-1.606 -1.67,-3.727l-0,-0.387l0.193,-6.539c0.047,-1.219 0.073,-2.285 0.079,-3.199c0.006,-0.914 0.232,-1.705 0.677,-2.373c1.172,0.141 2.935,1.072 5.291,2.795c-0.621,0.808 -1.125,1.611 -1.512,2.408c-0.387,0.797 -0.58,1.729 -0.58,2.795l-0.035,0.647l-0,0.493c-0,2.308 0.325,4.116 0.975,5.423c0.179,0.358 0.545,0.751 1.013,1.146c-0.228,1.046 -0.404,2.123 -0.485,3.258c-0.012,0.152 -0.018,0.305 -0.018,0.457c-0,1.265 0.311,2.42 0.932,3.463c1.312,2.285 2.965,4.078 4.957,5.379c1.992,1.3 4.16,2.197 6.504,2.689c0.879,0.199 1.693,0.299 2.443,0.299c0.727,0 1.377,-0.188 1.951,-0.563c3.094,-2.039 5.139,-4.207 6.135,-6.503c0.586,-1.336 0.879,-2.511 0.879,-3.525c-0,-1.014 -0.146,-1.901 -0.439,-2.663c-0.704,-1.84 -2.151,-3.27 -4.342,-4.289"
              style="fill-rule:nonzero;"/>
        <path d="M543.395,369.755l-6.416,4.025l0.018,-4.798c-0.012,-0.118 -0.018,-0.334 -0.018,-0.651c0,-0.316 0.149,-0.662 0.448,-1.037c0.299,-0.375 0.639,-0.562 1.02,-0.562c0.381,-0 0.814,0.058 1.301,0.175c0.486,0.118 1.054,0.343 1.705,0.677c0.65,0.334 1.35,0.583 2.1,0.747l4.887,-3.392c-2.438,-0.563 -4.998,-1.448 -7.682,-2.655c-1.599,0.879 -3.235,1.784 -4.906,2.715l0.093,-1.616c0.106,-3.082 1.102,-5.268 2.989,-6.557c-1.536,-0.539 -3.012,-1.186 -4.43,-1.942c-1.418,-0.756 -2.83,-1.515 -4.236,-2.276l-3.516,3.691c-1.031,-0.516 -1.913,-1.087 -2.646,-1.714c-0.732,-0.627 -1.62,-1.286 -2.663,-1.977c-0.386,0.398 -2.648,2.625 -6.785,6.679c-0.445,-0.914 -0.668,-1.705 -0.668,-2.373c0,-0.187 0.018,-0.363 0.053,-0.527c0.152,-0.774 1.014,-1.418 2.584,-1.934c-0.164,-0.41 -0.422,-1.025 -0.774,-1.845c-2.484,0.914 -4.335,1.672 -5.554,2.276c-1.219,0.603 -1.992,1.268 -2.321,1.995c-0.14,0.316 -0.21,0.691 -0.21,1.125c0,0.434 0.161,1.052 0.483,1.855c0.322,0.802 0.97,2.276 1.942,4.42c0.973,2.145 1.459,3.774 1.459,4.887c0,0.235 -0.023,0.44 -0.07,0.615c-0.293,0.985 -1.74,2.69 -4.342,5.116c2.028,1.054 4.735,2.437 8.121,4.148l2.936,-5.273c-1.969,-0.446 -3.504,-1.067 -4.606,-1.864c1.911,-2.484 3.024,-4.318 3.34,-5.502c0.071,-0.257 0.106,-0.533 0.106,-0.826c0,-1.078 -0.44,-2.437 -1.319,-4.078l-0.228,-0.404c1.687,-1.629 2.806,-2.567 3.357,-2.813c0.117,-0.047 0.246,-0.07 0.387,-0.07c0.562,-0 1.353,0.381 2.373,1.143l-0.615,10.88c-0.012,0.879 -0.188,1.758 -0.528,2.637c-0.339,0.879 -0.685,1.524 -1.037,1.934c0.703,0.597 1.453,1.254 2.25,1.968c0.797,0.715 1.512,1.471 2.145,2.268l4.113,-5.01c-1.113,-0.363 -1.67,-1.605 -1.67,-3.726l0,-0.387l0.194,-6.539c0.046,-1.219 0.073,-2.285 0.079,-3.199c0.006,-0.914 0.231,-1.705 0.676,-2.373c1.172,0.14 2.936,1.072 5.291,2.795c-0.621,0.808 -1.125,1.611 -1.511,2.408c-0.387,0.797 -0.58,1.728 -0.58,2.795l0.295,2.012c0.68,2.895 1.02,5.857 1.02,8.886c0,3.029 -0.411,6.126 -1.231,9.29c2.203,1.125 4.84,2.033 7.91,2.725l3.867,-5.326c-0.949,-0.012 -1.76,-0.126 -2.434,-0.343c-0.674,-0.217 -1.213,-0.396 -1.617,-0.536c-0.405,-0.141 -0.739,-0.284 -1.002,-0.431c-0.264,-0.146 -0.384,-0.454 -0.361,-0.923l0.018,-5.291c0.41,-0.269 0.715,-0.463 0.914,-0.58c0.738,-0.445 1.43,-0.668 2.074,-0.668c1.078,-0 2.016,0.633 2.813,1.899c1.277,2.003 2.027,3.495 2.25,4.473c0.222,0.979 0.334,1.849 0.334,2.611c0,1.711 -0.446,3.427 -1.336,5.15c-1.289,2.484 -3.569,4.125 -6.838,4.922c0.316,0.269 0.621,0.542 0.914,0.817c0.293,0.276 0.633,0.563 1.02,0.862c0.386,0.298 0.82,0.448 1.3,0.448c0.809,-0 1.659,-0.487 2.549,-1.459c2.027,-2.238 3.692,-4.685 4.992,-7.339c1.301,-2.654 2.444,-5.411 3.428,-8.271c-2.461,-3.41 -5.127,-6.404 -7.998,-8.982"
              style="fill-rule:nonzero;"/>
        <path d="M658.535,369.445c-0.445,-1.096 -0.668,-2.077 -0.668,-2.944c-0,-0.868 0.059,-1.612 0.176,-2.233c0.328,-1.828 1.4,-3.597 3.217,-5.308c0.304,0.808 0.457,1.787 0.457,2.935c-0,1.149 -0.041,3.34 -0.123,6.574c-0.047,1.735 -0.493,3.018 -1.336,3.85c-0.703,-0.82 -1.278,-1.778 -1.723,-2.874m22.892,-0.714l-6.416,4.026l0.018,-4.799c-0.012,-0.117 -0.018,-0.334 -0.018,-0.651c-0,-0.316 0.149,-0.662 0.448,-1.037c0.299,-0.375 0.639,-0.562 1.02,-0.562c0.381,0 0.814,0.058 1.301,0.175c0.486,0.118 1.054,0.343 1.705,0.677c0.65,0.334 1.35,0.583 2.1,0.747l4.887,-3.392c-2.437,-0.563 -4.998,-1.448 -7.682,-2.655c-3.175,1.747 -6.492,3.592 -9.949,5.538c0.627,2.668 0.95,5.396 1,8.178c-1.023,0.263 -2.01,0.402 -2.956,0.402c-2.098,0 -3.897,-0.616 -5.397,-1.846c1.852,-1.277 3.815,-2.033 5.889,-2.268l-0.141,-14.431c1.406,0.304 2.76,0.726 4.061,1.265c0.504,-1.195 1.406,-3.293 2.707,-6.293c-2.672,0.352 -5.476,0.528 -8.411,0.528c-2.936,0 -6.109,-0.176 -9.519,-0.528l-4.236,6.452c2.953,-1.219 4.886,-1.829 5.801,-1.829c0.644,0 1.253,0.235 1.828,0.704c-3.493,3.199 -6.323,6.287 -8.491,9.263c1.629,5.227 4.202,8.848 7.717,10.863c2.784,1.596 6.49,1.625 11.111,0.098c-0.123,2.495 -0.504,5.032 -1.174,7.617c2.203,1.125 4.84,2.034 7.91,2.725l3.868,-5.326c-0.95,-0.012 -1.761,-0.126 -2.435,-0.343c-0.674,-0.217 -1.213,-0.396 -1.617,-0.536c-0.404,-0.141 -0.738,-0.284 -1.002,-0.431c-0.264,-0.146 -0.384,-0.454 -0.361,-0.923l0.018,-5.291c0.41,-0.269 0.715,-0.463 0.914,-0.58c0.738,-0.445 1.43,-0.668 2.074,-0.668c1.078,0 2.016,0.633 2.813,1.899c1.277,2.004 2.027,3.495 2.25,4.473c0.223,0.979 0.334,1.849 0.334,2.611c-0,1.711 -0.445,3.427 -1.336,5.15c-1.289,2.484 -3.568,4.125 -6.838,4.922c0.316,0.269 0.621,0.542 0.914,0.817c0.293,0.276 0.633,0.563 1.02,0.862c0.386,0.298 0.82,0.448 1.3,0.448c0.809,0 1.659,-0.486 2.549,-1.459c2.028,-2.238 3.692,-4.685 4.992,-7.339c1.301,-2.654 2.444,-5.411 3.428,-8.27c-2.461,-3.411 -5.127,-6.405 -7.998,-8.983"
              style="fill-rule:nonzero;"/>
        <path d="M684.667,552.118c-0.346,0 -0.682,-0.179 -0.867,-0.5c-0.276,-0.479 -0.112,-1.09 0.366,-1.366l25.334,-14.627c0.477,-0.277 1.089,-0.113 1.366,0.366c0.276,0.479 0.112,1.09 -0.366,1.366l-25.334,14.627c-0.157,0.091 -0.33,0.134 -0.499,0.134"
              style="fill-rule:nonzero;"/>
        <path d="M600,487.166c-0.552,0 -1,-0.447 -1,-1l0,-13.166c0,-0.553 0.448,-1 1,-1c0.552,0 1,0.447 1,1l0,13.166c0,0.553 -0.448,1 -1,1"
              style="fill-rule:nonzero;"/>
        <path d="M490.001,664.509c-0.346,-0 -0.682,-0.179 -0.867,-0.5c-0.276,-0.479 -0.112,-1.09 0.366,-1.366l35.135,-20.286c0.478,-0.278 1.09,-0.114 1.366,0.366c0.276,0.478 0.113,1.09 -0.366,1.366l-35.135,20.286c-0.157,0.091 -0.33,0.134 -0.499,0.134"
              style="fill-rule:nonzero;"/>
        <path d="M600,728c-0.552,-0 -1,-0.447 -1,-1l0,-15.979c0,-0.552 0.448,-1 1,-1c0.552,-0 1,0.448 1,1l0,15.979c0,0.553 -0.448,1 -1,1"
              style="fill-rule:nonzero;"/>
        <path d="M709.947,664.479c-0.169,-0 -0.341,-0.043 -0.499,-0.134l-26.312,-15.19c-0.478,-0.277 -0.642,-0.888 -0.366,-1.366c0.276,-0.478 0.886,-0.644 1.366,-0.367l26.312,15.191c0.478,0.276 0.642,0.887 0.366,1.366c-0.185,0.32 -0.521,0.5 -0.867,0.5"
              style="fill-rule:nonzero;"/>
        <path d="M515.332,552.118c-0.169,0 -0.341,-0.043 -0.499,-0.134l-25.334,-14.627c-0.478,-0.276 -0.642,-0.887 -0.366,-1.366c0.277,-0.479 0.887,-0.643 1.366,-0.366l25.334,14.627c0.478,0.276 0.642,0.887 0.366,1.366c-0.185,0.321 -0.521,0.5 -0.867,0.5"
              style="fill-rule:nonzero;"/>
        <path d="M561.991,585.706c0.988,-3.584 2.447,-7.453 4.531,-11.575l24.347,-48.696l0,66.944c-12.058,-0.194 -21.587,-2.699 -28.878,-6.673m12.139,-66.358c6.439,0 11.206,2.223 13.973,3.982l-29.985,59.985c-28.106,-19.565 -14.836,-63.967 16.012,-63.967m50.217,93.626l0,-17.974l27.056,-2.577c0.209,-0.02 0.393,-0.146 0.487,-0.333l14.794,-29.589c0.15,-0.301 0.029,-0.666 -0.272,-0.816l-1.976,-0.989c-0.291,-0.145 -0.643,-0.038 -0.802,0.245c-2.092,3.708 -15.89,26.649 -39.287,30.994l0,-71.066c0,-10.258 2.208,-17.393 2.863,-19.283c0.1,-0.288 -0.031,-0.605 -0.303,-0.741l-2.18,-1.09c-0.228,-0.114 -0.503,-0.074 -0.689,0.1l-8.424,7.899c-5.13,-4.308 -17.644,-12.754 -36.918,-12.754c-27.392,0 -48.696,24.348 -48.696,50.218c0,19.142 8.008,34.279 25.783,42.767l-22.468,44.949c-0.15,0.3 -0.028,0.667 0.273,0.816l2.499,1.25l26.987,-20.99c0.229,-0.178 0.302,-0.492 0.171,-0.751c-0.981,-1.946 -4.624,-10.293 -2.278,-23.09c8.191,3.023 18.113,4.845 29.902,5.266l0,36.145c0,0.23 0.131,0.441 0.337,0.545l2.472,1.236c0.15,0.074 0.325,0.083 0.482,0.025c24.224,-8.976 42.362,0.194 42.362,30.231c0,21.076 -3.044,38.339 -18.261,38.339c-20.121,0 -15.81,-42.077 -15.269,-46.753c0.03,-0.254 -0.103,-0.498 -0.332,-0.612l-2.317,-1.158c-0.21,-0.106 -0.461,-0.081 -0.646,0.063l-26.686,20.757c-0.235,0.182 -0.304,0.506 -0.164,0.767c2.043,3.79 17.181,29.98 45.414,29.98c24.348,0 51.739,-9.131 51.739,-50.416c0,-46.352 -39.203,-41.909 -44.952,-41.009c-0.369,0.058 -0.701,-0.228 -0.701,-0.601"
              style="fill-rule:nonzero;"/>
        <path d="M736.638,673.115c11.709,-21.794 18.362,-46.691 18.362,-73.115c0,-26.424 -6.653,-51.322 -18.362,-73.114l-8.665,5.001c10.859,20.321 17.027,43.508 17.027,68.113c0,24.604 -6.168,47.792 -17.027,68.112l8.665,5.003Z"
              style="fill-rule:nonzero;"/>
        <path d="M605,455.096c49.702,1.693 93.132,28.519 117.958,68.142l8.663,-5.002c-26.565,-42.609 -73.225,-71.445 -126.621,-73.147l0,10.007Z"
              style="fill-rule:nonzero;"/>
        <path d="M455,600c0,-24.604 6.167,-47.792 17.026,-68.112l-8.665,-5.002c-11.708,21.793 -18.361,46.69 -18.361,73.114c0,26.424 6.653,51.321 18.361,73.115l8.665,-5.003c-10.859,-20.32 -17.026,-43.508 -17.026,-68.112"
              style="fill-rule:nonzero;"/>
        <path d="M722.958,676.764c-24.826,39.623 -68.256,66.447 -117.958,68.141l0,10.006c53.396,-1.701 100.056,-30.538 126.621,-73.146l-8.663,-5.001Z"
              style="fill-rule:nonzero;"/>
        <path d="M595,744.904c-49.703,-1.693 -93.132,-28.518 -117.958,-68.141l-8.663,5.001c26.565,42.609 73.224,71.446 126.621,73.147l-0,-10.007Z"
              style="fill-rule:nonzero;"/>
        <path d="M477.042,523.237c24.826,-39.623 68.255,-66.448 117.958,-68.142l0,-10.006c-53.397,1.702 -100.056,30.538 -126.621,73.146l8.663,5.002Z"
              style="fill-rule:nonzero;"/>
        <path d="M710.977,967.666l-0.248,-29.942l-12.401,18.458l12.649,11.484Z" style="fill-rule:nonzero;"/>
        <path d="M501.553,956.182l-12.306,-18.458l-0.225,30.288l12.531,-11.83Z" style="fill-rule:nonzero;"/>
        <path d="M710.977,937.293c-35.08,11.596 -72.579,17.877 -111.545,17.877c-38.546,-0 -75.657,-6.145 -110.41,-17.5l0,30.342c34.969,10.476 72.031,16.108 110.41,16.108c38.795,0 76.243,-5.758 111.545,-16.454l0,-30.373Zm-2,2.756l0,26.131c-35.412,10.578 -72.258,15.94 -109.545,15.94c-36.891,0 -73.354,-5.248 -108.41,-15.6l0,-26.104c34.941,11.118 71.398,16.754 108.41,16.754c37.413,0 74.252,-5.759 109.545,-17.121"
              style="fill-rule:nonzero;"/>
        <path d="M1014.83,839.5c-15.893,27.527 -41.555,47.219 -72.258,55.445c-28.681,7.684 -58.553,4.503 -84.802,-8.904c17.42,-15.701 33.223,-32.815 47.312,-51.087c-0.838,-0.01 -1.669,-0.02 -2.484,-0.034c-13.934,17.926 -29.541,34.715 -46.711,50.133c-1.212,-0.647 -2.419,-1.307 -3.614,-1.996c-0.736,-0.425 -1.464,-0.861 -2.188,-1.299c16.31,-14.483 31.19,-30.227 44.574,-47.005c-0.85,-0.024 -1.683,-0.048 -2.501,-0.072c-13.192,16.403 -27.828,31.799 -43.846,45.977c-2.836,-1.784 -5.587,-3.671 -8.24,-5.664c14.268,-12.48 27.603,-26.11 39.893,-40.809c-5.326,-0.275 -9.499,-0.57 -12.466,-0.81c-10.975,12.59 -22.752,24.34 -35.264,35.18c-8.529,-7.629 -15.866,-16.414 -21.828,-26.119c5.673,-4.939 11.208,-10.084 16.578,-15.455c9.406,-9.405 18.132,-19.307 26.198,-29.623l0.257,-3.585c-8.52,11.104 -17.807,21.732 -27.869,31.794c-5.249,5.249 -10.658,10.28 -16.199,15.114c-5.452,-9.228 -9.695,-19.245 -12.544,-29.881c-3.122,-11.649 -4.442,-23.493 -4.021,-35.212l61.939,-0.051l0.715,-10.001l-61.867,0.051c0.252,-2.064 0.573,-4.117 0.936,-6.165c3.77,1.039 7.646,1.558 11.513,1.558c12.403,-0 24.697,-5.276 33.014,-15.406c1.191,-1.452 2.264,-2.97 3.231,-4.536l14.334,8.275l0.16,-2.217l-13.485,-7.785c3.99,-7.229 5.658,-15.446 4.721,-23.771c-1.137,-10.091 -5.958,-19.208 -13.646,-25.947c2.048,-1.764 4.135,-3.48 6.302,-5.093l26.892,46.541l1.348,-0.02c0.101,-0.001 4.021,-0.06 10.112,-0.135l-30.057,-52.018c9.804,-6.073 20.551,-10.745 32.005,-13.813c10.252,-2.747 20.655,-4.107 30.992,-4.107c0.412,-0 0.823,0.021 1.236,0.025c-4.648,24.142 -12.059,47.525 -22.062,69.778c0.728,-0.007 1.465,-0.015 2.212,-0.022c9.919,-22.245 17.263,-45.606 21.877,-69.715c11.375,0.316 22.64,2.271 33.501,5.843c-4.147,21.827 -10.332,43.137 -18.482,63.721c4.259,0.018 7.783,0.051 10.706,0.096c7.488,-19.514 13.269,-39.648 17.282,-60.233c3.045,1.298 6.051,2.725 9.008,4.286c-3.895,19.199 -9.289,37.99 -16.085,56.225c0.842,0.04 1.526,0.081 2.087,0.12c6.661,-17.962 11.974,-36.455 15.837,-55.345c0.732,0.402 1.465,0.798 2.19,1.216c1.207,0.698 2.391,1.419 3.565,2.152c-3.78,17.97 -8.852,35.582 -15.129,52.722l2.038,0.257c6.153,-16.861 11.142,-34.178 14.893,-51.84c52.66,34.194 69.942,104.268 38.19,159.266m-167.44,52.967l-4.068,-4.835c1.747,-1.48 3.474,-2.98 5.191,-4.486c0.911,0.557 1.831,1.106 2.76,1.643c1.001,0.578 2.01,1.133 3.022,1.681c-2.276,2.021 -4.574,4.024 -6.905,5.997m-247.386,26.533c-77.1,-0 -150.022,-27.171 -207.838,-76.977c5.636,-9.47 10.015,-19.767 12.946,-30.706c3.139,-11.714 4.471,-23.623 4.087,-35.412l26.042,-0.021c24.958,23.417 54.08,40.91 85.641,51.844c-1.219,3.876 -1.878,7.999 -1.878,12.272c0,20.424 15.013,37.404 34.581,40.494c11.525,12.58 28.053,20.506 46.419,20.506c18.366,-0 34.893,-7.926 46.418,-20.506c19.569,-3.09 34.582,-20.07 34.582,-40.494c0,-4.273 -0.659,-8.396 -1.878,-12.271c31.682,-10.977 60.905,-28.566 85.928,-52.118l25.766,-0.021c-0.42,11.891 0.909,23.908 4.076,35.727c2.931,10.939 7.309,21.236 12.945,30.706c-57.816,49.807 -130.738,76.977 -207.837,76.977m-209.368,-78.318c-5.541,-4.835 -10.95,-9.866 -16.199,-15.115c-11.393,-11.392 -21.807,-23.501 -31.22,-36.214c0.018,0.983 0.025,1.688 0.028,2.045c0.002,0.412 -0.016,0.818 -0.053,1.219c9.056,12.032 18.993,23.528 29.83,34.364c5.37,5.371 10.904,10.515 16.577,15.454c-6.019,9.797 -13.437,18.66 -22.071,26.339c-18.693,-16.266 -35.757,-34.568 -50.931,-54.711c-2.204,2.705 -4.102,5.733 -5.745,8.96c14.585,18.946 30.943,36.386 48.885,52.117c-2.592,1.939 -5.276,3.778 -8.044,5.519c-16.506,-14.609 -31.545,-30.514 -45.048,-47.479c-0.253,0.762 -0.489,1.53 -0.722,2.299c13.235,16.506 27.921,32.005 43.998,46.28c-0.724,0.438 -1.451,0.873 -2.186,1.298c-1.195,0.689 -2.401,1.349 -3.613,1.995c-14.548,-13.064 -27.959,-27.119 -40.196,-42.007c-0.188,0.838 -0.358,1.67 -0.526,2.5c11.87,14.32 24.826,27.868 38.837,40.496c-26.249,13.408 -56.121,16.591 -84.802,8.904c-30.703,-8.226 -56.364,-27.918 -72.257,-55.445c-31.752,-54.997 -14.471,-125.069 38.187,-159.264c4.229,19.914 10.023,39.391 17.296,58.269c0.074,-0.332 0.146,-0.666 0.221,-0.997c0.176,-0.755 0.421,-1.476 0.719,-2.164c-6.886,-18.246 -12.395,-37.042 -16.435,-56.247c1.175,-0.734 2.36,-1.456 3.569,-2.154c0.724,-0.418 1.456,-0.814 2.187,-1.215c3.775,18.463 8.937,36.545 15.387,54.125c0.567,-0.359 1.166,-0.671 1.79,-0.934c-6.442,-17.599 -11.588,-35.704 -15.337,-54.19c2.955,-1.561 5.958,-2.987 9.001,-4.285c3.898,20.028 9.47,39.631 16.652,58.66c0.108,-0.764 0.213,-1.467 0.312,-2.098c0.624,-3.937 3.029,-7.158 6.316,-8.928c-5.864,-16.677 -10.467,-33.785 -13.774,-51.218c10.863,-3.574 22.13,-5.53 33.51,-5.846c3.472,18.145 8.49,35.868 14.988,53.01c0.683,1.146 1.182,2.415 1.464,3.769c0.02,0.048 0.038,0.097 0.057,0.145c0.575,-0.333 1.183,-0.616 1.813,-0.854c-7.129,-18.097 -12.59,-36.863 -16.295,-56.111c0.412,-0.004 0.823,-0.025 1.235,-0.025c10.336,-0 20.743,1.36 30.993,4.107c11.511,3.084 22.308,7.787 32.152,13.904l-28.464,49.304c0.896,-0.206 1.827,-0.316 2.785,-0.316c2.801,-0 5.401,0.93 7.488,2.523l26.478,-45.864c2.111,1.577 4.145,3.252 6.143,4.972c-14.057,12.681 -17.423,33.276 -8.735,49.635l-17.12,9.883c0.114,0.707 0.225,1.414 0.331,2.119l17.77,-10.26c0.943,1.584 1.994,3.127 3.175,4.607c6.828,8.563 16.582,13.954 27.464,15.18c1.563,0.176 3.121,0.263 4.671,0.263c4.193,-0 8.315,-0.646 12.255,-1.89c0.404,2.256 0.757,4.519 1.028,6.793l-64.577,0.053c0.336,3.569 0.589,6.941 0.78,10l64.553,-0.054c0.386,11.614 -0.938,23.35 -4.031,34.893c-2.85,10.636 -7.093,20.653 -12.544,29.882m-33.607,47.24l-4.063,4.84c-2.449,-2.07 -4.865,-4.169 -7.256,-6.291c1.013,-0.548 2.023,-1.104 3.025,-1.682c0.929,-0.537 1.848,-1.086 2.76,-1.644c1.829,1.606 3.669,3.203 5.534,4.777m-8.048,-538.944c38.091,-38.091 83.318,-66.446 132.661,-83.845c2.402,11.307 6.388,22.035 11.714,31.941c-44.764,15.722 -85.794,41.405 -120.334,75.945c-60.629,60.628 -94.018,141.239 -94.018,226.981c0,20.016 1.843,39.746 5.404,59.014c-11.376,0.347 -22.641,2.308 -33.509,5.857c-3.899,-21.218 -5.895,-42.904 -5.895,-64.871c0,-94.824 36.926,-183.973 103.977,-251.022m251.023,-227.978c65.617,-0 119,53.383 119,119c0,4.924 -0.312,9.774 -0.896,14.542c-12.646,-4.329 -25.49,-7.93 -38.497,-10.827l4.005,8.01c0.547,1.093 0.894,2.25 1.087,3.425c10.745,2.621 21.343,5.722 31.755,9.327c-2.379,11.318 -6.375,22.046 -11.728,31.937c-22.674,-7.801 -46.292,-13.047 -70.501,-15.598c-1.322,0.555 -2.719,1.088 -4.189,1.596c25.325,2.35 50.023,7.662 73.69,15.774c-6.834,12.126 -15.712,22.953 -26.196,31.976c-6.799,-1.183 -13.822,-0.631 -20.515,1.712c-2.372,0.829 -4.63,1.868 -6.77,3.083l-28.962,-50.124c-3.229,0.69 -6.757,1.239 -10.625,1.6l31.513,54.538c-3.489,3.349 -6.393,7.326 -8.554,11.813c-0.248,0.515 -0.476,1.033 -0.7,1.553c-10.154,2.929 -20.854,4.559 -31.917,4.65l0,-72.085c-0.335,0.002 -0.661,0.01 -1,0.01c-0.339,-0 -0.666,-0.008 -1,-0.01l0,72.085c-11.139,-0.092 -21.908,-1.745 -32.125,-4.711c-0.216,-0.5 -0.436,-0.999 -0.674,-1.492c-2.134,-4.43 -4.99,-8.364 -8.419,-11.686l31.561,-54.668c-3.867,-0.362 -7.393,-0.912 -10.621,-1.606l-28.992,50.221c-2.186,-1.253 -4.498,-2.321 -6.927,-3.171c-6.644,-2.325 -13.611,-2.887 -20.363,-1.737c-10.47,-9.02 -19.339,-19.838 -26.166,-31.951c23.682,-8.118 48.396,-13.43 73.738,-15.778c-1.468,-0.508 -2.863,-1.041 -4.184,-1.597c-24.228,2.548 -47.863,7.796 -70.555,15.603c-5.353,-9.891 -9.349,-20.619 -11.728,-31.937c10.385,-3.596 20.956,-6.69 31.673,-9.307c0.187,-1.236 0.545,-2.454 1.123,-3.602l3.942,-7.83c-12.969,2.895 -25.777,6.487 -38.388,10.804c-0.584,-4.768 -0.895,-9.618 -0.895,-14.542c0,-65.617 53.383,-119 119,-119m234.847,533.436c4.059,-17.647 6.153,-35.879 6.153,-54.436c0,-15.391 -1.455,-30.555 -4.263,-45.352c3.98,-0.881 7.896,-2.356 11.609,-4.5c17.688,-10.211 24.886,-31.704 17.778,-50.197c5.132,-16.27 3.732,-34.546 -5.45,-50.451c-8.414,-14.573 -22,-24.998 -38.254,-29.354c-0.919,-0.246 -1.841,-0.457 -2.763,-0.655c-5.405,-6.675 -12.744,-11.47 -21.199,-13.735c-10.58,-2.833 -21.628,-1.381 -31.112,4.096c-3.731,2.154 -6.993,4.813 -9.755,7.837c-14.974,-12.982 -31.302,-23.934 -48.645,-32.742c7.364,-19.625 -1.358,-42.047 -20.6,-51.314c-2.704,-1.302 -5.503,-2.282 -8.354,-2.962c10.248,-9.05 18.937,-19.816 25.657,-31.824c44.614,15.612 85.508,41.175 119.918,75.586c60.251,60.251 93.433,140.359 93.433,225.567c0,20.007 -1.853,39.727 -5.432,58.98c-11.037,-0.15 -22.161,1.208 -33.116,4.143c-11.626,3.115 -22.527,7.865 -32.481,14.023l-13.124,-22.71Zm-2.476,33.5c-2.019,-1.565 -4.146,-2.907 -6.344,-4.054c1.912,-5.167 3.662,-10.398 5.217,-15.694l8.429,14.587c-2.358,1.748 -4.634,3.604 -6.858,5.522c-0.15,-0.119 -0.292,-0.244 -0.444,-0.361m-51.351,62.546c-8.423,-6.525 -13.708,-15.846 -14.879,-26.246c-1.16,-10.3 1.866,-20.436 8.519,-28.541c7.926,-9.653 19.641,-14.681 31.462,-14.681c8.788,-0 17.636,2.78 25.025,8.504c8.424,6.525 13.708,15.846 14.879,26.246c1.16,10.3 -1.866,20.436 -8.519,28.541c-13.818,16.831 -39.158,19.601 -56.487,6.177m3.369,4.68c2.631,1.537 5.387,2.762 8.216,3.686c-0.398,2.238 -0.745,4.484 -1.016,6.741l-16.51,0.014c3.219,-3.401 6.313,-6.888 9.31,-10.441m-183.389,10.584l0,-26.297c50.746,-0.359 95.132,-27.957 119.24,-68.874l49.515,28.588c-4.625,7.586 -6.605,16.381 -5.601,25.297c1.232,10.941 6.787,20.744 15.642,27.604c0.93,0.721 1.884,1.395 2.857,2.028c-3.324,3.926 -6.765,7.774 -10.362,11.513l-171.291,0.141Zm77.476,60.091c-4.598,-12.452 -15.077,-22.075 -28.049,-25.489c-9.692,-12.946 -24.223,-22.068 -40.907,-24.608l152.59,-0.127c-24.462,22.622 -52.879,39.566 -83.634,50.224m-38.476,53.163c-21.505,-0 -39,-17.495 -39,-39c0,-21.505 17.495,-39 39,-39c21.505,-0 39,17.495 39,39c0,21.505 -17.495,39 -39,39m-80,2c19.526,-0 35.897,-13.725 40,-32.032c4.102,18.307 20.473,32.032 40,32.032c1.119,-0 2.225,-0.058 3.322,-0.146c-11.063,11.184 -26.385,18.146 -43.322,18.146c-16.937,-0 -32.26,-6.962 -43.323,-18.146c1.097,0.088 2.203,0.146 3.323,0.146m0,-80c21.505,-0 39,17.495 39,39c0,21.505 -17.495,39 -39,39c-21.505,-0 -39,-17.495 -39,-39c0,-21.505 17.495,-39 39,-39m30.36,-25.244c-16.635,2.565 -31.119,11.676 -40.788,24.592c-12.972,3.414 -23.45,13.037 -28.048,25.488c-30.634,-10.615 -58.948,-27.467 -83.344,-49.954l152.18,-0.126Zm-173.56,-22.316c0.626,-0.445 1.245,-0.902 1.851,-1.384c15.907,-12.688 19.849,-34.891 10.203,-52.09l50.906,-29.39c24.108,40.916 68.493,68.514 119.24,68.873l0,26.299l-171.015,0.142c-3.894,-4.035 -7.61,-8.197 -11.185,-12.45m-1.687,1.137c3.232,3.857 6.584,7.636 10.077,11.316l-16.743,0.013c-0.292,-2.492 -0.682,-4.972 -1.13,-7.442c2.712,-1.006 5.322,-2.306 7.796,-3.887m-46.341,-65.068c7.169,-5.718 15.75,-8.493 24.276,-8.493c11.47,-0 22.841,5.024 30.531,14.668c13.408,16.813 10.638,41.399 -6.175,54.807c-16.813,13.41 -41.399,10.638 -54.807,-6.175c-13.408,-16.813 -10.638,-41.399 6.175,-54.807m0.05,-21.103c1.525,5.18 3.238,10.297 5.107,15.354c-2.222,1.175 -4.369,2.561 -6.404,4.184c-0.13,0.104 -0.251,0.214 -0.379,0.318c-2.168,-1.867 -4.385,-3.676 -6.68,-5.383l8.356,-14.473Zm142.65,-334.773c-19.268,9.279 -27.986,31.748 -20.57,51.39c-17.287,8.795 -33.563,19.722 -48.493,32.666c-2.763,-3.024 -6.024,-5.683 -9.755,-7.837c-9.485,-5.477 -20.534,-6.931 -31.112,-4.096c-8.455,2.265 -15.795,7.06 -21.199,13.735c-0.923,0.198 -1.845,0.409 -2.763,0.655c-16.254,4.356 -29.84,14.781 -38.254,29.354c-9.183,15.905 -10.583,34.181 -5.45,50.451c-7.109,18.493 0.09,39.986 17.778,50.197c3.714,2.145 7.629,3.62 11.609,4.5c-2.808,14.797 -4.263,29.961 -4.263,45.352c0,18.637 2.114,36.946 6.207,54.665l-13.031,22.573c-9.995,-6.203 -20.946,-10.985 -32.628,-14.115c-10.955,-2.936 -22.079,-4.293 -33.116,-4.144c-3.58,-19.252 -5.432,-38.972 -5.432,-58.979c0,-85.208 33.181,-165.316 93.433,-225.567c34.41,-34.411 75.303,-59.973 119.917,-75.586c6.712,11.995 15.388,22.749 25.62,31.792c-2.9,0.679 -5.749,1.671 -8.498,2.994m54.601,49.821c-3.441,9.832 -10.505,17.736 -19.891,22.256c-9.385,4.52 -19.969,5.114 -29.802,1.675c-9.832,-3.441 -17.737,-10.504 -22.257,-19.89c-9.33,-19.376 -1.158,-42.729 18.217,-52.059c9.385,-4.521 19.969,-5.115 29.802,-1.674c9.833,3.44 17.737,10.504 22.257,19.889c4.52,9.386 5.115,19.97 1.674,29.803m3.051,-22.485c-0.355,-1.461 -0.784,-2.908 -1.302,-4.334c4.621,1.277 9.347,2.301 14.171,3.023c-4.315,0.318 -8.604,0.766 -12.869,1.311m29.876,99.582c-50.747,0.359 -95.132,27.957 -119.24,68.873l-23.027,-13.294l61.275,-106.138c3.712,1.065 7.503,1.603 11.284,1.603c6.076,-0 12.123,-1.368 17.759,-4.082c9.866,-4.752 17.293,-13.062 20.909,-23.399c2.417,-6.907 2.93,-14.165 1.594,-21.165c9.694,-1.228 19.52,-1.896 29.446,-1.937l0,99.539Zm-143.267,57.311l23.02,13.291c-11.586,20.325 -18.215,43.826 -18.215,68.847c0,25.021 6.629,48.522 18.215,68.847l-50.921,29.399c-0.817,-1.304 -1.708,-2.578 -2.689,-3.808c-12.038,-15.094 -32.641,-19.411 -49.41,-11.577c-2.046,-5.541 -3.905,-11.153 -5.532,-16.843l85.532,-148.156Zm-83.649,37.771c10.805,-0 21.387,-4.281 29.173,-12.127c15.533,-1.852 30.233,-9.408 40.724,-21.824l-75.304,130.437c-3.747,-16.919 -5.677,-34.37 -5.677,-52.119c0,-15.26 1.441,-30.296 4.224,-44.967c2.281,0.389 4.574,0.6 6.86,0.6m-33.705,-60.492c7.216,-12.498 20.351,-19.493 33.84,-19.493c6.612,-0 13.309,1.681 19.435,5.218c9.021,5.209 15.475,13.619 18.171,23.681c2.696,10.062 1.313,20.572 -3.896,29.594c-10.753,18.624 -34.653,25.029 -53.275,14.275c-18.624,-10.752 -25.028,-34.651 -14.275,-53.275m38.267,-70.282c-5.475,9.485 -6.93,20.533 -4.095,31.112c2.041,7.619 6.141,14.33 11.815,19.539c-17.9,-5.589 -37.96,1.726 -47.72,18.631c-0.559,0.968 -1.062,1.955 -1.534,2.949c-4.154,-15.172 -2.522,-31.923 5.946,-46.59c8.147,-14.11 21.301,-24.204 37.04,-28.422c0.126,-0.034 0.253,-0.06 0.379,-0.092c-0.643,0.93 -1.259,1.883 -1.831,2.873m69.283,40c-10.753,18.625 -34.652,25.03 -53.275,14.275c-9.022,-5.209 -15.475,-13.619 -18.171,-23.681c-2.697,-10.062 -1.313,-20.572 3.896,-29.594c7.216,-12.498 20.351,-19.493 33.841,-19.493c6.611,-0 13.308,1.681 19.434,5.218c18.624,10.752 25.027,34.651 14.275,53.275m5.775,-8.693c3.525,-12.91 0.455,-26.762 -7.981,-36.965c14.762,-12.796 30.852,-23.599 47.938,-32.305c0.213,0.491 0.427,0.981 0.661,1.466c3.624,7.526 9.321,13.624 16.406,17.703l-55.617,96.337c5.539,-15.306 4.753,-31.839 -1.407,-46.236m-16.749,49.7l11.237,6.488c-8.18,13.66 -21.103,23.437 -36.518,27.568c-2.111,0.565 -4.234,1.008 -6.362,1.343c1.603,-1.877 3.071,-3.911 4.349,-6.124c5.476,-9.484 6.93,-20.533 4.096,-31.112c-2.044,-7.625 -6.148,-14.34 -11.828,-19.55c3.991,1.248 8.086,1.872 12.156,1.872c14.179,-0 27.991,-7.354 35.576,-20.492c1.26,-2.182 2.283,-4.436 3.102,-6.729c6.251,16.304 5.523,35.134 -3.57,51.492l-11.238,-6.488c-0.481,-0.278 -1.09,-0.112 -1.366,0.366c-0.276,0.479 -0.113,1.09 0.366,1.366m165.045,285.134c0.552,-0 1,-0.447 1,-1l0,-12.977c18.714,0.304 35.385,9.09 46.38,22.655c-2.396,-0.438 -4.86,-0.678 -7.38,-0.678c-19.527,-0 -35.898,13.725 -40,32.032c-4.103,-18.307 -20.474,-32.032 -40,-32.032c-2.521,-0 -4.984,0.24 -7.38,0.678c10.994,-13.565 27.665,-22.351 46.38,-22.655l0,12.977c0,0.553 0.448,1 1,1m137.461,-191c0,75.797 -61.665,137.462 -137.461,137.462c-75.797,-0 -137.462,-61.665 -137.462,-137.462c0,-75.797 61.665,-137.462 137.462,-137.462c75.796,-0 137.461,61.665 137.461,137.462m-107.182,-237.074c-3.373,17.79 5.417,36.365 22.488,44.587c5.636,2.714 11.682,4.082 17.759,4.082c3.851,-0 7.715,-0.557 11.492,-1.662l61.335,106.147l-23.113,13.344c-24.108,-40.916 -68.494,-68.514 -119.24,-68.873l0,-99.539c9.868,0.041 19.638,0.699 29.279,1.914m0.426,-1.978c-4.209,-0.535 -8.441,-0.977 -12.698,-1.29c4.755,-0.712 9.414,-1.719 13.972,-2.971c-0.508,1.408 -0.928,2.831 -1.274,4.261m74.99,26.547c-4.52,9.386 -12.425,16.449 -22.258,19.89c-9.833,3.439 -20.417,2.845 -29.802,-1.675c-9.386,-4.52 -16.449,-12.424 -19.89,-22.256c-3.44,-9.833 -2.846,-20.417 1.674,-29.803c4.52,-9.385 12.424,-16.449 22.257,-19.889c4.217,-1.476 8.57,-2.209 12.91,-2.209c5.779,-0 11.532,1.301 16.892,3.883c19.375,9.33 27.547,32.683 18.217,52.059m42.6,68.67c-6.092,14.239 -6.93,30.565 -1.589,45.73l-55.432,-95.932c7,-4.078 12.629,-10.14 16.222,-17.601c0.246,-0.51 0.472,-1.025 0.695,-1.54c17.141,8.717 33.281,19.547 48.085,32.379c-8.435,10.203 -11.506,24.055 -7.981,36.964m73.326,-30.306c5.208,9.022 6.592,19.532 3.896,29.594c-2.696,10.062 -9.149,18.472 -18.171,23.681c-18.622,10.752 -42.522,4.348 -53.275,-14.275c-10.753,-18.624 -4.349,-42.523 14.275,-53.275c6.126,-3.537 12.821,-5.218 19.434,-5.218c13.488,-0 26.626,6.996 33.841,19.493m41.732,68.282c-9.76,-16.904 -29.82,-24.218 -47.72,-18.631c5.674,-5.209 9.774,-11.919 11.816,-19.539c2.835,-10.579 1.38,-21.627 -4.096,-31.112c-0.571,-0.99 -1.188,-1.943 -1.831,-2.873c0.126,0.032 0.253,0.059 0.38,0.092c15.738,4.218 28.893,14.312 37.039,28.422c8.468,14.667 10.1,31.418 5.947,46.59c-0.473,-0.994 -0.975,-1.981 -1.535,-2.949m-69.282,40c-5.209,-9.022 -6.593,-19.532 -3.896,-29.594c2.696,-10.062 9.15,-18.472 18.171,-23.681c6.126,-3.537 12.822,-5.218 19.435,-5.218c13.487,-0 26.625,6.996 33.84,19.493c10.752,18.624 4.349,42.523 -14.275,53.275c-18.622,10.751 -42.522,4.349 -53.275,-14.275m-35.676,-12.016c10.465,12.154 24.999,19.555 40.349,21.383c7.786,7.845 18.366,12.125 29.171,12.125c2.286,-0 4.579,-0.211 6.86,-0.6c2.783,14.671 4.225,29.707 4.225,44.967c0,17.667 -1.913,35.039 -5.627,51.885l-74.978,-129.76Zm71.467,143.671c-1.655,5.811 -3.551,11.542 -5.641,17.196c-17.298,-8.007 -38.657,-3.73 -51.106,11.434c-0.812,0.989 -1.568,2.01 -2.276,3.053l-49.593,-28.631c11.586,-20.326 18.215,-43.827 18.215,-68.848c0,-25.021 -6.629,-48.522 -18.215,-68.847l23.108,-13.34l85.508,147.983Zm-37.523,-130.655c1.277,2.213 2.744,4.246 4.347,6.123c-2.128,-0.335 -4.25,-0.777 -6.36,-1.342c-15.415,-4.131 -28.338,-13.908 -36.519,-27.568l11.238,-6.488c0.478,-0.276 0.642,-0.887 0.366,-1.366c-0.277,-0.479 -0.887,-0.644 -1.366,-0.366l-11.238,6.488c-9.094,-16.358 -9.822,-35.188 -3.571,-51.492c0.819,2.293 1.842,4.547 3.103,6.729c7.586,13.139 21.395,20.492 35.576,20.492c4.068,-0 8.164,-0.624 12.156,-1.872c-5.68,5.21 -9.785,11.925 -11.828,19.55c-2.834,10.579 -1.38,21.628 4.096,31.112m58.684,-186.163c67.051,67.05 103.977,156.198 103.977,251.022c0,21.973 -1.999,43.657 -5.903,64.868c-10.867,-3.547 -22.129,-5.507 -33.501,-5.853c3.561,-19.268 5.404,-38.998 5.404,-59.015c0,-85.742 -33.39,-166.353 -94.019,-226.981c-34.539,-34.54 -75.57,-60.223 -120.333,-75.945c5.325,-9.906 9.312,-20.634 11.713,-31.941c49.343,17.399 94.571,45.754 132.662,83.845m126.055,329.167c5.262,-25.467 7.976,-51.631 7.976,-78.145c0,-0.553 -0.448,-1 -1,-1c-0.552,-0 -1,0.447 -1,1c0,26.122 -2.651,51.901 -7.786,77.005c-0.989,-0.609 -1.987,-1.21 -2.999,-1.794c-0.92,-0.531 -1.846,-1.048 -2.775,-1.553c4.775,-24.034 7.242,-48.686 7.242,-73.658c0,-44.89 -7.815,-88.807 -23.228,-130.533c-14.893,-40.317 -36.471,-77.567 -64.136,-110.714c-0.354,-0.425 -0.984,-0.482 -1.408,-0.127c-0.425,0.353 -0.481,0.984 -0.127,1.408c27.518,32.972 48.981,70.024 63.794,110.125c15.331,41.504 23.105,85.189 23.105,129.841c0,24.637 -2.412,48.961 -7.086,72.682c-2.97,-1.551 -5.985,-2.975 -9.041,-4.266c4.227,-22.355 6.391,-45.23 6.391,-68.416c0,-49.272 -9.652,-97.073 -28.686,-142.076c-18.384,-43.464 -44.701,-82.498 -78.22,-116.018c-33.519,-33.519 -72.554,-59.837 -116.018,-78.22c-7.274,-3.077 -14.627,-5.881 -22.041,-8.466c0.629,-4.987 0.965,-10.065 0.965,-15.22c0,-66.72 -54.28,-121 -121,-121c-66.72,-0 -121,54.28 -121,121c0,5.155 0.335,10.232 0.965,15.22c-7.414,2.585 -14.768,5.389 -22.041,8.466c-43.465,18.383 -82.499,44.701 -116.018,78.22c-33.519,33.52 -59.837,72.554 -78.221,116.018c-19.034,45.003 -28.685,92.804 -28.685,142.076c0,23.181 2.161,46.057 6.382,68.42c-3.055,1.289 -6.067,2.713 -9.035,4.263c-4.673,-23.72 -7.083,-48.044 -7.083,-72.683c0,-44.288 7.65,-87.639 22.739,-128.847c14.579,-39.818 35.719,-76.666 62.832,-109.519c0.352,-0.426 0.291,-1.057 -0.134,-1.408c-0.426,-0.35 -1.057,-0.29 -1.409,0.134c-27.257,33.03 -48.51,70.074 -63.167,110.106c-15.17,41.429 -22.861,85.011 -22.861,129.534c0,24.975 2.465,49.627 7.239,73.659c-0.928,0.505 -1.853,1.021 -2.772,1.552c-1.013,0.585 -2.012,1.185 -3.002,1.795c-5.133,-25.102 -7.783,-50.881 -7.783,-77.006c0,-0.553 -0.448,-1 -1,-1c-0.553,-0 -1,0.447 -1,1c0,26.517 2.714,52.68 7.973,78.145c-54.047,34.615 -71.893,106.209 -39.478,162.355c16.16,27.99 42.254,48.013 73.472,56.377c10.425,2.794 21.003,4.176 31.514,4.176c19.142,-0.001 38.051,-4.6 55.386,-13.588c2.835,2.527 5.709,5.02 8.628,7.473l0.766,0.643l6.634,-7.904l-0.765,-0.643c-1.96,-1.646 -3.895,-3.317 -5.816,-4.999c2.76,-1.754 5.439,-3.604 8.025,-5.555c6.224,5.395 12.624,10.598 19.215,15.577c28.898,21.829 60.674,39.131 94.5,51.461l0,9.487c-41.455,-14.589 -79.049,-35.512 -111.84,-62.253l-6.32,7.75c35.46,28.918 76.366,51.205 121.582,66.242l6.578,2.188l0,-30.468l-3.334,-1.178c-41.603,-14.706 -79.609,-36.802 -112.615,-65.194c8.613,-7.696 16.028,-16.551 22.072,-26.328c58.137,49.974 131.411,77.236 208.877,77.236c77.467,-0 150.741,-27.263 208.878,-77.238c5.987,9.683 13.316,18.465 21.824,26.109c-32.938,28.209 -70.857,50.192 -112.369,64.865l-3.333,1.178l0,30.467l6.578,-2.188c45.973,-15.289 86.879,-37.391 121.582,-65.692l-6.32,-7.75c-32.098,26.178 -69.695,46.917 -111.84,61.706l0,-9.489c41.934,-15.277 80.234,-37.845 113.524,-66.635c2.646,2.004 5.387,3.904 8.216,5.702c-1.81,1.584 -3.63,3.159 -5.474,4.712l-0.765,0.644l6.644,7.895l0.765,-0.644c2.798,-2.357 5.557,-4.75 8.278,-7.177c17.335,8.99 36.242,13.588 55.385,13.588c10.508,-0.001 21.09,-1.383 31.513,-4.176c31.219,-8.364 57.312,-28.387 73.472,-56.377c32.416,-56.146 14.569,-127.742 -39.48,-162.355"
              style="fill-rule:nonzero;"/>
    </g>
</svg>
