<?xml version="1.0" encoding="UTF-8" standalone="no"?>
<!DOCTYPE svg PUBLIC "-//W3C//DTD SVG 1.1//EN" "http://www.w3.org/Graphics/SVG/1.1/DTD/svg11.dtd">
<svg width="100%" height="100%" viewBox="0 0 524 524" version="1.1" xmlns="http://www.w3.org/2000/svg" xmlns:xlink="http://www.w3.org/1999/xlink" xml:space="preserve" xmlns:serif="http://www.serif.com/" style="fill-rule:evenodd;clip-rule:evenodd;stroke-linejoin:round;stroke-miterlimit:2;">
    <g id="Page-1" serif:id="Page 1" transform="matrix(1.50192,0,0,1,0,0)">
        <g>
            <g transform="matrix(0.665815,0,0,1,112.234,302.391)">
                <g id="Monogram-Small" serif:id="Monogram Small">
                    <path d="M0,-80.375C2.384,-87.994 5.622,-96.095 9.936,-104.631L70.588,-225.937L70.589,-225.937L70.589,-63.055C41.179,-63.999 17.874,-70.449 0,-80.375M28.89,-241.1C40.174,-241.1 49.393,-238.356 56.272,-235.204L-15.756,-91.108C-76.16,-141.329 -44.866,-241.1 28.89,-241.1M153.986,-7.869L153.986,-48.264L228.911,-51.521C229.461,-51.545 229.955,-51.865 230.201,-52.357L267.032,-126.02C267.407,-126.769 267.103,-127.68 266.354,-128.054L253.843,-134.31C253.126,-134.668 252.253,-134.41 251.854,-133.716C246.805,-124.92 214.181,-72.114 153.987,-63.423C153.986,-63.423 153.986,-138.748 153.986,-138.748L153.986,-237.309C153.986,-262.893 159.499,-280.678 161.123,-285.362C161.373,-286.082 161.043,-286.853 160.361,-287.193L147.349,-293.699C146.782,-293.982 146.097,-293.883 145.634,-293.449L125.886,-274.936C110.518,-286.123 81.644,-301.753 40.262,-301.753C-27.972,-301.753 -81.043,-241.1 -81.043,-176.656C-81.043,-132.137 -63.654,-94.865 -25.313,-71.991L-80.362,38.139C-80.738,38.89 -80.431,39.803 -79.678,40.176L-65.88,47.001L1.347,-5.287C1.917,-5.729 2.106,-6.5 1.781,-7.144C-0.58,-11.816 -9.206,-31.514 -4.399,-61.79C16.099,-53.722 40.982,-48.826 70.589,-47.77L70.589,38.482C70.589,39.057 70.913,39.582 71.427,39.839L85.166,46.708C85.54,46.896 85.982,46.914 86.375,46.769C146.664,24.387 184.313,43.468 184.313,118.288C184.313,170.793 176.731,206.215 138.823,206.215C88.95,206.215 106.031,112.479 108.271,101.182C108.403,100.513 108.068,99.857 107.457,99.553L94.188,92.918C93.666,92.657 93.04,92.719 92.579,93.077L26.101,144.783C25.516,145.237 25.334,146.026 25.685,146.678C30.737,156.056 68.45,221.378 138.823,221.378C199.476,221.378 267.71,198.633 267.71,95.786C267.71,-19.701 170.015,-8.609 155.723,-6.369C154.806,-6.225 153.986,-6.94 153.986,-7.869" style="fill-rule:nonzero;"/>
                </g>
            </g>
        </g>
    </g>
</svg>
